<?xml version="1.0" encoding="UTF-8" standalone="no"?>
<!DOCTYPE svg PUBLIC "-//W3C//DTD SVG 1.1//EN" "http://www.w3.org/Graphics/SVG/1.1/DTD/svg11.dtd">
<svg version="1.1" xmlns="http://www.w3.org/2000/svg" xmlns:xlink="http://www.w3.org/1999/xlink" preserveAspectRatio="xMidYMid meet" viewBox="0 0 640 890" width="640" height="890"><defs><path d="M640.16 566.95C640.16 743.6 496.74 887.03 320.08 887.03C143.42 887.03 0 743.6 0 566.95C0 390.29 143.42 246.87 320.08 246.87C496.74 246.87 640.16 390.29 640.16 566.95Z" id="bsLTFLQe"></path><path d="M394.48 419.03C394.48 419.03 393.73 419.03 392.82 419.03C391.9 419.03 391.16 419.03 391.16 419.03C391.16 419.03 391.9 419.03 392.82 419.03C393.73 419.03 394.15 419.03 394.48 419.03Z" id="ab4l8Yp7W"></path><path d="M497.44 7.19C372.94 21.52 313.99 94.59 320.58 226.4" id="f1cp8e0AMU"></path><path d="M267.01 153.99L373.15 153.99L373.15 316.52L267.01 316.52L267.01 153.99Z" id="b2I9OsRe9a"></path><path d="M481.83 545.24C481.83 675.39 382.86 781.05 260.96 781.05C139.06 781.05 40.1 675.39 40.1 545.24C40.1 415.09 139.06 309.43 260.96 309.43C382.86 309.43 481.83 415.09 481.83 545.24Z" id="cjBplnaqw"></path><path d="M582.46 608.68C582.46 749.27 473.67 863.42 339.68 863.42C205.68 863.42 96.89 749.27 96.89 608.68C96.89 468.08 205.68 353.93 339.68 353.93C473.67 353.93 582.46 468.08 582.46 608.68Z" id="aW8CJUEqF"></path></defs><g><g><g><use xlink:href="#bsLTFLQe" opacity="1" fill="#000000" fill-opacity="1"></use></g><g><use xlink:href="#ab4l8Yp7W" opacity="1" fill="#46344d" fill-opacity="1"></use></g><g><g><use xlink:href="#f1cp8e0AMU" opacity="1" fill-opacity="0" stroke="#66625b" stroke-width="9" stroke-opacity="1"></use></g></g><g><use xlink:href="#b2I9OsRe9a" opacity="1" fill="#000000" fill-opacity="1"></use></g><g><use xlink:href="#cjBplnaqw" opacity="1" fill="#8d8d8d" fill-opacity="1"></use></g><g><use xlink:href="#aW8CJUEqF" opacity="1" fill="#000000" fill-opacity="1"></use></g></g></g></svg>