<?xml version="1.0" encoding="UTF-8" standalone="no"?>
<svg
   xmlns:dc="http://purl.org/dc/elements/1.1/"
   xmlns:cc="http://creativecommons.org/ns#"
   xmlns:rdf="http://www.w3.org/1999/02/22-rdf-syntax-ns#"
   xmlns:svg="http://www.w3.org/2000/svg"
   xmlns="http://www.w3.org/2000/svg"
   xmlns:sodipodi="http://sodipodi.sourceforge.net/DTD/sodipodi-0.dtd"
   xmlns:inkscape="http://www.inkscape.org/namespaces/inkscape"
   version="1.1"
   preserveAspectRatio="xMidYMid meet"
   viewBox="0 0 100 100"
   width="100"
   height="100"
   id="svg935"
   sodipodi:docname="faster.svg"
   style="enable-background:new"
   inkscape:version="0.92.5 (2060ec1f9f, 2020-04-08)">
  <metadata
     id="metadata939">
    <rdf:RDF>
      <cc:Work
         rdf:about="">
        <dc:format>image/svg+xml</dc:format>
        <dc:type
           rdf:resource="http://purl.org/dc/dcmitype/StillImage" />
        <dc:title></dc:title>
      </cc:Work>
    </rdf:RDF>
  </metadata>
  <sodipodi:namedview
     pagecolor="#ffffff"
     bordercolor="#666666"
     borderopacity="1"
     objecttolerance="10"
     gridtolerance="10"
     guidetolerance="10"
     inkscape:pageopacity="0"
     inkscape:pageshadow="2"
     inkscape:window-width="1914"
     inkscape:window-height="1050"
     id="namedview937"
     showgrid="false"
     fit-margin-top="0"
     fit-margin-left="0"
     fit-margin-right="0"
     fit-margin-bottom="0"
     inkscape:zoom="2.56"
     inkscape:cx="148.42301"
     inkscape:cy="86.647365"
     inkscape:window-x="0"
     inkscape:window-y="0"
     inkscape:window-maximized="1"
     inkscape:current-layer="svg935"
     units="px" />
  <defs
     id="defs903">
    <path
       d="M 640.16,566.95 C 640.16,743.6 496.74,887.03 320.08,887.03 143.42,887.03 0,743.6 0,566.95 0,390.29 143.42,246.87 320.08,246.87 c 176.66,0 320.08,143.42 320.08,320.08 z"
       id="bsLTFLQe"
       inkscape:connector-curvature="0" />
    <path
       d="m 394.48,419.03 c 0,0 -0.75,0 -1.66,0 -0.92,0 -1.66,0 -1.66,0 0,0 0.74,0 1.66,0 0.91,0 1.33,0 1.66,0 z"
       id="ab4l8Yp7W"
       inkscape:connector-curvature="0" />
    <path
       d="M 497.44,7.19 C 372.94,21.52 313.99,94.59 320.58,226.4"
       id="f1cp8e0AMU"
       inkscape:connector-curvature="0" />
    <path
       d="M 267.01,153.99 H 373.15 V 316.52 H 267.01 Z"
       id="b2I9OsRe9a"
       inkscape:connector-curvature="0" />
    <path
       d="m 481.83,545.24 c 0,130.15 -98.97,235.81 -220.87,235.81 -121.9,0 -220.86,-105.66 -220.86,-235.81 0,-130.15 98.96,-235.81 220.86,-235.81 121.9,0 220.87,105.66 220.87,235.81 z"
       id="cjBplnaqw"
       inkscape:connector-curvature="0" />
    <path
       d="m 582.46,608.68 c 0,140.59 -108.79,254.74 -242.78,254.74 -134,0 -242.79,-114.15 -242.79,-254.74 0,-140.6 108.79,-254.75 242.79,-254.75 133.99,0 242.78,114.15 242.78,254.75 z"
       id="aW8CJUEqF"
       inkscape:connector-curvature="0" />
  </defs>
  <path
     style="fill:none;stroke:#84deff;stroke-width:12.87702751;stroke-linecap:round;stroke-linejoin:round;stroke-miterlimit:4;stroke-dasharray:none;stroke-opacity:1"
     d="M 35.011284,78.336122 6.4382442,50.118762 34.892724,21.664282"
     id="path1438"
     inkscape:connector-curvature="0"
     sodipodi:nodetypes="ccc" />
  <path
     style="fill:none;stroke:#84deff;stroke-width:12.87702751;stroke-linecap:round;stroke-linejoin:round;stroke-miterlimit:4;stroke-dasharray:none;stroke-opacity:0.63255819;enable-background:new"
     d="m 64.253664,78.336122 -28.57304,-28.21736 28.45448,-28.45448"
     id="path1438-1"
     inkscape:connector-curvature="0"
     sodipodi:nodetypes="ccc" />
  <path
     style="fill:none;stroke:#84deff;stroke-width:12.87702751;stroke-linecap:round;stroke-linejoin:round;stroke-miterlimit:4;stroke-dasharray:none;stroke-opacity:0.30232562;enable-background:new"
     d="m 93.496054,78.336122 -28.57305,-28.21736 28.45449,-28.45448"
     id="path1438-2"
     inkscape:connector-curvature="0"
     sodipodi:nodetypes="ccc" />
</svg>
