<?xml version="1.0" encoding="UTF-8" standalone="no"?>
<!-- Created with Inkscape (http://www.inkscape.org/) -->

<svg
   width="256"
   height="256"
   viewBox="0 0 67.733325 67.733325"
   version="1.1"
   id="svg5"
   inkscape:version="1.2.2 (b0a8486541, 2022-12-01)"
   sodipodi:docname="redX.svg"
   xmlns:inkscape="http://www.inkscape.org/namespaces/inkscape"
   xmlns:sodipodi="http://sodipodi.sourceforge.net/DTD/sodipodi-0.dtd"
   xmlns="http://www.w3.org/2000/svg"
   xmlns:svg="http://www.w3.org/2000/svg">
  <sodipodi:namedview
     id="namedview7"
     pagecolor="#ffffff"
     bordercolor="#666666"
     borderopacity="1.0"
     inkscape:showpageshadow="2"
     inkscape:pageopacity="0.0"
     inkscape:pagecheckerboard="0"
     inkscape:deskcolor="#d1d1d1"
     inkscape:document-units="px"
     showgrid="false"
     inkscape:zoom="2.3786088"
     inkscape:cx="29.849381"
     inkscape:cy="164.59201"
     inkscape:window-width="1920"
     inkscape:window-height="1080"
     inkscape:window-x="0"
     inkscape:window-y="0"
     inkscape:window-maximized="0"
     inkscape:current-layer="layer1" />
  <defs
     id="defs2" />
  <g
     inkscape:label="Layer 1"
     inkscape:groupmode="layer"
     id="layer1">
    <g
       id="g1020"
       transform="matrix(1.0787762,-0.03978727,0.04039318,1.0842211,-3.6677636,-1.5307942)">
      <path
         style="fill:#ff9400;fill-opacity:1;stroke:none;stroke-width:4.955;stroke-linecap:butt;stroke-linejoin:miter;stroke-dasharray:none;stroke-opacity:1"
         d="M 6.3755017,14.216695 C 25.964119,29.731738 40.300708,41.775728 51.959533,61.771195 57.064435,70.954016 69.644916,58.697823 60.057851,52.968218 42.305671,39.745481 30.994302,27.276016 15.013445,4.6296832 8.1604957,-3.6339096 -2.2997551,8.0210224 6.3755017,14.216695 Z"
         id="path236"
         sodipodi:nodetypes="ccccc" />
      <path
         style="fill:#ff9400;fill-opacity:1;stroke:none;stroke-width:4.955;stroke-linecap:butt;stroke-linejoin:miter;stroke-dasharray:none;stroke-opacity:1"
         d="M 53.231377,7.4248761 C 47.52262,18.087038 18.908714,45.650488 5.1348926,52.436682 -4.6949983,57.228112 8.2591664,70.338684 14.103065,60.820857 26.306813,42.701985 39.87844,31.885667 62.714354,16.176905 71.829046,9.746362 58.098898,-1.2894701 53.231377,7.4248761 Z"
         id="path236-3"
         sodipodi:nodetypes="ccccc" />
    </g>
  </g>
</svg>
