<?xml version="1.0" standalone="no"?>
<!DOCTYPE svg PUBLIC "-//W3C//DTD SVG 1.1//EN" "http://www.w3.org/Graphics/SVG/1.1/DTD/svg11.dtd" >
<svg>
<metadata>
Created by FontForge 20090914 at Tue Mar 23 16:14:51 2021
 By www-data
&#194;&#169; Graham Meade. All rights reserved. gem@c031.aone.net.au
</metadata>
<defs>
<font id="Kronika" horiz-adv-x="1229" >
  <font-face 
    font-family="Kronika"
    font-weight="400"
    font-stretch="normal"
    units-per-em="2048"
    panose-1="2 0 4 0 0 0 0 0 0 0"
    ascent="1638"
    descent="-410"
    x-height="1037"
    cap-height="1514"
    bbox="-264.003 -600.002 3201 2239"
    underline-thickness="174"
    underline-position="-185"
    unicode-range="U+0020-U+F002"
  />
<missing-glyph horiz-adv-x="1024" 
 />
    <glyph glyph-name=".notdef" horiz-adv-x="1024" 
 />
    <glyph glyph-name="space" unicode=" " horiz-adv-x="834" 
 />
    <glyph glyph-name="exclam" unicode="!" horiz-adv-x="461" 
d="M388 470c0 -38.667 -13.833 -68.833 -41.5 -90.5s-61.167 -32.5 -100.5 -32.5c-101.333 0 -152 75.333 -152 226c0 14.667 0.666992 36.5 2 65.5l3 64.5l5 778c0 38 14.333 68.667 43 92c26.667 21.333 59.667 32 99 32c38 0 71.167 -11.333 99.5 -34
s42.5 -52.667 42.5 -90v-1011zM400 72.001c0 -44 -17.667 -80 -53 -108c-32.667 -25.333 -71.334 -38 -116.001 -38c-45.333 0 -84.333 12.667 -117 38c-35.333 28 -53 64 -53 108c0 43.333 17.667 79 53 107c32.667 25.333 71.667 38 117 38
c44.667 0 83.334 -12.667 116.001 -38c35.333 -28 53 -63.667 53 -107z" />
    <glyph glyph-name="quotedbl" unicode="&#x22;" horiz-adv-x="853" 
d="M792 1469c0 -64.667 -5 -119 -15 -163l-35 -163c-9.33301 -43.333 -18 -71.333 -26 -84c-14.667 -20.667 -38.667 -31 -72 -31c-34 0 -57.667 10.333 -71 31c-7.33301 11.333 -16.333 39.333 -27 84c-30 132 -45 215 -45 249c0 18 0.666992 37 2 57
c6.66699 90 55.667 135 147 135c38 0 70.333 -9.33301 97 -28c30 -21.333 45 -50.333 45 -87zM352 1469c0 -64.667 -5 -119 -15 -163l-35 -163c-9.33301 -43.333 -18 -71.333 -26 -84c-14.667 -20.667 -38.667 -31 -72 -31c-34 0 -57.667 10.333 -71 31
c-7.33301 11.333 -16.333 39.333 -27 84c-30 132 -45 215 -45 249c0 18 0.666992 37 2 57c6.66699 90 55.667 135 147 135c38 0 70.333 -9.33301 97 -28c30 -21.333 45 -50.333 45 -87z" />
    <glyph glyph-name="numbersign" unicode="#" horiz-adv-x="1455" 
d="M1394 1047c0 -65.333 -54.6631 -97.998 -163.996 -97.998h-93l-60 -270c78.667 3.33301 122.667 4.33301 132 3c60.667 -8 94.667 -40.333 102 -97c5.33301 -46 -16 -78 -64 -96c-33.333 -12.667 -76.333 -18.334 -129 -17.001
c-12.667 0.666992 -38.334 1.33398 -77.001 2.00098c-2.66699 -37.333 -10 -92 -22 -164c-19.333 -71.333 -62.333 -107.333 -129 -108c-63.333 0 -99 28.333 -107 85c-4 26.667 4 88.667 24 186l-271 -3c-8.66699 -42.667 -22.334 -95 -41.001 -157
c-22.667 -76.667 -61 -115.334 -115 -116.001c-30 0 -57 8.66699 -81 26c-26.667 18 -42 41.333 -46 70c-1.33301 10 13.334 68.333 44.001 175c-61.333 -0.666992 -106.333 2.33301 -135 9c-60 14 -93.333 46.667 -100 98c-8.66699 63.333 42 97 152 101
c-5.33301 0 38 -1 130 -3c10 59.333 27 148.666 51 267.999l-34 -1c-73.333 -2 -119.333 -0.666992 -138 4c-51.333 13.333 -77 50 -77 110c0 68.667 71.667 102 215 100l76 -1c13.333 65.333 23.333 107 30 125c21.333 57.333 51.666 86.333 90.999 87
c86 0.666992 129 -40.333 129 -123c0 -19.333 -4.33301 -48.333 -13 -87l260 3c2.66699 30 9.66699 75.333 21 136c19.333 63.333 54.666 95.333 105.999 96c30 0 57.667 -8.5 83 -25.5s39.666 -40.167 42.999 -69.5c2.66699 -16 -3 -60.667 -17 -134l59 3
c110 5.33301 165 -33.667 165 -117zM900.004 947.002l-266 -3l-51 -269l261 2z" />
    <glyph glyph-name="dollar" unicode="$" horiz-adv-x="1574" 
d="M1513 404c0 -139.333 -64.0049 -249.332 -192.005 -329.999c-97.333 -62 -224.666 -103.333 -381.999 -124v-58c0 -34 -10 -65.333 -30 -94c-25.333 -37.333 -62 -56 -110 -56c-87.333 0 -135.666 68 -144.999 204c-146.667 19.333 -275.667 59.666 -387 120.999
c-137.333 75.333 -206 164.666 -206 267.999c0 39.333 15 70.666 45 93.999c27.333 22 61 33 101 33c50.667 0 96.334 -19 137.001 -57l135 -126c49.333 -37.333 108 -61.333 176 -72v451c-156.667 12.667 -269.667 35 -339 67c-100.667 46.667 -151 124.667 -151 234
c0 114.667 52 218 156 310c90.667 80 202 137.667 334 173v163c0 38.667 15 69.334 45 92.001c27.333 21.333 60.666 32 99.999 32s72 -10.667 98 -32c27.333 -23.333 41 -54 41 -92v-140c248.667 -22.667 378.667 -107 390 -253
c2.66699 -29.333 -8.16602 -58.166 -32.499 -86.499s-51.166 -42.5 -80.499 -42.5c-10.667 0 -20.667 2.66699 -30 8c-95.333 56.667 -177.666 90.667 -246.999 102v-312c180 -18 313 -55 399 -111c116.667 -76 175 -198 175 -366zM654.995 902.001v252.999
c-112.667 -41.333 -169 -93.666 -169 -156.999c0 -54.667 56 -86.667 168 -96h1zM1185 448c0 98 -82 159.333 -246 184v-402c164 48 246 120.667 246 218z" />
    <glyph glyph-name="percent" unicode="%" horiz-adv-x="2385" 
d="M2324 381c0 -99.333 -31.666 -187.335 -94.999 -264.002c-82 -99.333 -201 -151.666 -357 -156.999c-141.333 -4.66699 -261 32 -359 110c-105.333 83.333 -158 194 -158 332c0 93.333 30.667 178 92 254c89.333 110.667 224.666 169 405.999 175
c125.333 4 231 -29.667 317 -101c86.667 -73.333 137 -171.666 151 -294.999c2 -20 3 -38 3 -54zM1738 1504c0 -24 -3.66699 -43.332 -11 -57.999l-128 -268c-78.667 -170 -149 -306.667 -211 -410l-240 -397c-6.66699 -11.333 -73 -138.666 -199 -381.999
c-27.333 -52.667 -70.333 -79 -129 -79c-38 0 -71 10.333 -99 31c-31.333 23.333 -47 53.333 -47 90c0 15.333 3.33301 30.666 10 45.999c58 137.333 166.333 334.666 325 591.999c157.333 255.333 265.333 453 324 593c42 100.667 74.667 171.667 98 213
c57.333 102 111 152.333 161 151c38 -1.33301 71 -12.333 99 -33c31.333 -23.333 47 -53 47 -89zM1030 1145c0 -99.333 -31.332 -187.335 -93.999 -264.002c-82.667 -99.333 -202 -151.666 -358 -156.999c-140.667 -4.66699 -260.334 32 -359.001 110
c-105.333 83.333 -158 194 -158 332c0 93.333 31 178 93 254c89.333 110.667 224.333 169 405 175c125.333 4 231 -29.667 317 -101c86.667 -73.333 137 -171.666 151 -294.999c2 -20 3 -38 3 -54zM2059 370.997c-9.33301 170.667 -74.998 254.332 -196.998 250.999
c-78.667 -2 -138.334 -31.333 -179.001 -88c-32.667 -44 -49 -94.667 -49 -152c0 -70 23 -125 69 -165c39.333 -34.667 88.333 -51 147 -49c61.333 2.66699 111.666 21.334 150.999 56.001c42 38 61.333 87 58 147zM765.004 1135
c-9.33301 170.667 -74.999 254.332 -196.999 250.999c-78 -2 -137.667 -31.333 -179 -88c-32 -44 -48 -94.667 -48 -152c0 -70 23 -125 69 -165c39.333 -34.667 88 -51 146 -49c61.333 2.66699 111.666 21.334 150.999 56.001c42 38 61.333 87 58 147z" />
    <glyph glyph-name="ampersand" unicode="&#x26;" horiz-adv-x="1451" 
d="M1390 -32c-5.33301 -36 -24 -64.9971 -56 -86.9971c-29.333 -20.667 -63 -30.334 -101 -29.001c-35.333 0.666992 -64.666 14 -87.999 40l-130 150c-136.667 -59.333 -259.667 -89 -369 -89c-162.667 0 -296 31.333 -400 94
c-120.667 72.667 -182.334 179.667 -185.001 321c-3.33301 196.667 68 337.667 214 423c-106.667 76.667 -160 173 -160 289c0 140 57.333 252.333 172 337c103.333 76 227.666 114.667 372.999 116c154 1.33301 274.333 -31 361 -97c96.667 -74 145 -186 145 -336
c0 -98 -29.333 -174.667 -88 -230c-24 -22.667 -52 -40 -84 -52c-47.333 -38.667 -143 -76.334 -287 -113.001c-235.333 -59.333 -350.333 -168 -345 -326c2 -64.667 36.333 -113.334 103 -146.001c52 -25.333 112.333 -38 181 -38c54.667 0 118.334 15 191.001 45
c66 27.333 111 53.666 135 78.999l86 150c52 86.667 103 130 153 130c38.667 0 75.334 -30 110.001 -90c9.33301 -22 14 -48.333 14 -79c0 -83.333 -30.333 -160.666 -91 -231.999l121 -143c21.333 -26 29.666 -55 24.999 -87zM863 1100c0 71.333 -17 121 -51 149
c-30.667 25.333 -82.667 38 -156 38c-160.667 0 -240 -68.667 -238 -206c0.666992 -68.667 70 -119 208 -151c77.333 19.333 130.333 37 159 53c52 28.667 78 67.667 78 117z" />
    <glyph glyph-name="quotesingle" unicode="'" horiz-adv-x="413" 
d="M352 1469c0 -64.667 -5 -119 -15 -163l-35 -163c-9.33301 -43.333 -18 -71.333 -26 -84c-14.667 -20.667 -38.667 -31 -72 -31c-34 0 -57.667 10.333 -71 31c-7.33301 11.333 -16.333 39.333 -27 84c-30 132 -45 215 -45 249c0 18 0.666992 37 2 57
c6.66699 90 55.667 135 147 135c38 0 70.333 -9.33301 97 -28c30 -21.333 45 -50.333 45 -87z" />
    <glyph glyph-name="parenleft" unicode="(" horiz-adv-x="812" 
d="M751 -295c0 -38.667 -14 -71.002 -42 -97.002s-61.333 -39 -100 -39c-192 0 -338.333 150.667 -439 452c-72.667 218 -109 449 -109 693c0 200 46.667 428.667 140 686c114 316 249 474 405 474c39.333 0 73.333 -14.667 102 -44s43 -63.666 43 -102.999
c0 -10 -32.667 -63.333 -98 -160c-77.333 -114 -137.333 -227 -180 -339c-65.333 -169.333 -98 -348.666 -98 -537.999c0 -220 32.667 -408 98 -564c40.667 -97.333 100.667 -190 180 -278c65.333 -72 98 -119.667 98 -143z" />
    <glyph glyph-name="parenright" unicode=")" horiz-adv-x="812" 
d="M61 -295c0 -38.667 14 -71.002 42 -97.002s61.333 -39 100 -39c192 0 338.333 150.667 439 452c72.667 218 109 449 109 693c0 200 -46.667 428.667 -140 686c-114 316 -249 474 -405 474c-39.333 0 -73.333 -14.667 -102 -44s-43 -63.666 -43 -102.999
c0 -10 32.667 -63.333 98 -160c77.333 -114 137.333 -227 180 -339c65.333 -169.333 98 -348.666 98 -537.999c0 -220 -32.667 -408 -98 -564c-40.667 -97.333 -100.667 -190 -180 -278c-65.333 -72 -98 -119.667 -98 -143z" />
    <glyph glyph-name="asterisk" unicode="*" horiz-adv-x="919" 
d="M858 1371c0 -38.667 -19.6641 -67.668 -58.9971 -87.001l-101 -51l-8 -4l100 -60c38 -28 57 -57.667 57 -89c0 -30 -11.667 -55.667 -35 -77s-50.333 -32 -81 -32c-24.667 0 -53 10.333 -85 31c-13.333 9.33301 -39.333 26 -78 50c2.66699 -40 5.66699 -74 9 -102
c4.66699 -34.667 -4.5 -62.834 -27.5 -84.501s-52.167 -32.5 -87.5 -32.5c-67.333 0 -105 30.667 -113 92c-4 33.333 -7.33301 73.333 -10 120c-74.667 -49.333 -125 -74 -151 -74c-30 0 -56.833 10.833 -80.5 32.5s-35.5 47.167 -35.5 76.5c0 30.667 19 60.334 57 89.001
c9.33301 6.66699 42.666 26.667 99.999 60l-108 55c-40 20 -60 49 -60 87c0 31.333 11.167 57.5 33.5 78.5s49.5 31.5 81.5 31.5c17.333 0 72.333 -23.333 165 -70v100c0 76.667 38.667 115 116 115c32 0 59.167 -9.66699 81.5 -29s33.5 -44.666 33.5 -75.999
c0 -27.333 -1 -65.333 -3 -114c99.333 49.333 157.666 74 174.999 74c31.333 0 58.166 -10.5 80.499 -31.5s33.5 -47.167 33.5 -78.5z" />
    <glyph glyph-name="plus" unicode="+" horiz-adv-x="1338" 
d="M1277 643c0 -56 -24.668 -90.999 -74.001 -104.999c-15.333 -4.66699 -63.333 -7.33398 -144 -8.00098l-264 -3v-133c0 -10 0.333008 -24.5 1 -43.5s1 -33.5 1 -43.5c0 -116.667 -48.333 -175 -145 -175c-97.333 0 -146 89 -146 267c0 14 0.333008 34.667 1 62
s1 47.666 1 60.999c-55.333 -2.66699 -132.666 -4 -231.999 -4c-53.333 0 -99.333 8.33301 -138 25c-51.333 22 -77 53.667 -77 95c0 80.667 100 121 300 121c12.667 0 40.334 -0.333008 83.001 -1l64 -1l-2 189c-2 133.333 47.333 200 148 200
c92.667 0 139 -44.333 139 -133c0 -8.66699 -0.5 -22.167 -1.5 -40.5s-1.5 -32.166 -1.5 -41.499l2 -170c27.333 -1.33301 70.666 -1.33301 129.999 0l130 3c150 3.33301 225 -37 225 -121z" />
    <glyph glyph-name="comma" unicode="," horiz-adv-x="563" 
d="M502 130c0 -20 -5.66602 -38.998 -16.999 -56.998c-24.667 -78.667 -75.667 -191 -153 -337c-36.667 -53.333 -80.334 -80 -131.001 -80c-34.667 0 -66 9.66699 -94 29c-30.667 21.333 -46 48.666 -46 81.999c0 17.333 23.667 69 71 155c8 15.333 23 42.333 45 81
c-75.333 27.333 -113 69.666 -113 126.999c0 47.333 26 84.666 78 111.999c42.667 22.667 89.667 34 141 34c52 0 99.333 -11.333 142 -34c51.333 -27.333 77 -64.666 77 -111.999z" />
    <glyph glyph-name="hyphen" unicode="-" horiz-adv-x="1010" 
d="M949 571c0 -72.667 -55.667 -112.667 -167 -120c-101.333 -6.66699 -281.333 -10 -540 -10c-44.667 0 -84 8.66699 -118 26c-42 22 -63 53.333 -63 94c0 40 21 71.333 63 94c34.667 18 74 27 118 27c57.333 0 144 1.5 260 4.5s203 4.5 261 4.5c46 0 86 -8.33301 120 -25
c44 -22 66 -53.667 66 -95z" />
    <glyph glyph-name="hyphen" unicode="&#x2010;" horiz-adv-x="1010" 
d="M949 571c0 -72.667 -55.667 -112.667 -167 -120c-101.333 -6.66699 -281.333 -10 -540 -10c-44.667 0 -84 8.66699 -118 26c-42 22 -63 53.333 -63 94c0 40 21 71.333 63 94c34.667 18 74 27 118 27c57.333 0 144 1.5 260 4.5s203 4.5 261 4.5c46 0 86 -8.33301 120 -25
c44 -22 66 -53.667 66 -95z" />
    <glyph glyph-name="period" unicode="." horiz-adv-x="461" 
d="M400 72c0 -44 -17.667 -80 -53 -108c-32.667 -25.333 -71.334 -38 -116.001 -38c-45.333 0 -84.333 12.667 -117 38c-35.333 28 -53 64 -53 108c0 43.333 17.667 79 53 107c32.667 25.333 71.667 38 117 38c44.667 0 83.334 -12.667 116.001 -38
c35.333 -28 53 -63.667 53 -107z" />
    <glyph glyph-name="slash" unicode="/" horiz-adv-x="1186" 
d="M1125 1504c0 -24 -3.66992 -43.332 -11.0029 -57.999l-128 -268c-81.333 -174.667 -151.666 -311.334 -210.999 -410.001l-240 -397c-8.66699 -15.333 -75 -142.666 -199 -381.999c-27.333 -52.667 -70.333 -79 -129 -79c-37.333 0 -70.333 10.667 -99 32
c-31.333 23.333 -47 53 -47 89c0 15.333 3.33301 30.666 10 45.999c58.667 137.333 166.834 334.333 324.501 591s265.834 454.667 324.501 594c44 103.333 76.667 174.333 98 213c56.667 102 110.667 152.333 162 151c37.333 -1.33301 70 -12.333 98 -33
c31.333 -23.333 47 -53 47 -89z" />
    <glyph glyph-name="zero" unicode="0" horiz-adv-x="1440" 
d="M1379 793c0 -554.667 -222.999 -832 -668.999 -832c-432.667 0 -649 251 -649 753c0 214 50 400.333 150 559c118 188 281 282 489 282c203.333 0 370.666 -83 501.999 -249c118 -149.333 177 -320.333 177 -513zM970.001 1141
c-66.667 102.667 -157.001 154 -271.001 154c-118.667 0 -208 -69 -268 -207c-45.333 -104 -68 -223.667 -68 -359c0 -40.667 0.666992 -76 2 -106l58 56c24 24.667 70.667 68.667 140 132l363 301c16.667 14 31.334 23.667 44.001 29zM1071 758
c0 30.667 -2.00195 62.001 -6.00195 94.001c-30.667 -26.667 -66 -55.334 -106 -86.001c-70 -54 -130.333 -104 -181 -150l-139.5 -132l-139.5 -132c-13.333 -12 -27.666 -21.333 -42.999 -28c56.667 -69.333 141.334 -104 254.001 -104c240.667 0 361 179.333 361 538z" />
    <glyph glyph-name="one" unicode="1" horiz-adv-x="914" 
d="M853 128c0 -38.667 -13.333 -69.667 -40 -93s-60 -35 -100 -35s-100.5 -2.33301 -181.5 -7s-141.833 -7 -182.5 -7c-134.667 0 -202 35.667 -202 107c0 110 63.667 163 191 159v837c-10.667 -6.66699 -52 -10 -124 -10c-40 0 -75 12 -105 36c-32 26 -48 58.333 -48 97
c0 53.333 67 125.333 201 216c130 87.333 227 131 291 131c66 0 99 -36 99 -108c0 -103.333 -3.66699 -258.5 -11 -465.5s-11 -362.167 -11 -465.5v-263c69.333 0 119 -6 149 -18c49.333 -19.333 74 -56.333 74 -111z" />
    <glyph glyph-name="two" unicode="2" horiz-adv-x="1321" 
d="M1260 131c0 -38.667 -14.8311 -70.498 -44.498 -95.498s-63.834 -37.5 -102.501 -37.5h-42c-26.667 -0.666992 -49.667 -1 -69 -1h-635c-118.667 0 -186.667 3 -204 9c-26 9.33301 -56 48 -90 116c-8 16.667 -12 33.334 -12 50.001c0 73.333 75.333 165.333 226 276
l417 311c150 115.333 225 230.666 225 345.999c0 34 -25.333 71.333 -76 112s-93.667 61 -129 61c-52 0 -135.5 -31.5 -250.5 -94.5s-173.167 -94.5 -174.5 -94.5c-40 0 -75 9 -105 27c-35.333 21.333 -53 50.666 -53 87.999c0 78 76.667 154.667 230 230
c138.667 68 256.334 102 353.001 102c122 0 237.333 -40.667 346 -122c115.333 -86.667 173 -187 173 -301c0 -160.667 -63 -309.334 -189 -446.001c-80.667 -88.667 -196.667 -178.334 -348 -269.001c-125.333 -75.333 -188 -118.666 -188 -129.999
c0 -3.33301 1.33301 -6.33301 4 -9c48 5.33301 96.333 8.66602 145 9.99902c29.333 0.666992 77.666 0.333984 144.999 -0.999023s116.333 -2 147 -2c69.333 0 131.666 -8.66699 186.999 -26c76 -24 114 -60.333 114 -109z" />
    <glyph glyph-name="three" unicode="3" horiz-adv-x="1241" 
d="M1180 442c0 -148 -59.3311 -268.331 -177.998 -360.998c-108.667 -84.667 -239.334 -127 -392.001 -127c-116.667 0 -221.667 21 -315 63c-111.333 50 -186.333 122.667 -225 218c-6 14.667 -9 29.667 -9 45c0 38 17 69.333 51 94c30 22 64.667 33 104 33
c46.667 0 83.667 -16.667 111 -50c48.667 -58.667 76 -90 82 -94c45.333 -33.333 112.333 -50 201 -50c63.333 0 121 16 173 48c59.333 37.333 89 86 89 146c0 166 -123 260 -369 282c-107.333 9.33301 -161 50.333 -161 123c0 55.333 41.667 95.666 125 120.999l237 49
c98 20.667 148 66 150 136c3.33301 99.333 -82 149 -256 149c-40 0 -102.5 -19.833 -187.5 -59.5s-131.833 -59.5 -140.5 -59.5c-40 0 -74.667 12.333 -104 37c-31.333 26 -47 58.333 -47 97c0 56.667 61.667 113 185 169c110 50 199.667 75 269 75
c155.333 0 282.666 -28 381.999 -84c123.333 -70 185 -177.333 185 -322c0 -146.667 -62.333 -250 -187 -310c151.333 -76.667 227 -199.334 227 -368.001z" />
    <glyph glyph-name="four" unicode="4" horiz-adv-x="1469" 
d="M1408 532c0 -39.333 -15.999 -71.332 -47.999 -95.999c-28.667 -22 -63.334 -33 -104.001 -33c-44.667 0 -111 0.333008 -199 1c0 -8.66699 1.33301 -61.334 4 -158.001c2 -72 3 -133 3 -183c0 -40.667 -15.333 -73.667 -46 -99c-28.667 -22.667 -63.667 -34 -105 -34
c-43.333 0 -79 11.333 -107 34c-30 24 -45 57.333 -45 100c0 40 -1.33301 100.667 -4 182l-4 162c-130 2.66699 -244 5.66699 -342 9c-178 6 -276 13.333 -294 22c-37.333 18 -56 43.667 -56 77c0 38.667 7 71.667 21 99c4 8 24.333 36 61 84c86 114 153 210.333 201 289
l181 303l89 157c36 62 83 93 141 93c35.333 0 69.333 -12 102 -36c34.667 -26 52 -56 52 -90c0 -12.667 -3.66699 -24.667 -11 -36c-40 -62.667 -169.667 -296.667 -389 -702l257 -1c6 78.667 9 145 9 199c0 40.667 15.333 73.667 46 99c28.667 22.667 64 34 106 34
s77 -11.333 105 -34c31.333 -25.333 47 -58.333 47 -99c0 -55.333 -3.33301 -123.333 -10 -204c74.667 -2.66699 138.667 -6 192 -10c98 -7.33301 147 -50.333 147 -129z" />
    <glyph glyph-name="five" unicode="5" horiz-adv-x="1325" 
d="M1263 523c0 -195.333 -60.335 -343.664 -181.002 -444.997c-112.667 -94 -269 -141 -469 -141c-103.333 0 -214.666 27.667 -333.999 83c-140.667 65.333 -211 141.333 -211 228c0 38.667 16.333 70.667 49 96c30.667 22.667 66 34 106 34s77 -15.667 111 -47
c60.667 -56 93.334 -85.333 98.001 -88c48 -31.333 108.333 -47 181 -47c232 0 348 109 348 327c0 198 -73 297 -219 297c-65.333 0 -157.666 -20 -276.999 -60s-204 -60 -254 -60c-40 0 -74.333 11.667 -103 35c-31.333 25.333 -47 57.333 -47 96
c0 51.333 2 128.166 6 230.499s6 179.166 6 230.499c0 16 0.833008 40.167 2.5 72.5s2.5 56.5 2.5 72.5c0 63.333 52.333 95 157 95c15.333 0 38 -1 68 -3s52.333 -3 67 -3c93.333 0 204.666 1.66699 333.999 5c154.667 4 265.667 6 333 6c37.333 0 69.333 -11.333 96 -34
s40 -52.334 40 -89.001c0 -99.333 -112 -149 -336 -149c-13.333 0 -33 0.333008 -59 1s-45.333 1 -58 1h-317c0.666992 -16.667 1 -35.667 1 -57c0 -49.333 -2 -111 -6 -185c81.333 36 196 54 344 54c164.667 0 293.667 -52.333 387 -157c89.333 -100 134 -233 134 -399z
" />
    <glyph glyph-name="six" unicode="6" horiz-adv-x="1387" 
d="M1326 1176c0.666992 -20 -13.3359 -36.668 -42.0029 -50.001c-24 -11.333 -47 -17 -69 -17c-40.667 -0.666992 -108 21.833 -202 67.5s-163.667 68.167 -209 67.5c-77.333 -1.33301 -129.666 -7 -156.999 -17c-54 -20 -102 -66 -144 -138
c-11.333 -19.333 -25.333 -58 -42 -116c-18.667 -66 -30 -104 -34 -114c64.667 65.333 97 94.333 97 87c0 -1.33301 -0.333008 -2.66602 -1 -3.99902c75.333 28 143 42.667 203 44c172.667 2.66699 310.334 -33.666 413.001 -108.999
c114.667 -83.333 175 -208.666 181 -375.999c6.66699 -166.667 -43.666 -302.334 -150.999 -407.001c-86.667 -84.667 -231.667 -128.667 -435 -132c-222.667 -3.33301 -378.667 51 -468 163l3 -3c-130 128.667 -199 303.667 -207 525
c-7.33301 199.333 48.667 387.666 168 564.999c135.333 200.667 307 302.667 515 306c144 2 264.333 -24 361 -78c142.667 -80.667 216 -168.667 220 -264zM1018 495.999c-5.33301 149.333 -109.667 222.335 -313 219.002c-55.333 -0.666992 -104 -9.33398 -146 -26.001
c-24 -9.33301 -64.667 -31 -122 -65c-2 -28.667 -2.66699 -54 -2 -76c8 -232.667 106.667 -347.334 296 -344.001c60 1.33301 103.333 5 130 11c40 9.33301 71.333 28 94 56c45.333 56 66.333 131 63 225z" />
    <glyph glyph-name="seven" unicode="7" horiz-adv-x="1469" 
d="M1408 1395c0 -39.333 -22.001 -76.333 -66.001 -111l-114 -89c-362.667 -364.667 -563 -677 -601 -937c-4 -24 -12 -85.667 -24 -185c-20.667 -87.333 -66.667 -131 -138 -131c-35.333 0 -67.5 10.333 -96.5 31s-47.5 47.667 -55.5 81c-5.33301 22 -8 48.667 -8 80
c0 159.333 43.667 333.333 131 522c113.333 244 273.333 436.667 480 578c-243.333 0 -479.666 5.33301 -708.999 16c-97.333 4.66699 -146 47.667 -146 129c0 39.333 16 71.333 48 96c28.667 22 63.334 33 104.001 33c709.333 0 1088.67 -12 1138 -36
c38 -18 57 -43.667 57 -77z" />
    <glyph glyph-name="eight" unicode="8" horiz-adv-x="1315" 
d="M1254 378c-2.66699 -146 -68.002 -258.668 -196.002 -338.001c-111.333 -69.333 -251 -103.333 -419 -102c-162 0.666992 -295.333 33 -400 97c-121.333 74 -180.666 181.333 -177.999 322c4 198.667 77.667 339.334 221 422.001c-104.667 77.333 -156 174 -154 290
c3.33301 138.667 63 250.334 179 335.001c106 76.667 231 114.667 375 114c337.333 -2 503.333 -147.333 498 -436c-2 -126.667 -61 -220.334 -177 -281.001c170.667 -88.667 254.334 -229.667 251.001 -423zM876.998 1084c1.33301 70.667 -14.667 120.333 -48 149
c-30.667 25.333 -82.334 38.333 -155.001 39c-159.333 0.666992 -240.333 -67.333 -243 -204c-1.33301 -46 22.334 -83.667 71.001 -113c40 -24.667 85 -38 135 -40c41.333 -1.33301 94.666 16 159.999 52c52.667 29.333 79.334 68.333 80.001 117zM935.998 409.998
c1.33301 77.333 -28.999 143.666 -90.999 198.999c-58.667 52.667 -127.334 80.667 -206.001 84c-80 -6 -145.833 -39.167 -197.5 -99.5s-78.167 -131.166 -79.5 -212.499c-2 -71.333 28.333 -124.333 91 -159c49.333 -27.333 112.666 -41.333 189.999 -42
c94.667 -0.666992 164.334 13.333 209.001 42c54 36 82 98.667 84 188z" />
    <glyph glyph-name="nine" unicode="9" horiz-adv-x="1385" 
d="M1323 831c8.66699 -198 -45.998 -386.001 -163.998 -564.001c-133.333 -200.667 -304 -302.667 -512 -306c-145.333 -2 -266 23.667 -362 77c-144 80.667 -218 168.667 -222 264c-0.666992 19.333 13.333 36 42 50c23.333 10.667 46 16.334 68 17.001
c57.333 0.666992 124 -22 200 -68c93.333 -56.667 164.333 -85.667 213 -87c95.333 -3.33301 166.666 19.334 213.999 68.001c19.333 19.333 60.333 84 123 194c10 16.667 17 40.334 21 71.001c5.33301 36 10 60 14 72c-56.667 -58 -88 -87 -94 -87
c-0.666992 0 -1 0.333008 -1 1s0.333008 1.66699 1 3c-75.333 -28 -143.333 -42.667 -204 -44c-172.667 -2.66699 -310.667 33.666 -414 108.999c-114.667 84 -176 209.333 -184 376c-8 176 43.333 315.333 154 418c106 97.333 248.333 147.666 427 150.999
c207.333 3.33301 363.666 -61 468.999 -193l-3 3c132 -128.667 203.333 -303.667 214 -525zM947.002 929.999c-11.333 252.667 -111 377.331 -299 373.998c-96 -1.33301 -169 -31.666 -219 -90.999c-47.333 -57.333 -69 -134.333 -65 -231
c7.33301 -149.333 112.333 -222.333 315 -219c56 0.666992 104.333 9.33398 145 26.001c22 8.66699 62.667 30.334 122 65.001c2.66699 21.333 3 46.666 1 75.999z" />
    <glyph glyph-name="colon" unicode=":" horiz-adv-x="463" 
d="M400 898c0 -44 -17.667 -80 -53 -108c-32.667 -25.333 -71.334 -38 -116.001 -38c-45.333 0 -84.333 12.667 -117 38c-35.333 28 -53 64 -53 108c0 43.333 17.667 79 53 107c32.667 25.333 71.667 38 117 38c44.667 0 83.334 -12.667 116.001 -38
c35.333 -28 53 -63.667 53 -107zM402 72c0 -44 -17.667 -80 -53 -108c-32.667 -25.333 -71.334 -38 -116.001 -38c-45.333 0 -84.333 12.667 -117 38c-35.333 28 -53 64 -53 108c0 43.333 17.667 79 53 107c32.667 25.333 71.667 38 117 38
c44.667 0 83.334 -12.667 116.001 -38c35.333 -28 53 -63.667 53 -107z" />
    <glyph glyph-name="semicolon" unicode=";" horiz-adv-x="563" 
d="M418 898c0 -44 -17.6689 -80 -53.002 -108c-32.667 -25.333 -71.667 -38 -117 -38s-84 12.667 -116 38c-35.333 28 -53 64 -53 108c0 43.333 17.667 79 53 107c32.667 25.333 71.334 38 116.001 38s83.334 -12.667 116.001 -38c36 -28 54 -63.667 54 -107zM501.998 130
c0 -20 -5.66602 -38.998 -16.999 -56.998c-24.667 -78.667 -75.667 -191 -153 -337c-36.667 -53.333 -80.334 -80 -131.001 -80c-34.667 0 -66 9.66699 -94 29c-30.667 21.333 -46 48.666 -46 81.999c0 17.333 23.667 69 71 155c8 15.333 23 42.333 45 81
c-75.333 27.333 -113 69.666 -113 126.999c0 47.333 26 84.666 78 111.999c42.667 22.667 89.667 34 141 34c52 0 99.333 -11.333 142 -34c51.333 -27.333 77 -64.666 77 -111.999z" />
    <glyph glyph-name="less" unicode="&#x3c;" horiz-adv-x="1001" 
d="M940 1026c0 -36 -67.667 -107.002 -203 -213.002l-256 -197l242 -191c128.667 -101.333 193 -168 193 -200c0 -35.333 -15.333 -65 -46 -89c-28 -21.333 -60.333 -32 -97 -32c-64 0 -166.333 54.667 -307 164l-294 228c-18.667 10.667 -43 25.667 -73 45
c-25.333 16 -38 38 -38 66c0 34.667 44.333 79.334 133 134.001l186 120c218.667 190 357.667 285 417 285c36.667 0 69 -10.667 97 -32c30.667 -23.333 46 -52.666 46 -87.999z" />
    <glyph glyph-name="equal" unicode="=" horiz-adv-x="1245" 
d="M1184 882c0 -36.667 -14.666 -65.668 -43.999 -87.001c-26.667 -19.333 -59.334 -29 -98.001 -29l-840 -4c-37.333 0 -69.333 10 -96 30c-30 22 -45 51 -45 87c0 80.667 78 121 234 121l747 -2c39.333 0 72 -9.33301 98 -28c29.333 -21.333 44 -50.666 44 -87.999z
M1169 473.999c0 -36.667 -14.999 -65.666 -44.999 -86.999c-26.667 -19.333 -59 -29 -97 -29l-809 -2c-38.667 0 -71.334 9.33301 -98.001 28c-31.333 21.333 -47 50.666 -47 87.999c0 83.333 80 125 240 125c11.333 0 28 -0.333008 50 -1s39.333 -1 52 -1l370 1
c124.667 0 201.667 -2 231 -6c102 -14 153 -52.667 153 -116z" />
    <glyph glyph-name="greater" unicode="&#x3e;" horiz-adv-x="1001" 
d="M940 607c0 -27.333 -12.334 -49.3311 -37.001 -65.998c-10 -6.66699 -34.667 -21.667 -74 -45l-294 -228c-140.667 -109.333 -243 -164 -307 -164c-36.667 0 -69 10.667 -97 32c-30.667 24 -46 53.667 -46 89c0 31.333 64.333 98 193 200
c4.66699 3.33301 85.334 67 242.001 191l-255 197c-136 106.667 -204 177.667 -204 213s15.333 64.666 46 87.999c28 21.333 60.333 32 97 32c59.333 0 198.333 -95 417 -285c22.667 -20 52.667 -41 90 -63l96 -57c88.667 -52.667 133 -97.334 133 -134.001z" />
    <glyph glyph-name="question" unicode="?" horiz-adv-x="1210" 
d="M1149 1111c-2 -100 -32.334 -175.667 -91.001 -227c-30.667 -26.667 -96 -61 -196 -103c-93.333 -39.333 -160.333 -79 -201 -119c-27.333 -26.667 -44 -68.334 -50 -125.001c-8 -72 -13.667 -113 -17 -123c-14.667 -36.667 -48.667 -55 -102 -55
c-85.333 0 -135 42.333 -149 127c-4.66699 26.667 -7 52.334 -7 77.001c0 108.667 44 198.667 132 270c26.667 22 108 68.333 244 139c88 46 132 92.333 132 139c0 104 -106.667 156 -320 156c-29.333 0 -83.666 -20.5 -162.999 -61.5s-128 -61.5 -146 -61.5
c-39.333 0 -74.833 13.5 -106.5 40.5s-47.5 60.167 -47.5 99.5c0 64 61 124 183 180c106.667 49.333 200 74 280 74c170 0 313.667 -34.667 431 -104c132 -78 196.667 -185.667 194 -323zM615.999 90c0 -43.333 -18 -79 -54 -107c-32.667 -26 -71.334 -39 -116.001 -39
s-83.334 13 -116.001 39c-35.333 28 -53 63.667 -53 107s17.667 79 53 107c32.667 26 71.334 39 116.001 39s83.334 -13 116.001 -39c36 -28 54 -63.667 54 -107z" />
    <glyph glyph-name="at" unicode="@" horiz-adv-x="2190" 
d="M2129 330c0 -176.667 -145.666 -304.334 -436.999 -383.001c-190 -51.333 -410.667 -77 -662 -77c-263.333 0 -487 73.333 -671 220c-198.667 158 -298 365.667 -298 623c0 271.333 86.333 491 259 659c171.333 165.333 393.333 248 666 248
c252.667 0 470.334 -65.333 653.001 -196c196.667 -141.333 295 -323.666 295 -546.999c0 -178 -65.667 -312.667 -197 -404c-114 -78.667 -263.667 -118 -449 -118c-38.667 0 -83 8.33301 -133 25c-18 19.333 -25 45 -21 77c-77.333 -51.333 -151.666 -77 -222.999 -77
c-103.333 0 -190 22.667 -260 68c-82 52.667 -123 128 -123 226c0 129.333 54 238 162 326c101.333 82.667 218 124 350 124c67.333 0 134 -15 200 -45c24 59.333 60 89 108 89c29.333 0 54 -8.83301 74 -26.5s30 -40.834 30 -69.501c0 -64 -13.333 -144.667 -40 -242
l-65 -240c-2.66699 -24.667 3.66602 -40.667 18.999 -48c9.33301 -4.66699 28.666 -7 57.999 -7c75.333 0 136.666 42.333 183.999 127c38.667 70 58 141.667 58 215c0 146 -75.667 266.667 -227 362c-134.667 85.333 -285.667 128 -453 128c-194 0 -348.667 -61 -464 -183
c-112 -119.333 -168 -276.333 -168 -471c0 -213.333 81.667 -371.666 245 -474.999c135.333 -86 316 -129 542 -129c194 0 355.333 28.333 484 85c79.333 34.667 156.333 87.667 231 159c60 56.667 103 85 129 85c36 0 68 -8.66699 96 -26c32 -20.667 48 -48 48 -82z
M1193 869c-73.333 46 -136.333 69 -189 69c-64.667 0 -121 -22.5 -169 -67.5s-72 -99.5 -72 -163.5c0 -93.333 61.667 -140 185 -140c29.333 0 67 11 113 33c54.667 26 86 57 94 93z" />
    <glyph glyph-name="A" unicode="A" horiz-adv-x="1671" 
d="M1610 88c0 -37.333 -14.666 -67.333 -43.999 -90c-26.667 -20 -59.334 -30 -98.001 -30c-62.667 0 -137 62.667 -223 188c-54.667 78.667 -106 169 -154 271c-76 -10 -174.667 -14 -296 -12c-152.667 2.66699 -251.334 2.33398 -296.001 -0.999023
c-35.333 -147.333 -59 -236 -71 -266c-44 -114.667 -99.333 -172 -166 -172c-45.333 0 -87 13 -125 39c-41.333 27.333 -66.333 62.666 -75 105.999c-0.666992 3.33301 -1 7.33301 -1 12c0 32 17.667 91.333 53 178l77 187c312.667 742.667 504.667 1114 576 1114
c92.667 0 161 -48.333 205 -145l495 -1068c0.666992 -2 29.334 -53.333 86.001 -154c38 -68 57 -120.333 57 -157zM971.001 678l-176 468l-207 -491c38 8.66699 101.333 13.667 190 15c96.667 2 161 4.66699 193 8z" />
    <glyph glyph-name="B" unicode="B" horiz-adv-x="1330" 
d="M1269 410c-7.33301 -184 -95.334 -312.666 -264.001 -385.999c-118 -51.333 -283.667 -77 -497 -77c-30 0 -75 0.833008 -135 2.5s-105 2.5 -135 2.5c-44.667 0 -83.667 15 -117 45c-35.333 30.667 -53 68 -53 112l-7 1235c-0.666992 106.667 52.666 175 159.999 205
c52 14.667 157.333 22 316 22c156 0 295 -37.667 417 -113c136.667 -84 205 -192 205 -324c0 -146 -79.667 -256.333 -239 -331c78.667 -16 156.334 -65.333 233.001 -148c80.667 -86.667 119.334 -168.334 116.001 -245.001zM853.999 1134c0 54 -38.333 96.667 -115 128
c-62.667 25.333 -130 38 -202 38c-93.333 0 -150 -0.666992 -170 -2v-362c48.667 -5.33301 89 -8 121 -8c244 0 366 68.667 366 206zM968.999 400.001c0 88 -23.333 143.667 -70 167c-104.667 53.333 -282 84.333 -532 93v-434c74 -13.333 144 -20 210 -20
c86 0 166.333 13.333 241 40c100.667 36 151 87.333 151 154z" />
    <glyph glyph-name="C" unicode="C" horiz-adv-x="1427" 
d="M1366 305c0 -82.667 -81.999 -160.667 -245.999 -234c-142.667 -64 -265.334 -96 -368.001 -96c-197.333 0 -363.333 72 -498 216c-128.667 136.667 -193 296.334 -193 479.001c0 193.333 67.667 385 203 575c148.667 209.333 319.667 314 513 314
c111.333 0 230.333 -37.667 357 -113c140 -83.333 210 -172.333 210 -267c0 -20 -14.667 -36.667 -44 -50c-23.333 -10.667 -46.666 -16 -69.999 -16c-38.667 0 -104.5 23.667 -197.5 71s-161.833 71 -206.5 71c-111.333 0 -217 -80 -317 -240
c-90 -144 -135 -274.333 -135 -391c0 -95.333 27.667 -178 83 -248c62 -78 143.667 -117 245 -117c71.333 0 140.666 18 207.999 54c24 12.667 75 46.667 153 102c52 36.667 92 55 120 55c47.333 0 89.333 -15.333 126 -46c38 -32.667 57 -72.334 57 -119.001z" />
    <glyph glyph-name="D" unicode="D" horiz-adv-x="1413" 
d="M1351 723c0 -249.333 -45.332 -432.666 -135.999 -549.999c-104.667 -135.333 -281.667 -203 -531 -203c-31.333 0 -77.833 -2.16699 -139.5 -6.5s-108.167 -6.5 -139.5 -6.5c-89.333 0 -153 11 -191 33c-41.333 0.666992 -76.666 13 -105.999 37
c-31.333 26 -47 59 -47 99c0.666992 98.667 2.66699 309.667 6 633l5 633c0.666992 44 20 82.333 58 115s79.667 49 125 49c17.333 0 47.666 1.66699 90.999 5c38.667 2.66699 69 3.66699 91 3c217.333 -9.33301 387.666 -35 510.999 -77
c182 -62.667 299.333 -167.667 352 -315c34 -96.667 51 -246.334 51 -449.001zM1042 636c0 27.333 -0.333008 55.001 -1 83.001c-4.66699 196 -32.667 333.667 -84 413c-74 114 -216 171 -426 171c-46 0 -96.333 -2.66699 -151 -8l-5 -1075
c23.333 -14 61.666 -21 114.999 -21c22 0 52.667 1.66699 92 5c42.667 3.33301 73.334 5.33301 92.001 6c148.667 3.33301 252 52.666 310 147.999c38.667 64 58 156.667 58 278z" />
    <glyph glyph-name="E" unicode="E" horiz-adv-x="1358" 
d="M1296 1419c0 -39.333 -14.834 -72.333 -44.501 -99s-64.5 -40 -104.5 -40c-44.667 0 -110.667 -1.66699 -198 -5c-90 -3.33301 -155.333 -4.66602 -196 -3.99902c-3.33301 0 -59.333 1.66699 -168 5c-67.333 2 -123 0.333008 -167 -5
c-2 -120.667 -5.33301 -247.667 -10 -381c30 5.33301 60.333 8.66602 91 9.99902c18.667 0.666992 49 0.333984 91 -0.999023l92 -3c20.667 -0.666992 50.334 0.666016 89.001 3.99902c42 4 72 6 90 6c102.667 0 154 -44.333 154 -133c0 -104.667 -59.333 -157 -178 -157
c-17.333 0 -43.333 1.16699 -78 3.5s-60.334 3.5 -77.001 3.5c-139.333 0 -232 -5.33301 -278 -16v-428l714 2c40.667 0 76 -13 106 -39s45 -59 45 -99c0 -98 -180.667 -147 -542 -147c-44 0 -110 1.83301 -198 5.5s-154 5.5 -198 5.5h-22
c-5.33301 -2 -28.666 -3 -69.999 -3c-72.667 0 -118 27.333 -136 82c-28 34.667 -42 80 -42 136c0 90.667 5.83301 226.167 17.5 406.5s17.5 315.5 17.5 405.5v244c0 20 -1 50.333 -3 91s-3 71 -3 91c0 80 26.333 130.667 79 152c18 13.333 50 20 96 20
c38.667 0 56 0.666992 52 2h9c47.333 0 118.5 1.5 213.5 4.5s166.167 4.5 213.5 4.5c362 0 543 -41.333 543 -124z" />
    <glyph glyph-name="F" unicode="F" horiz-adv-x="1267" 
d="M1268 1419c0 -40 -15.001 -73.167 -45.001 -99.5s-65.333 -39.5 -106 -39.5c-43.333 0 -108.666 -1.5 -195.999 -4.5s-153 -4.5 -197 -4.5c3.33301 0 -54.667 1.66699 -174 5c-71.333 2 -129.333 -0.333008 -174 -7v-380c30 6 60.333 9.66699 91 11
c19.333 0.666992 50.666 0.333984 93.999 -0.999023l92 -3c26 -0.666992 62.667 0.666016 110 3.99902c52 4 89 6 111 6c155.333 0 233 -44.333 233 -133c0 -104.667 -88.333 -157 -265 -157c-20.667 0 -52.167 1.16699 -94.5 3.5s-73.833 3.5 -94.5 3.5
c-139.333 0 -231.666 -5.33301 -276.999 -16v-577c0 -40.667 -18 -74 -54 -100c-32.667 -24 -69.667 -36 -111 -36s-75.5 12.5 -102.5 37.5s-40.5 57.833 -40.5 98.5v1148c0 20 -1.16699 50.333 -3.5 91s-3.5 71 -3.5 91c0 62.667 14 106 42 130c34 29.333 99 44 195 44
c47.333 0 118.333 1.5 213 4.5s165.667 4.5 213 4.5c362.667 0 544 -41.333 544 -124z" />
    <glyph glyph-name="G" unicode="G" horiz-adv-x="1449" 
d="M1388 292c0 -10 -1.66992 -19.667 -5.00293 -29v-182c0 -40.667 -15.167 -73.667 -45.5 -99s-66.166 -38 -107.499 -38c-78 0 -127.333 33.333 -148 100c-124 -45.333 -226.667 -68 -308 -68c-191.333 0 -356.666 62.333 -495.999 187
c-144.667 129.333 -217 288.666 -217 477.999c0 224.667 45 412.667 135 564c125.333 210 326.333 315.667 603 317c110.667 0.666992 229.667 -35.333 357 -108c140 -80 210 -165.667 210 -257c0 -18.667 -15 -34.334 -45 -47.001c-23.333 -10 -46.333 -15 -69 -15
c-40 0 -106.333 22.5 -199 67.5s-161 67.833 -205 68.5c-176 2 -305.667 -79 -389 -243c-56.667 -113.333 -85 -243.666 -85 -390.999c0 -97.333 34.167 -180 102.5 -248s150.833 -102 247.5 -102c67.333 0 134 16 200 48c33.333 16.667 82.333 47.334 147 92.001l9 196
c-129.333 -2 -236.333 -3 -321 -3c-40.667 0 -76 13 -106 39s-45 59 -45 99c0 98 84.667 147 254 147c28.667 0 71.334 -1.83301 128.001 -5.5s99 -5.5 127 -5.5c180.667 0 270.667 -71.667 270 -215l-3 -320c2.66699 -9.33301 4 -18.333 4 -27z" />
    <glyph glyph-name="H" unicode="H" horiz-adv-x="1501" 
d="M1439 1417c0 -99.333 -9.99902 -248.333 -29.999 -447s-30 -347.667 -30 -447c0 -48.667 4 -121.334 12 -218.001s12 -169.334 12 -218.001c0 -39.333 -14.833 -71 -44.5 -95s-64.5 -36 -104.5 -36c-122 0 -183 138 -183 414c0 22 3.66699 106.667 11 254
c-23.333 -0.666992 -49 -1 -77 -1c-41.333 0 -103.5 1.33301 -186.5 4s-145.167 4 -186.5 4c-96 0 -177.667 -5.66699 -245 -17l-1 -242c-0.666992 -120 -13.334 -221.667 -38.001 -305c-29.333 -100 -75 -150 -137 -150c-40.667 0 -75.334 11.667 -104.001 35
c-30.667 24.667 -46 56.667 -46 96c0 152.667 8.66699 381.834 26 687.501s26 534.834 26 687.501c0 39.333 15.333 71.333 46 96c28.667 23.333 63 35 103 35c40.667 0 75.834 -12 105.501 -36s44.5 -55.667 44.5 -95c0 -81.333 -3.66699 -172 -11 -272
c-8.66699 -120 -13.334 -210.667 -14.001 -272c63.333 10.667 142 16 236 16c43.333 0 108.5 -1.5 195.5 -4.5s152.167 -4.5 195.5 -4.5c24 0 46.667 0.333008 68 1c0.666992 46.667 3.33398 123 8.00098 229c11.333 287.333 77.333 431 198 431
c40 0 74.667 -11.333 104 -34c31.333 -24.667 47 -56.667 47 -96z" />
    <glyph glyph-name="I" unicode="I" horiz-adv-x="755" 
d="M694 1384c0 -53.333 -7.66504 -88.666 -22.998 -105.999c-4.66699 -5.33301 -23.667 -13.5 -57 -24.5s-57.333 -25.5 -72 -43.5c-12 -147.333 -18 -303.666 -18 -468.999l1 -469c66.667 -8 106.667 -17.333 120 -28c22.667 -18 34 -59.667 34 -125
c0 -104 -110.333 -156 -331 -156h-58c1.33301 0 -9.33398 0.333008 -32.001 1h-20c-40.667 0 -75.667 12 -105 36c-32 26 -48 59 -48 99c0 71.333 3.33301 111.666 10 120.999c10.667 14.667 50.667 24.667 120 30l-2 504c-0.666992 145.333 6.66602 301 21.999 467
c-10 -0.666992 -15.667 -1.66699 -17 -3c0.666992 -0.666992 1.66699 -1.33398 3 -2.00098c-3.33301 -0.666992 -9 -1 -17 -1c-38.667 0 -72.167 13.167 -100.5 39.5s-42.5 58.5 -42.5 96.5c0 54 12 91.833 36 113.5s63.333 32.5 118 32.5c12 0 29.833 -0.5 53.5 -1.5
s41.5 -1.5 53.5 -1.5c18 0 45.167 3.33301 81.5 10s63.833 10 82.5 10c138.667 0 208 -43.333 208 -130z" />
    <glyph glyph-name="J" unicode="J" horiz-adv-x="1183" 
d="M1122 834c0 -614 -120.999 -921.001 -362.999 -921.001c-152 0 -301.333 38.667 -448 116c-166.667 88 -250 193 -250 315c0 104 51.667 156 155 156c60.667 0 106.667 -27 138 -81c55.333 -95.333 85.666 -145.666 90.999 -150.999c54 -54 137 -81 249 -81
c47.333 46 77 215 89 507c2.66699 73.333 4 262 4 566c0 58.667 14 112 42 160c34 58.667 81 88 141 88c91.333 0 137 -61 137 -183c0 -54.667 2.5 -136.5 7.5 -245.5s7.5 -190.833 7.5 -245.5z" />
    <glyph glyph-name="K" unicode="K" horiz-adv-x="1311" 
d="M1250 82c0 -39.333 -13.8311 -71.998 -41.498 -97.998s-61.5 -39 -101.5 -39c-65.333 0 -149 53.667 -251 161c-60 63.333 -139.333 161.333 -238 294c-76 101.333 -118 148.666 -126 141.999c-1.33301 0.666992 -2.33301 1 -3 1c-10 0 -28.333 -15.333 -55 -46
c-23.333 -27.333 -37.666 -38.666 -42.999 -33.999c0 -26.667 2.16699 -66.5 6.5 -119.5s6.5 -92.833 6.5 -119.5c0 -196 -55.333 -294 -166 -294c-49.333 0 -90.833 16.167 -124.5 48.5s-50.5 73.166 -50.5 122.499l-2 1294c0 40 16 73 48 99
c29.333 24.667 64.666 37 105.999 37s76.666 -12 105.999 -36c31.333 -26 47 -58.667 47 -98s2.33301 -129.333 7 -270c3.33301 -117.333 4 -206.666 2 -267.999c6 6 123 130.333 351 373c176.667 188.667 288.667 283 336 283c42 0 78 -12.333 108 -37
c32.667 -26 49 -59.333 49 -100c0 -46 -78.667 -150 -236 -312c-113.333 -116.667 -221 -219.334 -323 -308.001c49.333 -42.667 135.666 -131.334 258.999 -266.001l309 -336c13.333 -18 20 -42.667 20 -74z" />
    <glyph glyph-name="L" unicode="L" horiz-adv-x="1297" 
d="M1236 43c0 -98 -169.666 -147 -508.999 -147c-44 0 -110 1.83301 -198 5.5s-154 5.5 -198 5.5c-180 0 -270 71.667 -270 215c0 142.667 8.5 356.5 25.5 641.5s25.5 498.833 25.5 641.5c0 40.667 15.667 74 47 100c29.333 24.667 64.666 37 105.999 37
c40.667 0 76 -12.333 106 -37c32 -26.667 48 -60 48 -100c0 -313.333 -17 -722.333 -51 -1227c129.333 2 368.333 3 717 3c40.667 0 76 -13 106 -39s45 -59 45 -99z" />
    <glyph glyph-name="M" unicode="M" horiz-adv-x="1783" 
d="M1722 1397c0 -40 -4.33496 -99.666 -13.002 -178.999s-13 -139 -13 -179c0 -42 -1.16699 -105.333 -3.5 -190s-3.5 -148 -3.5 -190c0 -39.333 1.5 -98.333 4.5 -177s4.5 -137.667 4.5 -177c0 -26.667 2.33301 -67 7 -121s7 -94.333 7 -121
c0 -45.333 -17.667 -81 -53 -107c-32 -23.333 -71.333 -35 -118 -35c-106 0 -159 98.333 -159 295c0 52.667 1.33301 132 4 238s4 185.333 4 238c0 39.333 -2.33301 145.666 -7 318.999c-188 -331.333 -294.667 -515.333 -320 -552c-74.667 -108 -151 -161 -229 -159
c-40.667 -4.66699 -91 51 -151 167l-283 544l-7 -319c-1.33301 -67.333 -0.333008 -146.666 3 -237.999c3.33301 -116.667 5 -196 5 -238c0 -196.667 -52.667 -295 -158 -295c-47.333 0 -86.666 11.667 -117.999 35c-36 26 -54 61.667 -54 107c0 26.667 2.33301 67 7 121
s7 94.333 7 121c0 39.333 1.5 98.333 4.5 177s4.5 137.667 4.5 177c0 42 -1 105.333 -3 190s-3 148 -3 190c0 40 -4.5 99.667 -13.5 179s-13.5 139 -13.5 179c0 43.333 20.667 80.333 62 111c38 28.667 79.333 43 124 43c54 0 114 -42.667 180 -128
c147.333 -190.667 229 -300 245 -328l172 -317c11.333 -58 24.333 -87 39 -87c5.33301 1.33301 14.333 5.66602 27 12.999l10 25l182 342c26.667 50 111.334 167.333 254.001 352c66 85.333 126 128 180 128c47.333 0 89.333 -13.667 126 -41c40 -29.333 60 -67 60 -113z
" />
    <glyph glyph-name="N" unicode="N" horiz-adv-x="1473" 
d="M1412 551c0 -186 -11.6689 -339.002 -35.002 -459.002c-17.333 -86 -71 -129 -161 -129c-166 0 -373 227.667 -621 683l-195 365c0.666992 28.667 1 -229.666 1 -774.999c0 -196.667 -52.667 -295 -158 -295c-45.333 0 -84.666 12 -117.999 36c-36 26.667 -54 62 -54 106
l1 576c0 85.333 -1.83301 208.333 -5.5 369s-5.5 283.667 -5.5 369c0 44.667 20.333 82 61 112c37.333 28 79 42 125 42c88 0 242.333 -174.333 463 -523c67.333 -106 197.333 -328.667 390 -668l1 152c0.666992 106 -1.66602 256.667 -6.99902 452
c-5.33301 207.333 -8 357.666 -8 450.999c0 92 53.667 138 161 138c105.333 0 158 -140 158 -420v-60v-9c-0.666992 -6.66699 -1 -13 -1 -19v-15c0 -53.333 1.33301 -133.166 4 -239.499s4 -186.166 4 -239.499z" />
    <glyph glyph-name="O" unicode="O" horiz-adv-x="1763" 
d="M1702 721c0 -162 -42.334 -313 -127.001 -453c-130.667 -214.667 -329 -324 -595 -328c-218 -3.33301 -412.333 50.667 -583 162c-182.667 118.667 -290.334 274.334 -323.001 467.001c-8.66699 52.667 -13 104 -13 154c0 167.333 48 323.666 144 468.999
c140.667 212.667 344.334 321 611.001 325c510.667 7.33301 801.334 -202.667 872.001 -630c9.33301 -58 14 -113.333 14 -166zM1387 754c0 42 -3.66602 85.001 -10.999 129.001c-24 144 -81 243.333 -171 298c-74.667 46 -189.667 67.667 -345 65
c-163.333 -2.66699 -291.333 -76.667 -384 -222c-66 -103.333 -99 -215 -99 -335c0 -36.667 3.33301 -75 10 -115c19.333 -120 86.666 -213 201.999 -279c100 -58 215.333 -86 346 -84c160.667 2 283 75.667 367 221c56.667 97.333 85 204.666 85 321.999z" />
    <glyph glyph-name="P" unicode="P" horiz-adv-x="1206" 
d="M1145 1098c0 -170.667 -74.668 -306.334 -224.001 -407.001c-130.667 -88.667 -288 -133 -472 -133c-12 0 -42.667 2.33301 -92 7c-4.66699 -93.333 -7 -246.666 -7 -459.999c0 -38 -14.167 -69 -42.5 -93s-62.166 -36 -101.499 -36c-38.667 0 -72 11.667 -100 35
c-30 24.667 -45 56 -45 94v279c0 104.667 7.33301 258 22 460c14 206.667 21.333 360 22 460c1.33301 173.333 55 256.333 161 249c50 12 138 18 264 18c144.667 0 279.667 -42.333 405 -127c140 -94.667 210 -210 210 -346zM854.999 1098
c0 63.333 -42.665 116.667 -127.998 160c-72.667 36.667 -147 55 -223 55c-52.667 0 -88.334 -1 -107.001 -3c0 -61.333 -0.333008 -108.333 -1 -141c-2 -64.667 -9 -180 -21 -346c37.333 -5.33301 62 -8 74 -8c107.333 0 198.666 22.333 273.999 67c88 52 132 124 132 216z
" />
    <glyph glyph-name="Q" unicode="Q" horiz-adv-x="1763" 
d="M1702 721c0 -161.333 -42.333 -312.332 -127 -452.999c-94 -154.667 -222.667 -254.667 -386 -300c1.33301 -7.33301 5.33301 -17 12 -29c34.667 -62.667 75.667 -94 123 -94c23.333 0 60.666 6.66699 111.999 20c8 2 17.667 3 29 3c36 0 66.833 -14.333 92.5 -43
s38.5 -61.334 38.5 -98.001c0 -47.333 -23 -77 -69 -89c-62.667 -16.667 -117 -25 -163 -25c-146 0 -264 79.333 -354 238c-17.333 31.333 -30 61 -38 89c-214 -2 -405.667 52 -575 162c-182.667 118.667 -290.334 274.334 -323.001 467.001
c-8.66699 52.667 -13 104 -13 154c0 167.333 48 323.666 144 468.999c140.667 212.667 344.334 321 611.001 325c510.667 7.33301 801.334 -202.667 872.001 -630c9.33301 -58 14 -113.333 14 -166zM1387 754.001c0 42 -3.66895 85 -11.002 129
c-24 144 -81 243.333 -171 298c-74.667 46 -189.667 67.667 -345 65c-163.333 -2.66699 -291.333 -76.667 -384 -222c-66 -103.333 -99 -215 -99 -335c0 -36.667 3.33301 -75 10 -115c19.333 -120 86.666 -213 201.999 -279c100 -57.333 215.333 -85.333 346 -84
c26.667 0.666992 44.334 1.66699 53.001 3c20 68 30 117.667 30 149c0 38 -10 74.667 -30 110c-53.333 95.333 -116 143 -188 143c-25.333 0 -53.666 -4.66699 -84.999 -14c-11.333 -3.33301 -21.666 -5 -30.999 -5c-36.667 0 -68 15.667 -94 47c-24 29.333 -36 61 -36 95
c0 46.667 21.667 76.334 65 89.001c48 14 95 21 141 21c172 0 311.667 -96 419 -288c39.333 -70.667 61.333 -140.667 66 -210c20 23.333 39 50.333 57 81c56.667 97.333 85 204.666 85 321.999z" />
    <glyph glyph-name="R" unicode="R" horiz-adv-x="1239" 
d="M1178 77c2 -39.333 -11.167 -70.6709 -39.5 -94.0039s-62.5 -34.666 -102.5 -33.999c-64.667 0.666992 -108 23.667 -130 69l-9 18c-40 81.333 -137 254.333 -291 519c-32.667 -3.33301 -69 -4.66602 -109 -3.99902c-52.667 0.666992 -102 3.66699 -148 9
c0 -76 5.66699 -239.333 17 -490c1.33301 -38 -11.5 -68.833 -38.5 -92.5s-60.167 -35.167 -99.5 -34.5c-40.667 0.666992 -75 12.334 -103 35.001c-30.667 24.667 -46.667 56.667 -48 96l-15 309c-4.66699 110 -5 263.333 -1 460c4.66699 200.667 4.66699 353.667 0 459
c-2.66699 71.333 3.66602 127 18.999 167c23.333 58.667 67 85.334 131 80.001c48 11.333 154 15.666 318 12.999c144.667 -2.66699 281.334 -46.667 410.001 -132c144 -96 219.667 -212.333 227 -349c8 -171.333 -60 -306 -204 -404
c-26.667 -18.667 -49.667 -32.667 -69 -42c46.667 -69.333 101.667 -161.666 165 -276.999c77.333 -142 117.333 -235.667 120 -281zM876 1085c-2.66699 56 -42.668 106.665 -120.001 151.998c-65.333 38 -133.333 60 -204 66c-16 1.33301 -48.667 2 -98 2
c-30 0 -63.667 -0.333008 -101 -1c2 -48 3.66699 -95 5 -141c2 -69.333 0.666992 -184.666 -4 -345.999c32 -5.33301 75.667 -8.33301 131 -9c106.667 -2 196.334 18.667 269.001 62c85.333 50.667 126 122.334 122 215.001z" />
    <glyph glyph-name="S" unicode="S" horiz-adv-x="1328" 
d="M1267 439c0 -163.333 -72.334 -286.999 -217.001 -370.999c-113.333 -66 -249.333 -99 -408 -99c-119.333 0 -239.666 33.333 -360.999 100c-146.667 80.667 -220 180.667 -220 300c0 35.333 11 65.666 33 90.999c12.667 14.667 38.334 36 77.001 64
c41.333 30 68.666 45 81.999 45c4 0 6 -2 6 -6c0 -34.667 2.66699 -59.334 8 -74.001s19 -34.667 41 -60c66 -76 104.333 -118.333 115 -127c57.333 -46 128 -69 212 -69c76.667 0 152 20.333 226 61c89.333 49.333 134 112.666 134 189.999
c0 104.667 -73.333 167.667 -220 189l-407 54c-146.667 40.667 -220 132 -220 274s64.667 265.667 194 371c118.667 96.667 244.667 145 378 145c84.667 0 160.667 -14.333 228 -43c104.667 -44.667 160.334 -117 167.001 -217c1.33301 -24 -6.66699 -51.333 -24 -82
c-8.66699 -17.333 -22.334 -42.666 -41.001 -75.999c-20.667 -35.333 -46.667 -55.333 -78 -60c-0.666992 0 -1 0.666992 -1 2c0 3.33301 5 20 15 50c9.33301 26.667 12.666 41 9.99902 43c-100.667 72.667 -187 109 -259 109c-64 0 -130 -17 -198 -51
c-83.333 -41.333 -125 -92 -125 -152c0 -54.667 46.667 -86.667 140 -96c188.667 -18.667 297.334 -30.667 326.001 -36c134 -25.333 232 -75.666 294 -150.999s93 -181.333 93 -318z" />
    <glyph glyph-name="T" unicode="T" horiz-adv-x="1527" 
d="M1466 1375c0 -39.333 -15.165 -71.833 -45.498 -97.5s-65.666 -38.5 -105.999 -38.5s-100.833 -3.16699 -181.5 -9.5s-141.334 -9.5 -182.001 -9.5h-10c8.66699 -227.333 13 -566 13 -1016c0 -53.333 -12.333 -100 -37 -140c-30 -48 -72.333 -72 -127 -72
c-54 0 -92.167 11.333 -114.5 34s-33.5 61 -33.5 115v35l1 35c8.66699 276.667 4.33398 611.667 -12.999 1005h-21h-24c-8 -0.666992 -11.667 -1 -11 -1h-71c-294.667 0 -442 54.667 -442 164c0 38.667 14.667 71 44 97s63.333 39 102 39c85.333 0 213.166 -4 383.499 -12
s298.166 -12 383.499 -12c28.667 0 71.667 2.16699 129 6.5s100.666 6.5 129.999 6.5c155.333 0 233 -43 233 -129z" />
    <glyph glyph-name="U" unicode="U" horiz-adv-x="1481" 
d="M1420 1012c0 -696 -206.668 -1049.67 -620.001 -1061c-258.667 -7.33301 -446 69.334 -562 230.001c-91.333 126.667 -143.333 316 -156 568l-19 364c-1.33301 28.667 -2 53 -2 73c0 222.667 48.333 335.334 145 338.001c127.333 3.33301 191 -153.334 191 -470.001
c0 -20 -1.66699 -69.333 -5 -148c-2 -61.333 -2 -110.666 0 -147.999c10.667 -189.333 30.334 -314 59.001 -374c52.667 -112 156.667 -166 312 -162c137.333 4 233.333 66.333 288 187c40.667 89.333 61 224.666 61 405.999c0 40 -1.33301 100 -4 180s-4 140 -4 180
c0 230.667 51 347.334 153 350.001c40 1.33301 74.167 -9.83398 102.5 -33.501s43.5 -55.167 45.5 -94.5c10 -164.667 15 -293 15 -385z" />
    <glyph glyph-name="V" unicode="V" horiz-adv-x="1509" 
d="M1448 1398c0 -16 -19.665 -58.667 -58.998 -128l-79 -139c-18.667 -41.333 -95.334 -233.333 -230.001 -576c-93.333 -236 -183.666 -421.667 -270.999 -557c-33.333 -52 -79 -78 -137 -78c-74.667 0 -128 32.667 -160 98c-43.333 88.667 -128 318 -254 688
c-131.333 386 -197 613.333 -197 682c0 40.667 16.333 73.667 49 99c29.333 23.333 65 35 107 35c73.333 0 122.666 -33.333 147.999 -100c39.333 -105.333 91.666 -272.333 156.999 -501c62.667 -218 115 -385 157 -501l254 625c138.667 326 258 489 358 489
c41.333 0 77.333 -12 108 -36c32.667 -26.667 49 -60 49 -100z" />
    <glyph glyph-name="W" unicode="W" horiz-adv-x="2186" 
d="M2125 1406c0 -32.667 -14.6631 -80.335 -43.9961 -143.002c-33.333 -71.333 -51.333 -111.666 -54 -120.999c-44.667 -168 -114 -360.667 -208 -578c-20.667 -48 -108 -236.667 -262 -566c-24 -52 -69.667 -78 -137 -78c-109.333 0 -206 132.667 -290 398
c-2.66699 8 -24.667 80.333 -66 217l-93 -248c-24 -63.333 -78 -159.666 -162 -288.999c-33.333 -52 -79 -78 -137 -78c-74.667 0 -128 32.667 -160 98c-43.333 88.667 -128 318 -254 688c-131.333 386 -197 613.333 -197 682c0 40.667 16.333 73.667 49 99
c29.333 23.333 65 35 107 35c73.333 0 122.666 -33.333 147.999 -100c39.333 -105.333 91.666 -272.333 156.999 -501c62.667 -218 115 -385 157 -501c48.667 110 85.334 189.667 110.001 239c49.333 97.333 99.333 180.333 150 249c-86.667 267.333 -130 427.333 -130 480
c0 40.667 16.333 73.667 49 99c29.333 23.333 65 35 107 35c73.333 0 122.666 -33.333 147.999 -100c39.333 -105.333 91.666 -272.333 156.999 -501c62.667 -218 115 -385 157 -501c163.333 374 292.666 685 387.999 933c40 105.333 98.667 158 176 158
c33.333 0 63 -9 89 -27c30 -20 45 -46 45 -78z" />
    <glyph glyph-name="X" unicode="X" horiz-adv-x="1683" 
d="M1622 1384c0 -31.333 -13.667 -61 -41 -89c-97.333 -100.667 -172 -184.667 -224 -252c-64.667 -83.333 -154 -191 -268 -323l231 -293c83.333 -106 165 -200.333 245 -283c27.333 -28 41 -58 41 -90c0 -40.667 -15.833 -73.834 -47.5 -99.501s-68.5 -38.5 -110.5 -38.5
c-76 0 -171 76 -285 228l-146 196l-140 173l-343 -342l-203 -198c-29.333 -28 -66.333 -42 -111 -42c-42 0 -78.333 12 -109 36c-33.333 26.667 -50 60.334 -50 101.001c0 34 13 63.333 39 88l200 193l388 390c-51.333 59.333 -129.333 144.666 -234 255.999
c-2.66699 2.66699 -44.667 51.334 -126 146.001l-122 114c-53.333 52 -80 94.667 -80 128c0 40.667 16 74.334 48 101.001c30.667 24.667 66.667 37 108 37c40 0 92 -25.333 156 -76c49.333 -38.667 88.333 -76 117 -112c51.333 -64.667 97.333 -119 138 -163l203 -221
l276 332c134.667 160 232 240 292 240c42 0 78 -12 108 -36c33.333 -26.667 50 -60.334 50 -101.001z" />
    <glyph glyph-name="Y" unicode="Y" horiz-adv-x="1618" 
d="M1557 1384c0 -31.333 -13.668 -60.9971 -41.001 -88.9971c-100 -104 -174.667 -188 -224 -252c-16.667 -22 -123 -145 -319 -369l-8 -106c-7.33301 -100.667 -11 -175 -11 -223c0 -11.333 1.66699 -72.333 5 -183c0 -6.66699 0.5 -18.334 1.5 -35.001
s1.5 -29.334 1.5 -38.001c0 -40.667 -15.333 -73.667 -46 -99c-28.667 -22.667 -64 -34 -106 -34s-77 11.333 -105 34c-31.333 25.333 -47 58.333 -47 99c0 12.667 -0.333008 25 -1 37l-2 36l-4 183c-1.33301 39.333 2.33398 113.666 11.001 222.999l2 29
c-5.33301 2 -8 5.33301 -8 10c0 5.33301 3.33301 12.333 10 21c1.33301 16 2.33301 31.667 3 47l-280 320c-12.667 14 -54.334 62.667 -125.001 146l-123 114c-53.333 52 -80 94.667 -80 128c0 40.667 16.333 74.334 49 101.001c30 24.667 65.667 37 107 37
c40 0 92.333 -25.333 157 -76c48.667 -38.667 87.334 -76 116.001 -112c51.333 -64.667 97.333 -119 138 -163l203 -221l276 332c134.667 160 232 240 292 240c42 0 78.333 -12 109 -36c32.667 -26.667 49 -60.334 49 -101.001zM958.999 658.003l-10 -11.001
c4 4.66699 7.33301 8.33398 10 11.001z" />
    <glyph glyph-name="Z" unicode="Z" horiz-adv-x="1656" 
d="M1595 1370c0 -38 -17.332 -72.335 -51.999 -103.002c-16 -13.333 -46.333 -40.666 -91 -81.999l-510 -489c-172.667 -170 -331 -336.667 -475 -500c77.333 2 205.666 6.66699 384.999 14c166.667 6.66699 295.334 10 386.001 10c102.667 0 173.334 -3.66699 212.001 -11
c92 -17.333 138 -55.666 138 -114.999c0 -45.333 -17 -80 -51 -104c-38 -27.333 -473.333 -41 -1306 -41c-45.333 0 -85 14.5 -119 43.5s-51 65.833 -51 110.5c0 78.667 146.667 273.667 440 585c245.333 260 436.666 447.333 573.999 562
c-144.667 -9.33301 -421.667 -14 -831 -14c-43.333 0 -80.333 11.667 -111 35c-33.333 25.333 -50 59 -50 101c0 91.333 74.333 137 223 137c107.333 0 267.666 -1.5 480.999 -4.5s373.333 -4.5 480 -4.5c218.667 0 328 -43.333 328 -130z" />
    <glyph glyph-name="bracketleft" unicode="[" horiz-adv-x="790" 
d="M729 -285c0 -39.333 -13.498 -71.168 -40.498 -95.501s-60.167 -36.5 -99.5 -36.5c-21.333 0 -53.333 0.833008 -96 2.5s-74.667 2.5 -96 2.5c-16.667 0 -41.5 -0.833008 -74.5 -2.5s-57.833 -2.5 -74.5 -2.5c-124 0 -186 50.333 -186 151l1 62v163l5 1152
c0 64 -1.16699 160.667 -3.5 290s-3.5 226 -3.5 290c0 38 17 69.667 51 95c30.667 22.667 65.667 34 105 34c25.333 0 63.166 -0.833008 113.499 -2.5s88.166 -2.5 113.499 -2.5c14 0 34.667 0.833008 62 2.5s48 2.5 62 2.5c42 0 76.667 -11.667 104 -35
s41 -55.666 41 -96.999c0 -91.333 -88.667 -137 -266 -137c-8.66699 0 -38.667 0.666992 -90 2v-1703l40 1c23.333 0.666992 55.333 0 96 -2c46 -2 78 -3 96 -3c38.667 0 71.667 -12.167 99 -36.5s41 -55.833 41 -94.5z" />
    <glyph glyph-name="backslash" unicode="\" horiz-adv-x="1132" 
d="M1071 -11c0 -38.667 -14.832 -70 -44.499 -94s-64.5 -36 -104.5 -36c-51.333 0 -93.333 22.333 -126 67c-82 110.667 -164.667 266 -248 466l-203 488c-19.333 46 -61.666 120.667 -126.999 224c-70 111.333 -114.667 184.666 -134 219.999c-15.333 28 -23 51.333 -23 70
c0 38.667 16 70.334 48 95.001c29.333 23.333 63.666 35 102.999 35c46 0 86 -20.333 120 -61c49.333 -60 184.666 -309.333 405.999 -748c222 -441.333 333 -683.333 333 -726z" />
    <glyph glyph-name="bracketright" unicode="]" horiz-adv-x="790" 
d="M729 1691c0 -66 -0.998047 -162.665 -2.99805 -289.998c-2.66699 -140 -4 -236.667 -4 -290l6 -1377c0 -100.667 -62 -151 -186 -151c-16.667 0 -41.5 0.833008 -74.5 2.5s-57.833 2.5 -74.5 2.5c-21.333 0 -53.333 -0.833008 -96 -2.5s-74.667 -2.5 -96 -2.5
c-39.333 0 -72.5 12.167 -99.5 36.5s-40.5 56.166 -40.5 95.499c0 38.667 13.667 70.167 41 94.5s60.333 36.5 99 36.5c21.333 0 53.666 1 96.999 3c40.667 2 72.334 2.66699 95.001 2l40 -1v1703l-90 -2c-177.333 -4 -266 41.667 -266 137
c0 41.333 13.667 73.666 41 96.999s62 35 104 35c13.333 0 33.833 -0.833008 61.5 -2.5s48.5 -2.5 62.5 -2.5c25.333 0 63.166 0.833008 113.499 2.5s88.166 2.5 113.499 2.5c39.333 0 74.333 -11.333 105 -34c34 -25.333 51 -57 51 -95z" />
    <glyph glyph-name="asciicircum" unicode="^" horiz-adv-x="905" 
d="M844 1255c0 -34.667 -16 -62.999 -48 -84.999c-28 -19.333 -60.333 -29 -97 -29c-37.333 0 -84.333 32 -141 96l-122 139c-2 -2 -36 -52 -102 -150c-46.667 -69.333 -90 -104 -130 -104c-35.333 0 -67.333 10 -96 30c-31.333 22 -47 50 -47 84
c0 29.333 38.333 93.666 115 192.999c68 88.667 119.333 148 154 178c29.333 26 63 39 101 39c56 0 138.833 -51.5 248.5 -154.5s164.5 -181.833 164.5 -236.5z" />
    <glyph glyph-name="underscore" unicode="_" horiz-adv-x="1704" 
d="M1643 -345h-1582v186h1582v-186z" />
    <glyph glyph-name="grave" unicode="`" horiz-adv-x="550" 
d="M489 1399c0 -34 -16.333 -61.666 -49 -82.999c-28.667 -18 -61 -27 -97 -27c-39.333 0 -82.333 20.667 -129 62c-30.667 38.667 -61.334 74.667 -92.001 108c-40.667 43.333 -61 72.666 -61 87.999c0 33.333 15.667 61.333 47 84c28.667 20 60.334 30 95.001 30
c57.333 0 119.333 -29.5 186 -88.5s100 -116.833 100 -173.5z" />
    <glyph glyph-name="a" unicode="a" horiz-adv-x="1266" 
d="M1205 100c0.666992 -37.333 -14.001 -68.333 -44.001 -93c-28 -22 -61.333 -33 -100 -33c-25.333 0 -48.333 15.333 -69 46c-18.667 27.333 -28.667 54.333 -30 81c-18.667 -38 -60.667 -71.333 -126 -100c-60 -26 -115.667 -39 -167 -39
c-168.667 0 -310.667 50 -426 150c-121.333 105.333 -182 241.333 -182 408c0 165.333 53 299.833 159 403.5s242 155.5 408 155.5c91.333 0 191 -27 299 -81c10.667 94 47.667 141 111 141c50 0 90 -21.333 120 -64c26.667 -37.333 40.334 -82.333 41.001 -135z
M927.999 368v334.998c-124.667 80 -224.667 120 -300 120c-86 0 -154.667 -29.667 -206 -89c-48.667 -56 -73 -127.333 -73 -214c0 -91.333 31 -164.666 93 -219.999c59.333 -54 135 -81 227 -81c42.667 0 92 15 148 45c60 32.667 97 67.334 111 104.001z" />
    <glyph glyph-name="b" unicode="b" horiz-adv-x="1266" 
d="M1205 516c0 -166.667 -60.334 -302.667 -181.001 -408c-115.333 -100 -257.666 -150 -426.999 -150c-52 0 -107 12.333 -165 37c-65.333 27.333 -108 61.333 -128 102c-1.33301 -26.667 -11.333 -53.667 -30 -81c-20.667 -30.667 -43.667 -46 -69 -46
c-38.667 0 -71.667 11 -99 33c-30 24 -45 55 -45 93l7 1280c0 52 13.333 97 40 135c30 42.667 70 64 120 64c76.667 0 115 -36 115 -108c0 -10 -0.833008 -25.167 -2.5 -45.5s-2.5 -35.5 -2.5 -45.5v-383c108.667 54.667 209 82 301 82c165.333 0 301 -51.833 407 -155.5
s159 -238.167 159 -403.5zM916.999 516c0 86.667 -24.334 158.002 -73.001 214.002c-51.333 59.333 -119.666 89 -204.999 89c-76 0 -176.333 -40 -301 -120v-335c14.667 -36.667 51.667 -71.334 111 -104.001c56 -30 105.333 -45 148 -45c92 0 167.667 27 227 81
c62 55.333 93 128.666 93 219.999z" />
    <glyph glyph-name="c" unicode="c" horiz-adv-x="1162" 
d="M1100 162c0 -53.333 -62.335 -105.667 -187.002 -157c-110 -45.333 -200.667 -68 -272 -68c-158 0 -289.667 38.667 -395 116c-117.333 85.333 -178.666 204.333 -183.999 357c-16 435.333 172 653 564 653c80 0 170.667 -19 272 -57c121.333 -45.333 182 -98 182 -158
c0 -36 -14.167 -66.333 -42.5 -91s-60.833 -37 -97.5 -37c-5.33301 0 -48 15.5 -128 46.5s-142 46.5 -186 46.5c-190 0 -285 -103.333 -285 -310c0 -29.333 2.33301 -60.333 7 -93c20 -148 117.667 -222 293 -222c36 0 93.833 17 173.5 51s126.834 51 141.501 51
c38 0 71 -11.667 99 -35c30 -25.333 45 -56.333 45 -93z" />
    <glyph glyph-name="d" unicode="d" horiz-adv-x="1266" 
d="M1205 96c0 -37.333 -14.5 -67.667 -43.5 -91s-62.5 -35 -100.5 -35c-25.333 0 -48.333 15.333 -69 46c-18.667 27.333 -28.667 54.333 -30 81c-18.667 -38 -60.667 -71.333 -126 -100c-60 -26 -115.667 -39 -167 -39c-168.667 0 -310.667 50 -426 150
c-121.333 105.333 -182 241.333 -182 408c0 165.333 53 299.833 159 403.5s242 155.5 408 155.5c91.333 0 191.333 -27.333 300 -82v383c0 10 -0.666992 25.167 -2 45.5s-2 35.5 -2 45.5c0 72 38 108 114 108c51.333 0 92 -22.333 122 -67c25.333 -38 38.333 -82 39 -132z
M928 363.999v334.998c-124.667 80 -224.667 120 -300 120c-86 0 -154.667 -29.667 -206 -89c-48.667 -56 -73 -127.333 -73 -214c0 -91.333 31 -164.666 93 -219.999c59.333 -54 135 -81 227 -81c42.667 0 92 15 148 45c60 32.667 97 67.334 111 104.001z" />
    <glyph glyph-name="e" unicode="e" horiz-adv-x="1248" 
d="M1186 200c0 -81.333 -65.332 -145.333 -195.999 -192c-101.333 -36 -206 -54 -314 -54c-169.333 0 -309 35 -419 105c-130.667 82.667 -196 204 -196 364c0 171.333 49.667 315 149 431c108.667 127.333 254 191 436 191c107.333 0 212.666 -30 315.999 -90
c116 -67.333 174 -147.333 174 -240c0 -14.667 -2 -30 -6 -46c-22 -97.333 -62.667 -165.333 -122 -204c-52.667 -34 -135.667 -53.333 -249 -58l-411 -16c-2.66699 -59.333 37.333 -108.333 120 -147c67.333 -31.333 136.666 -47 207.999 -47
c48.667 0 119.334 17.333 212.001 52s154 52 184 52c76 0 114 -33.667 114 -101zM862.001 639c-4 64.667 -18.332 108.333 -42.999 131c-30 27.333 -87.667 41.666 -173 42.999c-144 2.66699 -241 -66.666 -291 -207.999c30 0 75.167 -2.83301 135.5 -8.5
s105.833 -8.5 136.5 -8.5c99.333 0 177.666 17 234.999 51z" />
    <glyph glyph-name="f" unicode="f" horiz-adv-x="828" 
d="M830 1468c0 -71.333 -33.999 -111 -101.999 -119c-116.667 -14 -184 -25.667 -202 -35c-76.667 -40.667 -123.334 -136.334 -140.001 -287.001c98 8 168.333 12 211 12c137.333 0 206 -42.667 206 -128c0 -54.667 -27.667 -91 -83 -109
c-34.667 -11.333 -87.667 -17 -159 -17c-46 0 -108.333 -3 -187 -9c-3.33301 -86 -4.33301 -176 -3 -270l5 -269c0 -15.333 1.33301 -40 4 -74c2 -31.333 3 -55.666 3 -72.999c0 -106.667 -48.333 -160 -145 -160c-38.667 0 -73 11.333 -103 34
c-33.333 24.667 -50 55.667 -50 93c0 22.667 -0.666992 56.667 -2 102s-2 79.333 -2 102c0 58 -3.33301 145.333 -10 262s-10 204 -10 262c0 242.667 33.667 428 101 556c91.333 172 247 258 467 258c134 0 201 -43.667 201 -131z" />
    <glyph glyph-name="g" unicode="g" 
d="M842 768c-47.333 22.667 -94.334 33.999 -141.001 33.999c-106 0 -190 -30 -252 -90s-90.667 -142.667 -86 -248c8.66699 -184.667 86 -277 232 -277c72 0 132.667 38 182 114c42.667 66 65.334 137.333 68.001 214c0.666992 14.667 4 39.334 10 74.001
c6 32.667 9 58.667 9 78c0 38 -7.33301 71.667 -22 101zM1165 924.999v-446.002c0 -70.667 -0.333008 -131.667 -1 -183l-2 -154c0 -2.66699 0.666992 -22.334 2 -59.001c2 -53.333 3 -93.666 3 -120.999c0 -195.333 -51.333 -333.666 -154 -414.999
c-92 -73.333 -238.667 -110 -440 -110c-88.667 0 -171 13.667 -247 41c-103.333 37.333 -157 91.666 -161 162.999c-1.33301 32.667 11.334 59.334 38.001 80.001c24.667 18.667 54 28 88 28c35.333 0 87 -11.333 155 -34s120 -34 156 -34c201.333 0 296 119.333 284 358
l-1 22c-68.667 -73.333 -164 -110 -286 -110c-153.333 0 -279.5 47.333 -378.5 142s-151.833 218.334 -158.5 371.001c-8.66699 187.333 51.666 331.333 180.999 432c116 89.333 270.333 134 463 134c73.333 0 133.333 -14.333 180 -43c5.33301 16.667 12 28 20 34
c29.333 24.667 65 37 107 37s77.333 -11.333 106 -34c30.667 -25.333 46 -58.333 46 -99z" />
    <glyph glyph-name="h" unicode="h" horiz-adv-x="1166" 
d="M1105 87c0 -38 -17.002 -69.668 -51.002 -95.001c-30.667 -22.667 -65.667 -34 -105 -34c-111.333 0 -167 120 -167 360c0 36.667 2.5 91.834 7.5 165.501s7.5 128.834 7.5 165.501c0 50 -0.666992 78.667 -2 86c-7.33301 36.667 -26.333 55 -57 55
c-219.333 0 -338.666 -42 -357.999 -126c-2.66699 -12.667 -4 -35 -4 -67c0 -29.333 1 -73.5 3 -132.5s3 -103.167 3 -132.5c0 -237.333 -52.333 -356 -157 -356c-39.333 0 -74.666 11.667 -105.999 35c-34 25.333 -51 57 -51 95c0 36 0.5 89.833 1.5 161.5
s1.5 125.5 1.5 161.5c0 70 -1.33301 244 -4 522l-6 521c0 39.333 16 71.333 48 96c30 22.667 65.333 34 106 34c115.333 0 173 -115.333 173 -346c0 -38 -3.16699 -94.833 -9.5 -170.5s-9.5 -132.5 -9.5 -170.5c106.667 95.333 229.667 143 369 143
c216 0 330.333 -101.333 343 -304c2 -44 6.66699 -130.667 14 -260c6.66699 -112.667 10 -248.334 10 -407.001z" />
    <glyph glyph-name="i" unicode="i" horiz-adv-x="469" 
d="M408 1350c0 -45.333 -18 -81.668 -54 -109.001c-33.333 -26 -73 -39 -119 -39c-46.667 0 -86.334 13 -119.001 39c-36.667 28 -55 64.333 -55 109s18.333 81 55 109c32.667 26 72.334 39 119.001 39c46 0 85.667 -13 119 -39c36 -27.333 54 -63.666 54 -108.999z
M394 914.998v-446c0 -61.333 -0.333008 -122.333 -1 -183l-2 -182c-0.666992 -42 -16 -75.333 -46 -100c-27.333 -22.667 -62.666 -34 -105.999 -34c-105.333 0 -158 92 -158 276c0 24.667 1.66699 62 5 112c3.33301 47.333 5 84.333 5 111l-1 286
c0 145.333 14.667 230.5 44 255.5s65.666 37.5 108.999 37.5c41.333 0 76.333 -11.333 105 -34c30.667 -25.333 46 -58.333 46 -99z" />
    <glyph glyph-name="j" unicode="j" horiz-adv-x="507" 
d="M424 1348c-4 -44.667 -25.334 -81.001 -64.001 -109.001c-35.333 -26 -76 -39 -122 -39c-45.333 0 -83.666 13 -114.999 39c-34 28.667 -49.333 65 -46 109c3.33301 44.667 24.333 81.334 63 110.001c35.333 26.667 76 40 122 40c46.667 0 85.667 -13 117 -39
c33.333 -28.667 48.333 -65.667 45 -111zM403.999 955.999l-8.00195 -554.001c1.33301 -82.667 1 -231 -1 -445c-4.66699 -180 -50.334 -318 -137.001 -414c-81.333 -89.333 -177.333 -134 -288 -134c-20.667 -6 -41.667 -9 -63 -9c-43.333 0 -81.666 12.333 -114.999 37
c-37.333 26.667 -56 61 -56 103c0 64 46.333 102 139 114c67.333 16 106.333 24 117 24c38.667 0 66.334 46.667 83.001 140c6 76 9 176.667 9 302c0 90 -0.666992 170.333 -2 241c-5.33301 250.667 -3.66602 431.334 5.00098 542.001c4 46 21.5 84.5 52.5 115.5
s69.167 46.5 114.5 46.5c34 0 66.333 -9.33301 97 -28c35.333 -22 53 -49 53 -81z" />
    <glyph glyph-name="k" unicode="k" horiz-adv-x="1216" 
d="M1155 113c0.666992 -39.333 -15.667 -72.0029 -49 -98.0029c-30.667 -24 -66.334 -36.333 -107.001 -37c-44.667 -0.666992 -145 59 -301 179c-138 106.667 -232 187.667 -282 243l-19 -15h1c-4 -1.33301 -11.333 -5.33301 -22 -12c-0.666992 -14 -0.666992 -38 0 -72
c0.666992 -33.333 1 -61.666 1 -84.999c0 -162 -52 -244 -156 -246c-103.333 -2 -156.333 53 -159 165c-2.66699 130 -2.66699 352.667 0 668c2.66699 266 2.33398 489 -0.999023 669c-0.666992 40.667 14.333 74 45 100c28 23.333 63 35.333 105 36
c44.667 0.666992 81.334 -11 110.001 -35c41.333 -35.333 62 -190.666 62 -465.999c0 -59.333 -1 -134 -3 -224c-2 -85.333 -2.66699 -135 -2 -149l1 -24l286 250c140.667 123.333 231 185.333 271 186c40.667 0.666992 76.667 -10.666 108 -33.999
c33.333 -26 50.333 -59 51 -99c0.666992 -42.667 -64.333 -118.667 -195 -228l-253 -209l267 -204c159.333 -122.667 239.666 -209 240.999 -259z" />
    <glyph glyph-name="l" unicode="l" horiz-adv-x="426" 
d="M365 147c0 -126.667 -50.668 -190.001 -152.001 -190.001c-42.667 0 -78 12 -106 36c-30.667 24.667 -46 58 -46 100v1383c0 40.667 16 73 48 97c29.333 21.333 65 32 107 32c42.667 0 77.334 -10.667 104.001 -32c30 -23.333 45 -55.666 45 -96.999v-1329z" />
    <glyph glyph-name="m" unicode="m" horiz-adv-x="1656" 
d="M1595 467c0 -41.333 -1.33301 -103.173 -4 -185.506s-4 -143.833 -4 -184.5s-16 -73 -48 -97c-29.333 -22.667 -64.333 -34 -105 -34c-108 0 -162 109.667 -162 329c0 48.667 5.16699 121.334 15.5 218.001s15.5 169.334 15.5 218.001c0 55.333 -15.667 83 -47 83
c-110 0 -196.667 -19.667 -260 -59c6 -42 9 -140.333 9 -295c0 -41.333 -1.33301 -103.166 -4 -185.499s-4 -143.833 -4 -184.5s-16 -73 -48 -97c-28.667 -22.667 -63.667 -34 -105 -34c-107.333 0 -161 109.667 -161 329c0 48.667 5 121.334 15 218.001
s15 169.334 15 218.001c0 55.333 -15.667 83 -47 83c-168 0 -263 -65.333 -285 -196c-6.66699 -39.333 -10 -95.666 -10 -168.999c0 -54.667 1.33301 -121.667 4 -201l4 -159c1.33301 -40 -14.334 -72.667 -47.001 -98c-29.333 -22.667 -64.666 -34 -105.999 -34
c-75.333 0 -124.333 36 -147 108c-12 36.667 -18 101 -18 193c0 79.333 3.83301 198 11.5 356s11.5 276.667 11.5 356c0 40 16.333 72 49 96c29.333 22 64.333 33 105 33c93.333 0 145 -56 155 -168c65.333 60 105.666 95 120.999 105c43.333 28 94 42 152 42
c124 0 213 -41.667 267 -125c102.667 88 210.334 132 323.001 132c161.333 0 264.333 -72.333 309 -217c20 -64 30 -195.333 30 -394z" />
    <glyph glyph-name="n" unicode="n" horiz-adv-x="1146" 
d="M1085 89c0 -40 -16 -72.0029 -48 -96.0029c-28.667 -22.667 -63.667 -34 -105 -34c-115.333 0 -173 126.333 -173 379c0 42.667 3.33301 107 10 193s10 150.333 10 193c0 55.333 -15.667 83 -47 83c-212 0 -329 -65.333 -351 -196
c-6.66699 -39.333 -10 -95.666 -10 -168.999c0 -54.667 1.33301 -121.667 4 -201l4 -159c1.33301 -40 -14.334 -72.667 -47.001 -98c-29.333 -22.667 -64.666 -34 -105.999 -34c-75.333 0 -124.333 36 -147 108c-12 36.667 -18 101 -18 193c0 79.333 3.83301 198 11.5 356
s11.5 276.667 11.5 356c0 40 16.333 72 49 96c29.333 22 64.333 33 105 33c93.333 0 145 -56 155 -168c107.333 98 220.333 147 339 147c161.333 0 264.333 -72.333 309 -217c20 -64 30 -195.333 30 -394c0 -41.333 2.33301 -103.166 7 -185.499s7 -144.166 7 -185.499z" />
    <glyph glyph-name="o" unicode="o" horiz-adv-x="1188" 
d="M1127 470c0 -126 -34.333 -237 -103 -333c-91.333 -126.667 -222.666 -193 -393.999 -199c-134.667 -4.66699 -255 33.333 -361 114c-116.667 88.667 -184.334 210.334 -203.001 365.001c-3.33301 24 -5 50.333 -5 79c0 117.333 33.667 224 101 320
c98 139.333 247 213 447 221c147.333 6 269 -42.667 365 -146c86.667 -92.667 136.667 -210.334 150 -353.001c2 -24 3 -46.667 3 -68zM836 457c-10 215.333 -82.335 320.668 -217.002 316.001c-90 -2.66699 -157.667 -42.667 -203 -120c-32 -55.333 -48 -116.333 -48 -183
c0 -14 0.666992 -28 2 -42c6.66699 -66.667 30.334 -121.334 71.001 -164.001c44 -44.667 99 -65.667 165 -63c71.333 3.33301 128.333 28.833 171 76.5s62.334 107.5 59.001 179.5z" />
    <glyph glyph-name="p" unicode="p" horiz-adv-x="1266" 
d="M1205 496c0 -165.333 -53 -299.833 -159 -403.5s-241.667 -155.5 -407 -155.5c-92 0 -192.333 27.333 -301 82v-383c0 -10 0.833008 -25.167 2.5 -45.5s2.5 -35.5 2.5 -45.5c0 -72 -38.333 -108 -115 -108c-51.333 0 -92 22.333 -122 67c-25.333 38 -38 82 -38 132
l-7 1280c0 37.333 15 68 45 92c28 22.667 61 34 99 34c25.333 0 48.333 -15.333 69 -46c18.667 -27.333 28.667 -54.333 30 -81c19.333 39.333 62.333 73 129 101c58.667 25.333 113.334 38 164.001 38c169.333 0 311.666 -50 426.999 -150
c120.667 -105.333 181 -241.333 181 -408zM917 496c0 92 -30.666 165.668 -91.999 221.001c-59.333 53.333 -135.333 80 -228 80c-42.667 0 -92 -15 -148 -45c-59.333 -32.667 -96.333 -67.334 -111 -104.001v-335c124.667 -80 225 -120 301 -120
c85.333 0 153.666 29.667 204.999 89c48.667 56 73 127.333 73 214z" />
    <glyph glyph-name="q" unicode="q" horiz-adv-x="1266" 
d="M1205 916l-5.99902 -1280c-0.666992 -52 -14.334 -97 -41.001 -135c-30 -42.667 -70 -64 -120 -64c-76 0 -114 36 -114 108c0 10 0.666992 25.167 2 45.5s2 35.5 2 45.5v383c-108.667 -54.667 -208.667 -82 -300 -82c-166 0 -302 51.833 -408 155.5
s-159 238.167 -159 403.5c0 166.667 60.667 302.667 182 408c115.333 100 257.333 150 426 150c52.667 0 107.667 -12 165 -36c65.333 -28 108 -62.333 128 -103c1.33301 26.667 11.333 53.667 30 81c20.667 30.667 43.667 46 69 46c38.667 0 72 -11 100 -33
c29.333 -24 44 -55 44 -93zM928.001 313v334.999c-14 36.667 -51 71.334 -111 104.001c-56 30 -105.333 45 -148 45c-92.667 0 -168.667 -26.667 -228 -80c-61.333 -55.333 -92 -129 -92 -221c0 -86.667 24.333 -158 73 -214c51.333 -59.333 120 -89 206 -89
c75.333 0 175.333 40 300 120z" />
    <glyph glyph-name="r" unicode="r" horiz-adv-x="938" 
d="M930 891c0 -74.667 -39.999 -112 -119.999 -112c-31.333 0 -67.333 7 -108 21c-142.667 -20.667 -240.667 -69.334 -294 -146.001c-42 -59.333 -63 -149.333 -63 -270c0 -35.333 1.83301 -88.5 5.5 -159.5s5.5 -124.167 5.5 -159.5c0 -41.333 -15.333 -74 -46 -98
c-28 -22.667 -63.333 -34 -106 -34c-40.667 0 -74.334 11.833 -101.001 35.5s-40 55.834 -40 96.501v664c0 11.333 -0.333008 27.833 -1 49.5s-1 38.167 -1 49.5c0 138.667 49.667 208 149 208c54 0 92.333 -57.333 115 -172c20 62.667 83 111.667 189 147
c86 28.667 177 43 273 43c41.333 0 76 -17 104 -51c26 -32 39 -69.333 39 -112z" />
    <glyph glyph-name="s" unicode="s" horiz-adv-x="1066" 
d="M1011 302c0 -116.667 -58.6641 -208.666 -175.997 -275.999c-100 -57.333 -216 -86 -348 -86c-77.333 0 -168 26.333 -272 79c-116 58.667 -174 120 -174 184c0 27.333 11.667 54 35 80s48.666 39 75.999 39c14 0 25 -5.33301 33 -16c16 -20.667 56 -45 120 -73
c68.667 -30 126.667 -45 174 -45c42 0 86.667 8.66699 134 26c60 22 90 50.667 90 86c0 33.333 -52 66 -156 98c-149.333 45.333 -245.333 79.666 -288 102.999c-104 56 -156 130.667 -156 224c0 136 56.333 231 169 285c80 38 197 57 351 57
c244.667 0 367 -51.667 367 -155c0 -52.667 -34.667 -95 -104 -127c-10.667 -4.66699 -24.334 -5.33398 -41.001 -2.00098c-7.33301 2 -19.333 4.66699 -36 8h-37c-9.33301 2 -15.666 10 -18.999 24c-50.667 10.667 -108.334 20.334 -173.001 29.001
c-10 1.33301 -23 2 -39 2c-97.333 0 -146 -32.333 -146 -97c0 -5.33301 1 -13 3 -23c3.33301 -24.667 58.666 -54.334 165.999 -89.001c140 -45.333 237 -83.666 291 -114.999c104 -60 156 -133.333 156 -220z" />
    <glyph glyph-name="t" unicode="t" horiz-adv-x="758" 
d="M752 1040c-1.33301 -41.333 -17.333 -74.168 -48 -98.501s-66.667 -35.5 -108 -33.5c-32 1.33301 -68.333 2.66602 -109 3.99902c-24.667 0.666992 -59.667 -1.66602 -105 -6.99902c3.33301 -227.333 2.33301 -436.666 -3 -627.999c0 -18 -0.666992 -53.333 -2 -106
c-5.33301 -153.333 -61.333 -229.666 -168 -228.999c-38 0 -72 11 -102 33c-33.333 24.667 -48.666 55.334 -45.999 92.001c5.33301 61.333 10 133.333 14 216c8 136.667 9.66699 429.334 5 878.001l-2 213c-0.666992 38 15.333 69.667 48 95
c30.667 23.333 67.667 34.666 111 33.999c102.667 -0.666992 154 -71.334 154 -212.001c0 -14.667 -0.333008 -27.334 -1 -38.001l-5 -82c51.333 5.33301 88.666 8 111.999 8c83.333 -0.666992 140.333 -6 171 -16c58 -19.333 86 -60.333 84 -123z" />
    <glyph glyph-name="u" unicode="u" horiz-adv-x="1161" 
d="M1100 942c0 -40.667 -3.49805 -101.332 -10.498 -181.999s-10.5 -141.334 -10.5 -182.001c0 -74 1.33301 -162.333 4 -265c4 -128 6 -216 6 -264c0 -39.333 -16.333 -71 -49 -95c-30 -22.667 -65 -34 -105 -34c-29.333 0 -56 21.667 -80 65l-54 100
c-14.667 -37.333 -56.334 -70.333 -125.001 -99c-60.667 -25.333 -116 -38 -166 -38c-204 0 -336.667 77.667 -398 233c-34 85.333 -51 243.666 -51 474.999c0 115.333 6.66699 199.666 20 252.999c26 104.667 80 157 162 157c41.333 0 76.666 -11 105.999 -33
c32 -23.333 48 -55.333 48 -96c0 -31.333 -5.33301 -78.166 -16 -140.499s-16 -109.166 -16 -140.499c0 -188.667 14 -329 42 -421c40 -15.333 74.333 -23 103 -23c57.333 0 102 5.66699 134 17c49.333 17.333 94 52.333 134 105l-3 253c0 13.333 -0.666992 37.333 -2 72
c-0.666992 30 -1 54 -1 72c0 219.333 58 329 174 329c37.333 0 71.333 -10 102 -30c34.667 -22.667 52 -52 52 -88z" />
    <glyph glyph-name="v" unicode="v" horiz-adv-x="1209" 
d="M1148 921c0 -24.667 -59.332 -156.668 -177.999 -396.001l-230 -451c-4 -35.333 -19.667 -63.166 -47 -83.499s-59.333 -30.5 -96 -30.5c-74 0 -126.333 34.667 -157 104l-365 806c-9.33301 20.667 -14 39.667 -14 57c0 38 17.333 69.667 52 95
c30.667 22.667 65.667 34 105 34c63.333 0 108.666 -26.333 135.999 -79c42 -81.333 123.333 -270 244 -566c50.667 98 104.334 212.667 161.001 344l9 23l73 173c38.667 66 88.667 99 150 99c39.333 0 74.666 -11.333 105.999 -34c34 -25.333 51 -57 51 -95z" />
    <glyph glyph-name="w" unicode="w" horiz-adv-x="1705" 
d="M1644 566c0 -16 -3.66797 -87.6689 -11.001 -215.002c-9.33301 -165.333 -81.666 -282.666 -216.999 -351.999c-81.333 -42 -173 -63 -275 -63c-142.667 0 -250 37.333 -322 112c-103.333 -66.667 -205.666 -100 -306.999 -100c-204 0 -336.667 77.667 -398 233
c-34 85.333 -51 243.666 -51 474.999c0 12.667 -0.333008 31.667 -1 57s-1 44.333 -1 57c0 197.333 54 296 162 296c41.333 0 76.666 -11 105.999 -33c32 -23.333 48 -55.333 48 -96c0 -31.333 -1.66699 -78.166 -5 -140.499s-5 -109.166 -5 -140.499
c0 -188.667 14 -329 42 -421c40 -15.333 74.333 -23 103 -23c45.333 0 77.666 5.33301 96.999 16c22 12 54.333 43.333 97 94c-8.66699 61.333 -13 168.666 -13 321.999c0 14.667 -0.666992 37 -2 67s-2 52.333 -2 67c0 130.667 26.333 214.667 79 252
c28.667 20 59.334 30 92.001 30c37.333 0 71.333 -10 102 -30c34.667 -22.667 52 -52 52 -88l1 -364c0 -22 -1.66699 -50.667 -5 -86c-3.33301 -42.667 -5.33301 -71 -6 -85c6.66699 -70 18 -131.333 34 -184c40 -15.333 74.333 -23 103 -23c48 0 82 5.66699 102 17
c23.333 13.333 57 48.333 101 105l-4 253c0 21.333 -1.33301 56.333 -4 105c-2.66699 44.667 -4 79.334 -4 104.001c0 189.333 52.333 284 157 284c38 0 72 -10 102 -30c34.667 -22.667 52 -52 52 -88z" />
    <glyph glyph-name="x" unicode="x" horiz-adv-x="1294" 
d="M1233 114c0 -34 -14.332 -62 -42.999 -84c-26 -20 -56.667 -30 -92 -30c-51.333 0 -129 50 -233 150l-208 207c-226.667 -238 -367.334 -357 -422.001 -357c-41.333 0 -79.333 12.667 -114 38c-38.667 27.333 -58 61 -58 101c0 34 54.333 104.667 163 212l219 212
l-217 211c-111.333 108.667 -167 176 -167 202c0 33.333 13.667 61.333 41 84c25.333 21.333 55 32 89 32c66 0 150 -51 252 -153l190 -196l181 173c102.667 98.667 169.667 148 201 148c43.333 0 82 -13 116 -39c38 -28 57 -63 57 -105c0 -44 -49.667 -112.667 -149 -206
c-18.667 -18 -82.667 -76 -192 -174l221 -199c110 -102 165 -177.667 165 -227z" />
    <glyph glyph-name="y" unicode="y" horiz-adv-x="1172" 
d="M1111 921l-31.001 -588.001c0.666992 9.33301 1 -43.667 1 -159c0 -14 1.33301 -34.833 4 -62.5s4 -48.5 4 -62.5c0 -30.667 -10 -57 -30 -79c-2 -32 -7.66699 -84.667 -17 -158c-11.333 -97.333 -55 -187 -131 -269c-84 -91.333 -181.333 -138.333 -292 -141
c-110 -2.66699 -211 14 -303 50c-118.667 46.667 -197.334 120.334 -236.001 221.001c-8 21.333 -11 42 -9 62c4.66699 40 25 73 61 99c32.667 24 70 36.333 112 37c46.667 1.33301 85.334 -20.667 116.001 -66c10.667 -30.667 32.334 -73.334 65.001 -128.001
c22.667 -24.667 52.334 -37 89.001 -37c16 0 39.167 5.33301 69.5 16s52.833 16 67.5 16c39.333 0.666992 68.666 48 87.999 142c2 10.667 6.33301 66 13 166c-78.667 -21.333 -159.334 -32 -242.001 -32c-101.333 0 -186.666 18.667 -255.999 56
c-84 45.333 -134 113.666 -150 204.999c-28.667 165.333 -43 314.333 -43 447c0 85.333 11 184.333 33 297c14.667 75.333 64.334 113 149.001 113c40.667 0 75.667 -11 105 -33c32.667 -24 49 -56 49 -96c0 -31.333 -5.33301 -78.166 -16 -140.499
s-16 -109.166 -16 -140.499c0 -188.667 14 -329 42 -421c38 -15.333 72.333 -23 103 -23c76.667 0 161 9.66699 253 29l12 346c4 109.333 11 227.333 21 354c6 79.333 56 119 150 119c79.333 0 129 -30.333 149 -91c11.333 -15.333 16.666 -31.333 15.999 -48z" />
    <glyph glyph-name="z" unicode="z" horiz-adv-x="1235" 
d="M1174 68c0 -40.667 -15.668 -73.333 -47.001 -98c-28 -22 -63.333 -33 -106 -33l-299 -2c-37.333 0 -110.333 -1.66699 -219 -5l-35 -1l-255 -6c-38 0 -71.667 9.66699 -101 29c-34 22.667 -51 52 -51 88c0 41.333 23 80.333 69 117c166.667 132 358 344.333 574 637
l-131 -3l-78 -3c-29.333 -1.33301 -61.666 -2 -96.999 -2c-201.333 0 -302 45.667 -302 137c0 38.667 15.333 71 46 97c28.667 24 63 36 103 36l776 -4c92 -0.666992 138 -34.667 138 -102c0 -62 -193.667 -316.333 -581 -763l144 12c40 3.33301 79 5 117 5
c223.333 0 335 -45.333 335 -136z" />
    <glyph glyph-name="braceleft" unicode="{" horiz-adv-x="970" 
d="M909 1780c0 -66 -45.335 -102.335 -136.002 -109.002c-15.333 -0.666992 -45.666 -2.66699 -90.999 -6c-77.333 -6 -116 -61.333 -116 -166c0 -144 2.33301 -259.5 7 -346.5s7 -152.5 7 -196.5c0 -42.667 -13.333 -87.334 -40 -134.001
c-25.333 -44 -56.333 -79.333 -93 -106c77.333 -92 116 -167.333 116 -226c0 -21.333 -3 -53.166 -9 -95.499s-9 -74.166 -9 -95.499c0 -152 9.33301 -256 28 -312c24.667 -76 58.334 -114 101.001 -114c70.667 0 119.334 -5 146.001 -15c46 -17.333 69 -54.333 69 -111
c0 -87.333 -71.667 -131 -215 -131c-136.667 0 -245.334 65.667 -326.001 197c-29.333 48 -53.333 127.333 -72 238c-16.667 93.333 -25 176 -25 248c0 18 3 44.333 9 79s9 61 9 79c0 21.333 -34.667 62.333 -104 123s-104 103.334 -104 128.001
c0 39.333 27.667 83.666 83 132.999c46.667 42 94.667 74 144 96c0.666992 36 -1 100 -5 192l-2 55c-1.33301 36.667 -2 132.334 -2 287.001c0 220 81.667 361 245 423c54.667 20.667 109 31 163 31c48 0 93.333 -10 136 -30c57.333 -26.667 86 -65 86 -115z" />
    <glyph glyph-name="bar" unicode="|" horiz-adv-x="408" 
d="M347 -212c0 -34 -10 -65.334 -30 -94.001c-25.333 -37.333 -62 -56 -110 -56c-96 0 -144.667 82.667 -146 248c0 19.333 0.333008 46.333 1 81c0.666992 38 1 65.333 1 82v1542c0 38.667 15 69.334 45 92.001c27.333 21.333 61 32 101 32c38.667 0 71 -10.667 97 -32
c27.333 -23.333 41 -54 41 -92v-1803z" />
    <glyph glyph-name="braceright" unicode="}" horiz-adv-x="970" 
d="M909 708c0 -31.333 -15.334 -60.3301 -46.001 -86.9971l-103 -69c-40 -26.667 -60 -58.334 -60 -95.001c0 -18 3.16699 -44.333 9.5 -79s9.5 -111 9.5 -229c0 -118.667 -32.333 -230.667 -97 -336c-80.667 -131.333 -189 -197 -325 -197c-144 0 -216 43.667 -216 131
c0 56.667 23 93.667 69 111c26.667 10 75.667 15 147 15c42 0 75.667 38 101 114c18 56 27 110 27 162c0 121.333 -2.83301 203.166 -8.5 245.499s-8.5 74.166 -8.5 95.499c0 58.667 38.333 134 115 226c-36 26.667 -67 62 -93 106c-26.667 46.667 -40 91.334 -40 134.001
c0 44 2.33301 109.5 7 196.5s7 202.5 7 346.5c0 88 -26.667 140.333 -80 157l-180 28c-55.333 16 -83 48 -83 96c0 50 28.667 88.333 86 115c42.667 20 88 30 136 30c54 0 108.333 -10.333 163 -31c163.333 -62 245 -203 245 -423c0 -155.333 -0.666992 -251 -2 -287l-2 -54
c-3.33301 -90.667 -4.66602 -154.334 -3.99902 -191.001c48.667 -21.333 96.667 -53.666 144 -96.999c54.667 -50.667 82 -95.334 82 -134.001z" />
    <glyph glyph-name="asciitilde" unicode="~" horiz-adv-x="1303" 
d="M1241 997c0 -101.333 -39.001 -185.333 -117.001 -252c-74 -63.333 -162.333 -95 -265 -95c-68 0 -124.667 23.667 -170 71l-100 130c-36.667 47.333 -78 71 -124 71c-79.333 0 -133.333 -22 -162 -66l-42 -122c-14.667 -44 -46.667 -66 -96 -66
c-30 0 -54.833 9.33301 -74.5 28s-29.5 43 -29.5 73c0 108.667 41 195.667 123 261c75.333 60 169 90 281 90c80 0 146 -23.333 198 -70c18 -16 51.667 -59.667 101 -131c32.667 -46.667 64.334 -70 95.001 -70c59.333 0 101.333 21.333 126 64
c10 26.667 25.667 65.667 47 117c18.667 42.667 54 64 106 64c28 0 52.167 -9.16699 72.5 -27.5s30.5 -41.5 30.5 -69.5z" />
    <glyph glyph-name="nonbreakingspace" unicode="&#xa0;" horiz-adv-x="1747" 
 />
    <glyph glyph-name="exclamdown" unicode="&#xa1;" horiz-adv-x="461" 
d="M388 811c0 38.667 -14.333 69.333 -43 92c-26.667 20.667 -59.667 31 -99 31c-101.333 0 -152 -75.333 -152 -226c0 -14.667 0.666992 -36.5 2 -65.5l3 -64.5l5 -778c0 -38 14.333 -68.667 43 -92c26.667 -21.333 59.667 -32 99 -32c38 0 71.167 11.333 99.5 34
s42.5 52.667 42.5 90v1011zM400 1209c0 44 -17.667 80 -53 108c-32.667 25.333 -71.334 38 -116.001 38c-45.333 0 -84.333 -12.667 -117 -38c-35.333 -28 -53 -64 -53 -108c0 -43.333 17.667 -79 53 -107c32.667 -25.333 71.667 -38 117 -38
c44.667 0 83.334 12.667 116.001 38c35.333 28 53 63.667 53 107z" />
    <glyph glyph-name="cent" unicode="&#xa2;" horiz-adv-x="1162" 
d="M389 294l180 515.001c-152 -19.333 -228 -121.333 -228 -306c0 -92.667 16 -162.334 48 -209.001zM527 -156.999c-13.333 -39.333 -37.002 -68.999 -71.002 -88.999c-36 -20.667 -73.333 -25.334 -112 -14.001c-57.333 16.667 -86 59 -86 127c0 50 10.333 100 31 150l3 8
c-19.333 11.333 -37.666 23.666 -54.999 36.999c-111.333 86 -169.666 202 -174.999 348c-16 435.333 172 653 564 653c10.667 0 21 -0.333008 31 -1l53 152c19.333 56.667 62.333 85 129 85c16.667 0 33.667 -2.66699 51 -8c62.667 -18.667 95 -55 97 -109
c0.666992 -15.333 -2 -31.333 -8 -48l-49 -141c100 -42 150 -90.333 150 -145c0 -36 -14.167 -66.333 -42.5 -91s-60.833 -37 -97.5 -37c-10.667 0 -42 11.667 -94 35l-198 -567c40 2 96.667 19 170 51c77.333 34 123.333 51 138 51c38 0 71 -11.667 99 -35
c30 -25.333 45 -56.333 45 -93c0 -53.333 -62.333 -105.666 -187 -156.999c-110 -45.333 -200.667 -68 -272 -68c-27.333 0 -54 1.33301 -80 4z" />
    <glyph glyph-name="sterling" unicode="&#xa3;" horiz-adv-x="1666" 
d="M1157 590c0 -36.667 -15.001 -65.667 -45.001 -87c-26.667 -19.333 -59 -29 -97 -29l-375 -1c14 -34.667 33 -67 57 -97c62 -78 143.333 -117 244 -117c70.667 0 140 18 208 54c24 12.667 75 46.667 153 102c52 36.667 92 55 120 55c47.333 0 89 -15.333 125 -46
c38 -32.667 57 -72.334 57 -119.001c0 -82.667 -81.667 -160.667 -245 -234c-142.667 -64 -265.334 -96 -368.001 -96c-197.333 0 -363.666 72 -498.999 216c-79.333 84.667 -134.333 178.334 -165 281.001h-121c-38.667 0 -71.667 9.33301 -99 28
c-30.667 21.333 -46 50.666 -46 87.999c0 83.333 80 125 240 125c2 39.333 6.66699 78.333 14 117h-69c-37.333 0 -69.333 10 -96 30c-30 22 -45 51 -45 87c0 80.667 78 121 234 121h58c28 59.333 63 118.333 105 177c149.333 209.333 320.666 314 513.999 314
c110.667 0 229.334 -37.667 356.001 -113c140 -83.333 210 -172.333 210 -267c0 -20 -14.333 -36.667 -43 -50c-23.333 -10.667 -46.666 -16 -69.999 -16c-38.667 0 -104.667 23.667 -198 71s-162.333 71 -207 71c-98 0 -191.667 -62.667 -281 -188l303 -1
c39.333 0 72 -9.33301 98 -28c29.333 -21.333 44 -50.666 44 -87.999c0 -36.667 -14.667 -65.667 -44 -87c-26.667 -19.333 -59.334 -29 -98.001 -29c-15.333 0 -69.333 -0.333008 -162 -1l-270 -1c-15.333 -42 -26.666 -82.333 -33.999 -121l156 1
c118 0.666992 194.333 -1.33301 229 -6c101.333 -14 152 -52.667 152 -116z" />
    <glyph glyph-name="currency" unicode="&#xa4;" horiz-adv-x="2176" 
d="M2115 1460l-504 -513l463 -543l-740 140l-286 -636l-238 653l-749 -93l504 513l-463 543l740 -140l286 636l238 -653zM1296 1301l-80 62l-15 91l-73 -68l-107 -13l81 -62l15 -92l73 69zM1720 769l-70 -8l-61 32l10 -60l-39 -52l72 8l60 -32l-9 60zM1510 782
c0 317.333 -19.3369 476.001 -58.0039 476.001c-15.333 0 -35.666 -29.333 -60.999 -88l-46 -112c-10.667 34.667 -22.667 71.667 -36 111c-20 56.667 -40.333 85 -61 85c-19.333 0 -31.666 -31.667 -36.999 -95l-17 -178c-12.667 -63.333 -35.667 -95 -69 -95
c-14.667 0 -22 2.33301 -22 7c0 18.667 6.33301 28 19 28c37.333 0 56 9.33301 56 28c0 19.333 -17 29 -51 29c-61.333 0 -92 -28.333 -92 -85c0 -43.333 30 -65 90 -65c58 0 98 28.667 120 86c8 20.667 17 70.334 27 149.001c26.667 -80.667 47.334 -121 62.001 -121
c23.333 0 55.333 47.667 96 143c8 -138 12 -239 12 -303c0 -18.667 -2 -32.334 -6 -41.001c-23.333 -37.333 -63.333 -56 -120 -56h-72l-20 1v12c0 16 20.167 32.667 60.5 50s60.5 30.666 60.5 39.999c0 19.333 -11.667 29 -35 29c-29.333 0 -61.666 -12.667 -96.999 -38
c-38 -26.667 -57 -53.667 -57 -81c0 -36.667 15.333 -59 46 -67c10 -2.66699 44 -4 102 -4c68 0 114 8 138 24l39 26c19.333 20.667 29 55.667 29 105zM678.996 1296l-46 8l-28 31l-9 -39l-37 -25l46 -8l29 -31l9 39zM1092 1129c0 70 -61.332 105.002 -183.999 105.002
c-64.667 0 -114.334 -27.667 -149.001 -83c-28.667 -44.667 -43 -97.334 -43 -158.001c0 -105.333 57 -158 171 -158l16 2c-5.33301 -62.667 -8 -91 -8 -85c0 -46.667 12.667 -70 38 -70c26 0 39 31 39 93v131c0 37.333 -11.333 56 -34 56c-13.333 0 -24.333 -9 -33 -27
c-11.333 -24 -19 -38 -23 -42c-38 0.666992 -63.833 8.16699 -77.5 22.5s-20.5 40.166 -20.5 77.499c0 122 48.333 183 145 183c63.333 0 95 -15.667 95 -47c0 -46 -26.667 -69 -80 -69c-15.333 0 -23 2 -23 6l4 10c43.333 4 65 14.667 65 32c0 19.333 -13.667 29 -41 29
c-64 0 -96 -23.667 -96 -71c0 -42.667 36 -64 108 -64c87.333 0 131 42.333 131 127zM638.997 947.003h-36l-26 20l-1 -30l-22 -23h34l26 -20l2 30zM816.997 808.003l-63 -3l-50 33l3 -54l-38 -43l63 3l50 -32l-4 53z" />
    <glyph glyph-name="yen" unicode="&#xa5;" horiz-adv-x="1618" 
d="M1364 332c0 -36.667 -15.002 -65.6689 -45.002 -87.002c-26.667 -19.333 -59 -29 -97 -29l-264 -1l1 -53c0 -7.33301 0.5 -19.166 1.5 -35.499s1.5 -28.833 1.5 -37.5c0 -40.667 -15.333 -73.667 -46 -99c-28.667 -22.667 -64 -34 -106 -34s-77 11.333 -105 34
c-31.333 25.333 -47 58.333 -47 99c0 12.667 -0.333008 25 -1 37l-2 36l-1 53l-241 -1c-38.667 0 -71.667 9.33301 -99 28c-30.667 21.333 -46 50.666 -46 87.999c0 83.333 80 125 240 125c11.333 0 28.333 -0.333008 51 -1s39.667 -1 51 -1h44l10 144
c-5.33301 2 -8 5.33301 -8 10c0 4 2 8.66699 6 14l-265 -1c-38 0 -70.333 10 -97 30c-29.333 22 -44 51 -44 87c0 80.667 78 121 234 121h21l-122 137l-125 146l-123 114c-53.333 52 -80 94.667 -80 128c0 40.667 16.333 74.334 49 101.001c30 24.667 65.667 37 107 37
c40 0 92.333 -25.333 157 -76c48.667 -38.667 87.334 -76 116.001 -112c51.333 -64.667 97.333 -119 138 -163l203 -221l276 332c134.667 160 232 240 292 240c42 0 78.333 -12 109 -36c32.667 -26.667 49 -60.334 49 -101.001c0 -31.333 -13.667 -61 -41 -89
c-100 -104 -174.667 -188 -224 -252c-12 -15.333 -65 -77.666 -159 -186.999h104c38.667 0 71.334 -9.33301 98.001 -28c29.333 -21.333 44 -50.666 44 -87.999c0 -36.667 -15 -65.667 -45 -87c-26.667 -19.333 -59 -29 -97 -29c-54 0 -143 -0.333008 -267 -1l-5 -55
l-7 -115c26 0.666992 34.333 1 25 1c142.667 -2.66699 219 -4.66699 229 -6c101.333 -14 152 -52.667 152 -116z" />
    <glyph glyph-name="brokenbar" unicode="&#xa6;" horiz-adv-x="404" 
d="M343 935c0 -100.667 -47.667 -151 -143 -151c-92.667 0 -139 51.333 -139 154v650c0 37.333 15.333 68 46 92c28 21.333 61.333 32 100 32s71 -11.333 97 -34s39 -52.667 39 -90v-653zM343 -210c0 -100.667 -47.667 -151 -143 -151c-92.667 0 -139 51.333 -139 154v650
c0 37.333 15.333 68 46 92c28 21.333 61.333 32 100 32s71 -11.333 97 -34s39 -52.667 39 -90v-653z" />
    <glyph glyph-name="section" unicode="&#xa7;" horiz-adv-x="1098" 
d="M656 732c-7.33301 2 -12.332 3.33203 -14.999 3.99902c-25.333 1.33301 -63 5.33301 -113 12c-6.66699 1.33301 -7.66699 2 -3 2c-73.333 0 -110 -28.333 -110 -85c0 -6 1 -13.667 3 -23c2.66699 -18.667 35 -43.667 97 -75c39.333 -2 80.666 2.66699 123.999 14
c60 16 90 41.667 90 77c0 22.667 -24.333 47.334 -73 74.001zM1031 155.999c0 -116.667 -58.668 -202.666 -176.001 -257.999c-77.333 -36.667 -165.333 -55 -264 -55c-30 0 -58 1.33301 -84 4c-78 8 -168.667 43.333 -272 106c-116 70.667 -174 138 -174 202
c0 27.333 11.833 53 35.5 77s48.834 34.333 75.501 31c14 -1.33301 25 -8 33 -20c16 -22.667 56 -51 120 -85c69.333 -36.667 127.333 -57.334 174 -62.001c42.667 -4.66699 87.334 -0.666992 134.001 12c60 16 90 41.667 90 77c0 32.667 -52 70.667 -156 114l-48 20h-7
c-38.667 4 -105.334 35 -200.001 93l-15 9c-21.333 13.333 -42 27.333 -62 42c-74.667 55.333 -112 124.666 -112 207.999c0 120.667 44.667 204.667 134 252c-86 62.667 -129 136 -129 220c0 136 56.667 225.333 170 268c52.667 20 121.334 30 206.001 30
c43.333 0 91.666 -2.66699 144.999 -8c244.667 -24.667 367 -88.667 367 -192c0 -53.333 -35 -92.333 -105 -117c-10 -3.33301 -23.333 -2.33301 -40 3c-22 7.33301 -34.333 11 -37 11l-37 4c-8.66699 2.66699 -15 11.334 -19 26.001
c-51.333 16.667 -108.666 32 -171.999 46c-24 5.33301 -49 8 -75 8c-73.333 0 -110 -28 -110 -84c0 -6 0.666992 -14 2 -24c3.33301 -24 58.666 -59 165.999 -105c140.667 -60 238 -108.333 292 -145c104 -70.667 156 -149 156 -235c0 -108 -50 -189.667 -150 -245
c96 -68.667 144 -144.667 144 -228z" />
    <glyph glyph-name="dieresis" unicode="&#xa8;" horiz-adv-x="1000" 
d="M939 1373c0 -44 -17.667 -80 -53 -108c-32.667 -25.333 -71.334 -38 -116.001 -38c-45.333 0 -84.333 12.667 -117 38c-35.333 28 -53 64 -53 108c0 43.333 17.667 79 53 107c32.667 25.333 71.667 38 117 38c44.667 0 83.334 -12.667 116.001 -38
c35.333 -28 53 -63.667 53 -107zM400 1373c0 -44 -17.667 -80 -53 -108c-32.667 -25.333 -71.334 -38 -116.001 -38c-45.333 0 -84.333 12.667 -117 38c-35.333 28 -53 64 -53 108c0 43.333 17.667 79 53 107c32.667 25.333 71.667 38 117 38
c44.667 0 83.334 -12.667 116.001 -38c35.333 -28 53 -63.667 53 -107z" />
    <glyph glyph-name="copyright" unicode="&#xa9;" horiz-adv-x="1312" 
d="M925 523c0 -37.333 -36.667 -72.333 -110 -105c-66 -29.333 -121.333 -44 -166 -44c-86.667 0 -160.167 30.5 -220.5 91.5s-90.5 134.833 -90.5 221.5c0 88 30.333 174.333 91 259c66.667 94 143.667 141 231 141c49.333 0 102.666 -17 159.999 -51
c63.333 -37.333 95 -77.333 95 -120c0 -19.333 -17 -29 -51 -29c-18 0 -47.833 10.5 -89.5 31.5s-72.5 31.5 -92.5 31.5c-49.333 0 -96.666 -36 -141.999 -108c-41.333 -65.333 -62 -124 -62 -176c0 -44 13.833 -82.333 41.5 -115s63.5 -49 107.5 -49c30 0 61 8.33301 93 25
c13.333 6.66699 36 21.667 68 45c23.333 16.667 41.333 25 54 25c21.333 0 40.5 -7.16699 57.5 -21.5s25.5 -31.833 25.5 -52.5zM1158 392c-94 -154.667 -237 -233.331 -429 -235.998c-154.667 -2.66699 -293.667 34.333 -417 111c-136 85.333 -216.333 200.333 -241 345
c-6.66699 39.333 -10 76.666 -10 111.999c0 121.333 35.333 235.333 106 342c101.333 154 248 232.333 440 235c371.333 5.33301 582.333 -146.667 633 -456c7.33301 -44.667 11 -85.334 11 -122.001c0 -118 -31 -228.333 -93 -331zM1047 847.003
c-18.667 114 -63.333 192.668 -134 236.001c-59.333 36.667 -150.333 54 -273 52c-130.667 -2 -232.667 -60.333 -306 -175c-51.333 -80.667 -77 -167.667 -77 -261c0 -28.667 2.66699 -58.334 8 -89.001c16 -96 68.667 -170 158 -222c78 -45.333 169 -67.333 273 -66
c128.667 2 226.667 60.333 294 175c44 76 66 159.667 66 251c0 30.667 -3 63.667 -9 99z" />
    <glyph glyph-name="ordfeminine" unicode="&#xaa;" horiz-adv-x="1114" 
d="M1053 776c0.666992 -30.667 -12.999 -54.999 -40.999 -72.999c-24 -16.667 -52 -25 -84 -25c-20.667 0 -39.834 11 -57.501 33s-27.167 44 -28.5 66c-16 -30.667 -53 -57 -111 -79c-51.333 -19.333 -99 -29 -143 -29c-140 0 -260 36.667 -360 110
c-111.333 81.333 -167 189.666 -167 324.999c0 134 49.333 241.333 148 322c92 75.333 206.667 113 344 113c79.333 0 165.333 -21 258 -63c10 73.333 42.333 110 97 110c42.667 0 77 -15.667 103 -47c24.667 -28.667 37 -64.667 37 -108c0 -72 0.666992 -181 2 -327z
M812.001 985.001l0.000976562 261c-107.333 62.667 -193.666 94 -258.999 94c-71.333 0 -129.5 -21.5 -174.5 -64.5s-67.5 -100.167 -67.5 -171.5c0 -74 28.333 -132.667 85 -176c52 -39.333 116 -59 192 -59c37.333 0 79.666 11.333 126.999 34
c51.333 24 83.666 51.333 96.999 82z" />
    <glyph glyph-name="guillemotleft" unicode="&#xab;" horiz-adv-x="1487" 
d="M792 924c0 -32.667 -42.999 -86.668 -128.999 -162.001c-10.667 -9.33301 -71.334 -58 -182.001 -146l181 -147c87.333 -72.667 131 -124 131 -154c0 -35.333 -15.333 -65 -46 -89c-28 -21.333 -60.333 -32 -97 -32c-49.333 0 -100.666 23.667 -153.999 71
c-36.667 32 -91.334 70 -164.001 114c-82 50 -138.333 86.667 -169 110c-8 6.66699 -30.667 23 -68 49c-22.667 20 -34 43 -34 69c0 48 102.333 142.333 307 283l129 97c51.333 38 102 57 152 57c36 0 68 -10.667 96 -32c31.333 -23.333 47 -52.666 47 -87.999z
M1425 931.999c0 -32.667 -43 -86.668 -129 -162.001c-10.667 -9.33301 -71 -58 -181 -146l180 -147c87.333 -72.667 131 -124 131 -154c0 -35.333 -15.333 -65 -46 -89c-28 -21.333 -60.333 -32 -97 -32c-49.333 0 -100.666 23.667 -153.999 71c-36 32 -90.667 70 -164 114
c-81.333 50 -137.333 86.667 -168 110c-8.66699 6.66699 -31.334 23 -68.001 49c-22.667 20 -34 43 -34 69c0 48 102.333 142.333 307 283l128 97c52 38 102.667 57 152 57c36.667 0 69 -10.667 97 -32c30.667 -23.333 46 -52.666 46 -87.999z" />
    <glyph glyph-name="logicalnot" unicode="&#xac;" horiz-adv-x="1265" 
d="M1201 577c0 2 0.333984 3.00098 1.00098 3.00098c1.33301 -6.66699 2 -29 2 -67c0 -83.333 -51.667 -125 -155 -125c-99.333 0 -149 27.667 -149 83c0 5.33301 1 13.666 3 24.999s3 19.666 3 24.999c-64.667 -2.66699 -169.667 -3 -315 -1l-315 4
c-53.333 0.666992 -99 8.33398 -137 23.001c-52 20 -78 50 -78 90c0 50 22 92.667 66 128c42 34 182.333 51 421 51c74.667 0 158.667 -1.33301 252 -4l176 -5c71.333 -2 127.166 -25 167.499 -69s59.5 -97.667 57.5 -161z" />
    <glyph glyph-name="minus" unicode="&#xad;" horiz-adv-x="1010" 
d="M949 571c0 -72.667 -55.667 -112.667 -167 -120c-101.333 -6.66699 -281.333 -10 -540 -10c-44.667 0 -84 8.66699 -118 26c-42 22 -63 53.333 -63 94c0 40 21 71.333 63 94c34.667 18 74 27 118 27c57.333 0 144 1.5 260 4.5s203 4.5 261 4.5c46 0 86 -8.33301 120 -25
c44 -22 66 -53.667 66 -95z" />
    <glyph glyph-name="minus" unicode="&#x2212;" horiz-adv-x="1010" 
d="M949 571c0 -72.667 -55.667 -112.667 -167 -120c-101.333 -6.66699 -281.333 -10 -540 -10c-44.667 0 -84 8.66699 -118 26c-42 22 -63 53.333 -63 94c0 40 21 71.333 63 94c34.667 18 74 27 118 27c57.333 0 144 1.5 260 4.5s203 4.5 261 4.5c46 0 86 -8.33301 120 -25
c44 -22 66 -53.667 66 -95z" />
    <glyph glyph-name="registered" unicode="&#xae;" horiz-adv-x="1312" 
d="M1158 392c-94 -154.667 -237 -233.331 -429 -235.998c-154.667 -2.66699 -293.667 34.333 -417 111c-136 85.333 -216.333 200.333 -241 345c-6.66699 39.333 -10 76.666 -10 111.999c0 121.333 35.333 235.333 106 342c101.333 154 248 232.333 440 235
c371.333 5.33301 582.333 -146.667 633 -456c7.33301 -44.667 11 -85.334 11 -122.001c0 -118 -31 -228.333 -93 -331zM1047 847.003c-18.667 114 -63.333 192.668 -134 236.001c-59.333 36.667 -150.333 54 -273 52c-130.667 -2 -232.667 -60.333 -306 -175
c-51.333 -80.667 -77 -167.667 -77 -261c0 -28.667 2.66699 -58.334 8 -89.001c16 -96 68.667 -170 158 -222c78 -45.333 169 -67.333 273 -66c128.667 2 226.667 60.333 294 175c44 76 66 159.667 66 251c0 30.667 -3 63.667 -9 99zM948.001 428.004
c2 -38.667 -19.334 -58.001 -64.001 -58.001c-27.333 0 -46.666 10.333 -57.999 31l-5 8l-131 234c-12.667 -2 -29 -2.66699 -49 -2c-27.333 0.666992 -49.333 2 -66 4c0 -37.333 2.66699 -111 8 -221c0.666992 -16.667 -5.33301 -30.334 -18 -41.001
s-27.334 -16 -44.001 -16c-44 0.666992 -66.667 20.334 -68 59.001l-7 139c-2.66699 52 -3 121 -1 207c2 98.667 2 167.667 0 207c-1.33301 32 1.66699 57 9 75c10 26.667 29.333 38.667 58 36c22 5.33301 69.667 7.33301 143 6
c64.667 -1.33301 126.334 -21.333 185.001 -60c65.333 -43.333 99.333 -95.666 102 -156.999c4 -76.667 -26.333 -137 -91 -181c-12 -8 -22.667 -14.333 -32 -19c22.667 -32 47.667 -73.667 75 -125c34.667 -64.667 52.667 -106.667 54 -126zM812 881.003
c-0.666992 27.333 -19.001 50.668 -55.001 70.001c-29.333 16 -59.666 25.333 -90.999 28c-8 0.666992 -22.667 1 -44 1h-46c0.666992 -16 1.66699 -37.333 3 -64c0.666992 -25.333 0 -77 -2 -155c19.333 -2.66699 38.666 -4.33398 57.999 -5.00098
c46.667 -0.666992 86.334 8 119.001 26c40.667 22.667 60 55.667 58 99z" />
    <glyph glyph-name="degree" unicode="&#xb0;" horiz-adv-x="813" 
d="M752 1313c0 -106 -34.667 -189.667 -104 -251c-66 -58.667 -152.667 -88 -260 -88c-218 0 -327 120 -327 360c0 108 30.833 192.667 92.5 254s146.5 92 254.5 92c229.333 0 344 -122.333 344 -367zM499 1313c0 9.33301 0.333008 23.502 1 42.502s1 33.167 1 42.5
c0 50.667 -31 76 -93 76c-40.667 0 -67.667 -14.333 -81 -43c-9.33301 -18.667 -14 -51 -14 -97c0 -8.66699 -0.333008 -21.334 -1 -38.001s-1 -29.334 -1 -38.001c0 -52 25.667 -78 77 -78c74 0 111 44.333 111 133z" />
    <glyph glyph-name="plusminus" unicode="&#xb1;" horiz-adv-x="1338" 
d="M1277 703c0 -56 -24.668 -91 -74.001 -105c-15.333 -4.66699 -63.333 -7.33398 -144 -8.00098l-264 -3v-133c0 -88 0.333008 -130.667 1 -128l264 1c46 0 86 -8.33301 120 -25c44 -22 66 -53.667 66 -95c0 -72.667 -55.667 -112.667 -167 -120
c-101.333 -6.66699 -358.333 -10 -771 -10c-44.667 0 -84 8.66699 -118 26c-42 22 -63 53.333 -63 94c0 40 21 71.333 63 94c34.667 18 74 27 118 27c48.667 0 118.667 1 210 3c-6 26.667 -9.66699 58 -11 94c-1.33301 22 -1.33301 53 0 93c0.666992 35.333 1 60 1 74
c-55.333 -2.66699 -132.666 -4 -231.999 -4c-53.333 0 -99.333 8.33301 -138 25c-51.333 22 -77 53.667 -77 95c0 80.667 100 121 300 121c12.667 0 40.334 -0.333008 83.001 -1l64 -1l-2 189c-2 133.333 47.333 200 148 200c92.667 0 139 -44.333 139 -133
c0 -8.66699 -0.5 -22.167 -1.5 -40.5s-1.5 -32.166 -1.5 -41.499l2 -170c27.333 -1.33301 70.666 -1.33301 129.999 0l130 3c150 3.33301 225 -37 225 -121z" />
    <glyph glyph-name="twosuperior" unicode="&#xb2;" horiz-adv-x="864" 
d="M363 773c15.333 2 98.002 3.00098 248.002 3.00098c128 0 192 -30.333 192 -91c0 -26.667 -10 -48.334 -30 -65.001s-43.667 -25 -71 -25h-57l-90 -1l-299 1c-72 0 -114.333 2 -127 6c-15.333 5.33301 -30.5 20.333 -45.5 45s-22.5 46 -22.5 64
c0 42.667 46.667 100.334 140 173.001l8 6l242 180c86.667 66.667 130 133.334 130 200.001c0 17.333 -13.833 37.333 -41.5 60s-50.834 34 -69.501 34c-29.333 0 -78.333 -18.833 -147 -56.5s-104.667 -56.5 -108 -56.5c-70 0 -105 26.333 -105 79
c0 50.667 47.667 99.667 143 147c83.333 41.333 155.666 62 216.999 62c78 0 149.667 -24.333 215 -73c71.333 -52.667 107 -116.334 107 -191.001c0 -160.667 -109 -306.334 -327 -437.001z" />
    <glyph glyph-name="threesuperior" unicode="&#xb3;" horiz-adv-x="816" 
d="M402 558c-174.667 0 -285.999 58.668 -333.999 176.001c-4.66699 10.667 -7 20.667 -7 30c0 25.333 11.333 46.333 34 63c20.667 15.333 44.334 23 71.001 23c31.333 0 56.666 -11.333 75.999 -34c28.667 -34.667 44 -52.667 46 -54c24.667 -18.667 62.667 -28 114 -28
c36 0 68 8.66699 96 26c33.333 20 50 46.667 50 80c0 93.333 -70.333 146.333 -211 159c-72 6 -108 34 -108 84c0 40 28 67.333 84 82l15 4c22 4 64.333 12.667 127 26c54 11.333 81.333 35.333 82 72c1.33301 52.667 -46.334 79 -143.001 79
c-22.667 0 -59.167 -11.833 -109.5 -35.5s-79.166 -35.5 -86.499 -35.5c-26.667 0 -50.334 8.5 -71.001 25.5s-31 38.5 -31 64.5c0 38 39.333 75 118 111c67.333 30.667 122.333 46 165 46c96.667 0 175.667 -17.667 237 -53c76.667 -44 115 -111 115 -201
c0 -85.333 -33.667 -147.333 -101 -186c83.333 -48.667 125 -122.334 125 -221.001c0 -90.667 -37 -165 -111 -223c-68 -53.333 -148.667 -80 -242 -80z" />
    <glyph glyph-name="acute" unicode="&#xb4;" horiz-adv-x="550" 
d="M489 1547c0 -11.333 -20 -40.668 -60 -88.001c-13.333 -18.667 -44.333 -54.667 -93 -108c-46.667 -41.333 -89.667 -62 -129 -62c-36 0 -68 9 -96 27c-33.333 21.333 -50 49 -50 83c0 56.667 33.333 114.5 100 173.5s128.667 88.5 186 88.5
c36.667 0 68.667 -9.66699 96 -29c30.667 -21.333 46 -49.666 46 -84.999z" />
    <glyph glyph-name="mu" unicode="&#xb5;" horiz-adv-x="1235" 
d="M1174 -184c0 -52.667 -41.666 -94.6689 -124.999 -126.002c-67.333 -25.333 -134.333 -38 -201 -38c-85.333 0 -157 33.667 -215 101c-50.667 59.333 -80.334 130 -89.001 212c-20 6 -41.667 14 -65 24c-66 29.333 -106 61.333 -120 96
c-9.33301 -17.333 -12.333 -100 -9 -248c4.66699 -164.667 5.66699 -258.667 3 -282c-5.33301 -43.333 -25 -80 -59 -110c-26 -23.333 -48.667 -35 -68 -35c-40 0 -75 11.333 -105 34c-32.667 24 -49 55.667 -49 95c0 388 2 646 6 774c2.66699 102.667 4 191 4 265
c0 40.667 -3.5 101.334 -10.5 182.001s-10.5 141.334 -10.5 182.001c0 36 17.333 65.333 52 88c30.667 20 64.667 30 102 30c116 0 174 -109.667 174 -329c0 -30.667 -0.333008 -57 -1 -79l-2 -65l-4 -253c40.667 -52.667 85.667 -87.667 135 -105
c32 -11.333 76.667 -17 134 -17c6 0 11.667 0.333008 17 1c22 10.667 51.667 21.667 89 33c26 92 39 228.667 39 410c0 31.333 -5.33301 78.166 -16 140.499s-16 109.166 -16 140.499c0 40 16 72 48 96c29.333 22 64.666 33 105.999 33c82 0 136 -52.333 162 -157
c13.333 -53.333 20 -137.666 20 -252.999c0 -231.333 -17 -389.666 -51 -474.999c-45.333 -114.667 -129.333 -187 -252 -217c2 -20.667 8.33301 -42 19 -64c13.333 -30 28.333 -45 45 -45c22 0 54.333 7.16699 97 21.5s75.334 21.5 98.001 21.5
c78.667 0 118 -27.333 118 -82z" />
    <glyph glyph-name="mu" unicode="&#x3bc;" horiz-adv-x="1235" 
d="M1174 -184c0 -52.667 -41.666 -94.6689 -124.999 -126.002c-67.333 -25.333 -134.333 -38 -201 -38c-85.333 0 -157 33.667 -215 101c-50.667 59.333 -80.334 130 -89.001 212c-20 6 -41.667 14 -65 24c-66 29.333 -106 61.333 -120 96
c-9.33301 -17.333 -12.333 -100 -9 -248c4.66699 -164.667 5.66699 -258.667 3 -282c-5.33301 -43.333 -25 -80 -59 -110c-26 -23.333 -48.667 -35 -68 -35c-40 0 -75 11.333 -105 34c-32.667 24 -49 55.667 -49 95c0 388 2 646 6 774c2.66699 102.667 4 191 4 265
c0 40.667 -3.5 101.334 -10.5 182.001s-10.5 141.334 -10.5 182.001c0 36 17.333 65.333 52 88c30.667 20 64.667 30 102 30c116 0 174 -109.667 174 -329c0 -30.667 -0.333008 -57 -1 -79l-2 -65l-4 -253c40.667 -52.667 85.667 -87.667 135 -105
c32 -11.333 76.667 -17 134 -17c6 0 11.667 0.333008 17 1c22 10.667 51.667 21.667 89 33c26 92 39 228.667 39 410c0 31.333 -5.33301 78.166 -16 140.499s-16 109.166 -16 140.499c0 40 16 72 48 96c29.333 22 64.666 33 105.999 33c82 0 136 -52.333 162 -157
c13.333 -53.333 20 -137.666 20 -252.999c0 -231.333 -17 -389.666 -51 -474.999c-45.333 -114.667 -129.333 -187 -252 -217c2 -20.667 8.33301 -42 19 -64c13.333 -30 28.333 -45 45 -45c22 0 54.333 7.16699 97 21.5s75.334 21.5 98.001 21.5
c78.667 0 118 -27.333 118 -82z" />
    <glyph glyph-name="paragraph" unicode="&#xb6;" horiz-adv-x="1624" 
d="M1563 1467c0 -66 -46.332 -104.999 -138.999 -116.999v-1484c0 -126.667 -50.667 -190 -152 -190c-42.667 0 -78 12 -106 36c-30.667 24.667 -46 58 -46 100v1527c-46.667 -0.666992 -96.334 -1 -149.001 -1l-3 -720c-0.666992 -70 2.33301 -172.333 9 -307
c6 -137.333 9 -239.333 9 -306c0 -87.333 -6 -153 -18 -197c-23.333 -80 -70.333 -120 -141 -120c-40 0 -75.333 11 -106 33c-33.333 24 -50 55.333 -50 94c0 62.667 1 187.667 3 375l4 375c-30.667 -2.66699 -61 -4 -91 -4c-164.667 0 -293 42.667 -385 128
c-94 87.333 -141 212.666 -141 375.999c0 153.333 45 276 135 368s211.667 138 365 138c-6 0 -8.66699 0 -8 0c1.33301 0.666992 5.33301 1 12 1h59h63c18.667 4 38 6 58 6c70.667 0 176 1.5 316 4.5s245.333 4.5 316 4.5c46 0 86 -8.33301 120 -25
c44 -22 66 -53.667 66 -95z" />
    <glyph glyph-name="periodcentered" unicode="&#xb7;" horiz-adv-x="461" 
d="M399 756c0 43.333 -17.667 78.666 -53 105.999c-30 26 -68.333 39 -115 39c-46 0 -84.667 -13 -116 -39c-36 -27.333 -54 -62.666 -54 -105.999c0 -44 18 -80.333 54 -109c32.667 -24.667 71.334 -37 116.001 -37c45.333 0 83.666 12.333 114.999 37
c35.333 28.667 53 65 53 109z" />
    <glyph glyph-name="cedilla" unicode="&#xb8;" horiz-adv-x="755" 
d="M694 -227c-4 -86 -31.999 -161.667 -83.999 -227c-58.667 -74 -132.667 -111 -222 -111c-66.667 0 -133.667 12.667 -201 38c-84 31.333 -126 73.333 -126 126c0 54.667 39.667 82 119 82c22 0 54.333 -7.16699 97 -21.5s75.334 -21.5 98.001 -21.5c16 0 31 15.667 45 47
c12 28 18 50.667 18 68c0 36.667 -24.333 58.667 -73 66c-12.667 2 -59.334 7 -140.001 15c-51.333 10.667 -78.666 35.667 -81.999 75c-2 16 -3 33.667 -3 53c0 74 14 133.333 42 178c22.667 36 46.667 54 72 54c13.333 0 20.666 -7 21.999 -21
c3.33301 -51.333 42.666 -90.333 117.999 -117c120.667 -42.667 187.667 -68 201 -76c70 -43.333 103 -112.333 99 -207z" />
    <glyph glyph-name="onesuperior" unicode="&#xb9;" horiz-adv-x="619" 
d="M463 599c-24.667 0 -61.166 -1.33203 -109.499 -3.99902s-84.5 -4 -108.5 -4c-88 0 -132 24.667 -132 74c0 69.333 38 104.333 114 105v479c-12 -2 -33.333 -3 -64 -3c-26 0 -49 8.33301 -69 25c-22 17.333 -33 39 -33 65c0 37.333 41.667 83.666 125 138.999
c79.333 52.667 139.666 79 180.999 79c46.667 0 70 -24.667 70 -74c0 -62 -2.16699 -155.167 -6.5 -279.5s-6.5 -217.5 -6.5 -279.5v-148c89.333 -1.33301 134 -30.333 134 -87c0 -58 -31.667 -87 -95 -87z" />
    <glyph glyph-name="ordmasculine" unicode="&#xba;" horiz-adv-x="1037" 
d="M976 1343c0 -158 -40.3311 -273.333 -120.998 -346c-77.333 -70 -196 -105 -356 -105c-118.667 0 -220.334 36.667 -305.001 110c-88.667 76.667 -133 173.667 -133 291c0 116 53 214.667 159 296c97.333 74.667 205.666 112 324.999 112c92 0 185.333 -36.333 280 -109
c100.667 -76.667 151 -159.667 151 -249zM669.002 1343c0 30 -18.333 54.334 -55 73.001c-30.667 16 -64 24 -100 24c-38 0 -71.833 -14.833 -101.5 -44.5s-44.5 -63.834 -44.5 -102.501c0 -107.333 48.333 -161 145 -161c54 0 95 22.667 123 68c22 38 33 85.667 33 143z
" />
    <glyph glyph-name="guillemotright" unicode="&#xbb;" horiz-adv-x="1487" 
d="M696 924c0 -32.667 43 -86.668 129 -162.001c10.667 -9.33301 71 -58 181 -146l-180 -147c-87.333 -72.667 -131 -124 -131 -154c0 -35.333 15.333 -65 46 -89c28 -21.333 60.333 -32 97 -32c49.333 0 100.666 23.667 153.999 71c36 32 90.667 70 164 114
c81.333 50 137.333 86.667 168 110c8.66699 6.66699 31.334 23 68.001 49c22.667 20 34 43 34 69c0 48 -102.333 142.333 -307 283l-128 97c-52 38 -102.667 57 -152 57c-36.667 0 -69 -10.667 -97 -32c-30.667 -23.333 -46 -52.666 -46 -87.999zM62 931.999
c0 -32.667 43.001 -86.668 129.001 -162.001c10.667 -9.33301 71 -58 181 -146l-180 -147c-87.333 -72.667 -131 -124 -131 -154c0 -35.333 15.333 -65 46 -89c28 -21.333 60.333 -32 97 -32c49.333 0 100.666 23.667 153.999 71c36 32 90.667 70 164 114
c82 50 138 86.667 168 110c8.66699 6.66699 31.667 23 69 49c22.667 20 34 43 34 69c0 48 -102.333 142.333 -307 283l-129 97c-52 38 -102.667 57 -152 57c-36 0 -68.333 -10.667 -97 -32c-30.667 -23.333 -46 -52.666 -46 -87.999z" />
    <glyph glyph-name="onequarter" unicode="&#xbc;" horiz-adv-x="1999" 
d="M1402 1504c0 -24 -3.66797 -43.332 -11.001 -57.999l-128 -268c-80.667 -174.667 -151 -311.334 -211 -410.001l-240 -397c-8.66699 -15.333 -75 -142.666 -199 -381.999c-26.667 -52.667 -69.334 -79 -128.001 -79c-38 0 -71 10.667 -99 32c-32 23.333 -48 53 -48 89
c0 15.333 3.33301 30.666 10 45.999c58.667 137.333 166.834 334.333 324.501 591s265.834 454.667 324.501 594c44 103.333 76.667 174.333 98 213c57.333 102 111.333 152.333 162 151c37.333 -1.33301 70 -12.333 98 -33c31.333 -23.333 47 -53 47 -89zM462.999 669.001
c-24.667 0 -61.167 -1.49902 -109.5 -4.49902s-84.5 -4.5 -108.5 -4.5c-88 0 -132 24.667 -132 74c0 69.333 38 104.666 114 105.999v479c-13.333 -2 -34.666 -3 -63.999 -3c-26 0 -49 8.33301 -69 25c-22 17.333 -33 39 -33 65c0 37.333 41.667 83.666 125 138.999
c79.333 52.667 139.666 79 180.999 79c46.667 0 70 -25 70 -75c0 -62 -2.16699 -155 -6.5 -279s-6.5 -217 -6.5 -279v-148c89.333 -1.33301 134 -30.666 134 -87.999s-31.667 -86 -95 -86zM1835 239.002h-107l2 -84c1.33301 -56 2 -92.667 2 -110c0 -60 -34 -90 -102 -90
c-68.667 0 -103 29.667 -103 89c0 25.333 -1.33301 91.333 -4 198l-96 2c-169.333 3.33301 -262.333 9.33301 -279 18c-26.667 13.333 -40 31.666 -40 54.999c0 31.333 17 69.666 51 114.999c52 70 92 127.667 120 173l109 181l57 100c26.667 37.333 56.667 56 90 56
c24.667 0 47.667 -8 69 -24c23.333 -18 35 -38.667 35 -62c0 -10 -2.66699 -19 -8 -27c-26 -40 -101.333 -175.333 -226 -406h127c0 20.667 0.666992 51.334 2 92.001c4 71.333 39 107 105 107c68 0 102 -30 102 -90c0 -31.333 -2 -69 -6 -113
c45.333 -1.33301 80.333 -3 105 -5c65.333 -5.33301 98 -34.666 98 -87.999c0 -26 -10.333 -47 -31 -63s-44.667 -24 -72 -24z" />
    <glyph glyph-name="onehalf" unicode="&#xbd;" horiz-adv-x="2016" 
d="M1402 1504c0 -24 -3.66797 -43.332 -11.001 -57.999l-128 -268c-80.667 -174.667 -151 -311.334 -211 -410.001l-240 -397c-8.66699 -15.333 -75 -142.666 -199 -381.999c-26.667 -52.667 -69.334 -79 -128.001 -79c-38 0 -71 10.667 -99 32c-32 23.333 -48 53 -48 89
c0 15.333 3.33301 30.666 10 45.999c58.667 137.333 166.834 334.333 324.501 591s265.834 454.667 324.501 594c44 103.333 76.667 174.333 98 213c57.333 102 111.333 152.333 162 151c37.333 -1.33301 70 -12.333 98 -33c31.333 -23.333 47 -53 47 -89zM462.999 669.001
c-24.667 0 -61.167 -1.49902 -109.5 -4.49902s-84.5 -4.5 -108.5 -4.5c-88 0 -132 24.667 -132 74c0 69.333 38 104.666 114 105.999v479c-13.333 -2 -34.666 -3 -63.999 -3c-26 0 -49 8.33301 -69 25c-22 17.333 -33 39 -33 65c0 37.333 41.667 83.666 125 138.999
c79.333 52.667 139.666 79 180.999 79c46.667 0 70 -25 70 -75c0 -62 -2.16699 -155 -6.5 -279s-6.5 -217 -6.5 -279v-148c89.333 -1.33301 134 -30.666 134 -87.999s-31.667 -86 -95 -86zM1515 178.002c16.667 2 99.667 3.00293 249 3.00293c127.333 0 191 -30.333 191 -91
c0 -26.667 -9.66699 -48.334 -29 -65.001s-42.666 -25 -69.999 -25h-58c-65.333 -0.666992 -95 -1 -89 -1h-300c-72 0 -114 2 -126 6c-16 5.33301 -31.5 20.333 -46.5 45s-22.5 46 -22.5 64c0 47.333 46.667 105.333 140 174l249 186c88 67.333 132 134 132 200
c0 17.333 -14.167 37.333 -42.5 60s-51.5 34 -69.5 34c-29.333 0 -78.333 -18.833 -147 -56.5s-104.667 -56.5 -108 -56.5c-26.667 0 -50 6.33301 -70 19c-24 14.667 -36 34.667 -36 60c0 50 48 98.667 144 146c85.333 42 157.666 63 216.999 63
c77.333 0 149 -24.333 215 -73c71.333 -52.667 107 -116.334 107 -191.001c0 -160.667 -108.667 -306.334 -326 -437.001z" />
    <glyph glyph-name="threequarters" unicode="&#xbe;" horiz-adv-x="2179" 
d="M1582 1504c0 -24 -3.66895 -43.332 -11.002 -57.999l-127 -268c-81.333 -174.667 -151.666 -311.334 -210.999 -410.001l-240 -397c-9.33301 -15.333 -75.666 -142.666 -198.999 -381.999c-27.333 -52.667 -70.333 -79 -129 -79c-37.333 0 -70.333 10.667 -99 32
c-31.333 23.333 -47 53 -47 89c0 15.333 3.33301 30.666 10 45.999c58.667 137.333 166.667 334.333 324 591s265.666 454.667 324.999 594c43.333 103.333 76 174.333 98 213c56.667 102 110.334 152.333 161.001 151c38 -1.33301 71 -12.333 99 -33
c30.667 -23.333 46 -53 46 -89zM400.998 655.001c-72.667 0 -137.67 13 -195.003 39c-68.667 30.667 -115 76 -139 136c-4 9.33301 -6 19.333 -6 30c0 26.667 11 48.334 33 65.001c20 14.667 44 22 72 22c30.667 0 55.334 -11.333 74.001 -34
c29.333 -34.667 45.333 -53 48 -55c24.667 -18.667 62.334 -28 113.001 -28c35.333 0 67.333 9 96 27c33.333 20 50 46.667 50 80c0 93.333 -70.333 146.333 -211 159c-71.333 6 -107 34 -107 84c0 38 28 65.333 84 82l14 3l128 26c54 11.333 81.333 35.333 82 72
c2 53.333 -45.667 80 -143 80c-22.667 0 -59.167 -12 -109.5 -36s-79.166 -36 -86.499 -36c-27.333 0 -50.666 8.33301 -69.999 25c-21.333 17.333 -32 39.333 -32 66c0 38 39 74.667 117 110c67.333 30.667 122.666 46 165.999 46c96.667 0 175.667 -17.667 237 -53
c76.667 -44 115 -111 115 -201c0 -84.667 -34 -146.667 -102 -186c83.333 -48 125 -121.333 125 -220c0 -92.667 -36.667 -167.334 -110 -224.001c-66.667 -52.667 -147.667 -79 -243 -79zM2016 239.001h-108.001l2 -84c1.33301 -56 2 -92.667 2 -110
c0 -60 -34 -90 -102 -90s-102 29.667 -102 89c0 25.333 -1.66699 91.333 -5 198l-95 2c-170 3.33301 -263.333 9.33301 -280 18c-26 13.333 -39 31.666 -39 54.999c0 31.333 16.667 69.666 50 114.999c52.667 70 92.667 127.667 120 173l109 181l57 100
c26.667 37.333 57 56 91 56c24 0 46.667 -8 68 -24c23.333 -18 35 -38.667 35 -62c0 -10 -2.66699 -19 -8 -27c-25.333 -40 -100.333 -175.333 -225 -406h126c0.666992 20.667 1.33398 51.334 2.00098 92.001c4 71.333 39 107 105 107c68 0 102 -30 102 -90
c0 -31.333 -1.66699 -69 -5 -113c44.667 -1.33301 79.334 -3 104.001 -5c65.333 -5.33301 98 -34.666 98 -87.999c0 -26 -10.333 -47 -31 -63s-44.334 -24 -71.001 -24z" />
    <glyph glyph-name="questiondown" unicode="&#xbf;" horiz-adv-x="1210" 
d="M61 121c2 100 32.667 175.667 92 227c30 26.667 95 61 195 103c94 39.333 161.333 79 202 119c26.667 26.667 43 68.334 49 125.001c8 72 14 113 18 123c14 36.667 47.667 55 101 55c86 0 136 -42.333 150 -127c4 -26.667 6 -52.334 6 -77.001
c0 -108.667 -44 -198.667 -132 -270c-26.667 -22 -108 -68.333 -244 -139c-88 -46 -132 -92.333 -132 -139c0 -104 106.667 -156 320 -156c30 0 84.5 20.5 163.5 61.5s127.5 61.5 145.5 61.5c40.667 0 76.5 -13.333 107.5 -40s46.5 -60 46.5 -100
c0 -64 -60.667 -124 -182 -180c-107.333 -49.333 -201 -74 -281 -74c-170 0 -313.667 34.667 -431 104c-132 78 -196.667 185.667 -194 323zM595 1142c0 43.333 17.667 79 53 107c32.667 26 71.334 39 116.001 39s83.334 -13 116.001 -39c36 -28 54 -63.667 54 -107
s-18 -79 -54 -107c-32.667 -26 -71.334 -39 -116.001 -39s-83.334 13 -116.001 39c-35.333 28 -53 63.667 -53 107z" />
    <glyph glyph-name="Agrave" unicode="&#xc0;" horiz-adv-x="1688" 
d="M1645 88c0 -37.333 -14.666 -67.333 -43.999 -90c-26.667 -20 -59.334 -30 -98.001 -30c-62.667 0 -137 62.667 -223 188c-54.667 78.667 -106 169 -154 271c-76 -10 -174.667 -14 -296 -12c-152.667 2.66699 -251.334 2.33398 -296.001 -0.999023
c-35.333 -147.333 -59 -236 -71 -266c-44 -114.667 -99.333 -172 -166 -172c-45.333 0 -87 13 -125 39c-41.333 27.333 -66.333 62.666 -75 105.999c-0.666992 3.33301 -1 7.33301 -1 12c0 32 17.667 91.333 53 178l77 187c312.667 742.667 504.667 1114 576 1114
c92.667 0 161 -48.333 205 -145l495 -1068c0.666992 -2 29.334 -53.333 86.001 -154c38 -68 57 -120.333 57 -157zM1006 678l-176 468l-207 -491c38 8.66699 101.333 13.667 190 15c96.667 2 161 4.66699 193 8zM1015 1860c0 -34 -16.333 -61.665 -49 -82.998
c-28.667 -18 -61 -27 -97 -27c-39.333 0 -82.333 20.667 -129 62c-30.667 38.667 -61.334 74.667 -92.001 108c-40.667 43.333 -61 72.666 -61 87.999c0 33.333 15.667 61.333 47 83.999c28.667 20 60.334 30 95.001 30c57.333 0 119.333 -29.5 186 -88.5
s100 -116.833 100 -173.5z" />
    <glyph glyph-name="Aacute" unicode="&#xc1;" horiz-adv-x="1694" 
d="M1645 88c0 -37.333 -14.666 -67.333 -43.999 -90c-26.667 -20 -59.334 -30 -98.001 -30c-62.667 0 -137 62.667 -223 188c-54.667 78.667 -106 169 -154 271c-76 -10 -174.667 -14 -296 -12c-152.667 2.66699 -251.334 2.33398 -296.001 -0.999023
c-35.333 -147.333 -59 -236 -71 -266c-44 -114.667 -99.333 -172 -166 -172c-45.333 0 -87 13 -125 39c-41.333 27.333 -66.333 62.666 -75 105.999c-0.666992 3.33301 -1 7.33301 -1 12c0 32 17.667 91.333 53 178l77 187c312.667 742.667 504.667 1114 576 1114
c92.667 0 161 -48.333 205 -145l495 -1068c0.666992 -2 29.334 -53.333 86.001 -154c38 -68 57 -120.333 57 -157zM1006 678l-176 468l-207 -491c38 8.66699 101.333 13.667 190 15c96.667 2 161 4.66699 193 8zM1048 1989c0 -11.333 -20 -40.668 -60 -88.001
c-13.333 -18.667 -44.333 -54.667 -93 -108c-46.667 -41.333 -89.667 -62 -129 -62c-36 0 -68 9 -96 27c-33.333 21.333 -50 49 -50 83c0 56.667 33.333 114.5 100 173.5s128.667 88.5 186 88.5c36.667 0 68.667 -9.66699 96 -29c30.667 -21.333 46 -49.666 46 -84.999z" />
    <glyph glyph-name="Acircumflex" unicode="&#xc2;" horiz-adv-x="1688" 
d="M1645 88c0 -37.333 -14.666 -67.333 -43.999 -90c-26.667 -20 -59.334 -30 -98.001 -30c-62.667 0 -137 62.667 -223 188c-54.667 78.667 -106 169 -154 271c-76 -10 -174.667 -14 -296 -12c-152.667 2.66699 -251.334 2.33398 -296.001 -0.999023
c-35.333 -147.333 -59 -236 -71 -266c-44 -114.667 -99.333 -172 -166 -172c-45.333 0 -87 13 -125 39c-41.333 27.333 -66.333 62.666 -75 105.999c-0.666992 3.33301 -1 7.33301 -1 12c0 32 17.667 91.333 53 178l77 187c312.667 742.667 504.667 1114 576 1114
c92.667 0 161 -48.333 205 -145l495 -1068c0.666992 -2 29.334 -53.333 86.001 -154c38 -68 57 -120.333 57 -157zM1006 678l-176 468l-207 -491c38 8.66699 101.333 13.667 190 15c96.667 2 161 4.66699 193 8zM1229 1802c0 -34.667 -16 -62.999 -48 -84.999
c-28 -19.333 -60.333 -29 -97 -29c-37.333 0 -84.333 32 -141 96l-122 139c-2 -2 -36 -52 -102 -150c-46.667 -69.333 -90 -104 -130 -104c-35.333 0 -67.333 10 -96 30c-31.333 22 -47 50 -47 84c0 29.333 38.333 93.666 115 192.999c68 88.667 119.333 148 154 178
c29.333 26 63 39 101 39c56 0 138.833 -51.5 248.5 -154.5s164.5 -181.833 164.5 -236.5z" />
    <glyph glyph-name="Atilde" unicode="&#xc3;" horiz-adv-x="1681" 
d="M1645 88c0 -37.333 -14.666 -67.333 -43.999 -90c-26.667 -20 -59.334 -30 -98.001 -30c-62.667 0 -137 62.667 -223 188c-54.667 78.667 -106 169 -154 271c-76 -10 -174.667 -14 -296 -12c-152.667 2.66699 -251.334 2.33398 -296.001 -0.999023
c-35.333 -147.333 -59 -236 -71 -266c-44 -114.667 -99.333 -172 -166 -172c-45.333 0 -87 13 -125 39c-41.333 27.333 -66.333 62.666 -75 105.999c-0.666992 3.33301 -1 7.33301 -1 12c0 32 17.667 91.333 53 178l77 187c312.667 742.667 504.667 1114 576 1114
c92.667 0 161 -48.333 205 -145l495 -1068c0.666992 -2 29.334 -53.333 86.001 -154c38 -68 57 -120.333 57 -157zM1006 678l-176 468l-207 -491c38 8.66699 101.333 13.667 190 15c96.667 2 161 4.66699 193 8zM1342 2004c0 -71.333 -30.667 -134.166 -92 -188.499
s-128 -81.5 -200 -81.5c-92.667 0 -170 15.667 -232 47c-33.333 16.667 -71.333 46 -114 88c-32.667 31.333 -59 47 -79 47s-46.333 -24.167 -79 -72.5s-64 -72.5 -94 -72.5c-30.667 0 -58.667 7.66699 -84 23c-30 17.333 -45 40.333 -45 69
c0 71.333 33.333 130.666 100 177.999c60 42.667 127.333 64 202 64c76 0 139.333 -15.667 190 -47c14 -8.66699 47.333 -38 100 -88c33.333 -31.333 67 -47 101 -47c37.333 0 62 15 74 45c5.33301 14 14.333 42.333 27 85c17.333 30 50 45 98 45c32 0 60 -7.66699 84 -23
c28.667 -17.333 43 -41 43 -71z" />
    <glyph glyph-name="Adieresis" unicode="&#xc4;" horiz-adv-x="1694" 
d="M1645 88c0 -37.333 -14.666 -67.333 -43.999 -90c-26.667 -20 -59.334 -30 -98.001 -30c-62.667 0 -137 62.667 -223 188c-54.667 78.667 -106 169 -154 271c-76 -10 -174.667 -14 -296 -12c-152.667 2.66699 -251.334 2.33398 -296.001 -0.999023
c-35.333 -147.333 -59 -236 -71 -266c-44 -114.667 -99.333 -172 -166 -172c-45.333 0 -87 13 -125 39c-41.333 27.333 -66.333 62.666 -75 105.999c-0.666992 3.33301 -1 7.33301 -1 12c0 32 17.667 91.333 53 178l77 187c312.667 742.667 504.667 1114 576 1114
c92.667 0 161 -48.333 205 -145l495 -1068c0.666992 -2 29.334 -53.333 86.001 -154c38 -68 57 -120.333 57 -157zM1006 678l-176 468l-207 -491c38 8.66699 101.333 13.667 190 15c96.667 2 161 4.66699 193 8zM1289 1852c0 -44 -17.667 -80 -53 -108
c-32.667 -25.333 -71.334 -38 -116.001 -38c-45.333 0 -84.333 12.667 -117 38c-35.333 28 -53 64 -53 108c0 43.333 17.667 79 53 107c32.667 25.333 71.667 38 117 38c44.667 0 83.334 -12.667 116.001 -38c35.333 -28 53 -63.667 53 -107zM750.001 1852
c0 -44 -17.667 -80 -53 -108c-32.667 -25.333 -71.334 -38 -116.001 -38c-45.333 0 -84.333 12.667 -117 38c-35.333 28 -53 64 -53 108c0 43.333 17.667 79 53 107c32.667 25.333 71.667 38 117 38c44.667 0 83.334 -12.667 116.001 -38c35.333 -28 53 -63.667 53 -107z
" />
    <glyph glyph-name="Aring" unicode="&#xc5;" horiz-adv-x="1700" 
d="M1645 88c0 -37.333 -14.666 -67.333 -43.999 -90c-26.667 -20 -59.334 -30 -98.001 -30c-62.667 0 -137 62.667 -223 188c-54.667 78.667 -106 169 -154 271c-76 -10 -174.667 -14 -296 -12c-152.667 2.66699 -251.334 2.33398 -296.001 -0.999023
c-35.333 -147.333 -59 -236 -71 -266c-44 -114.667 -99.333 -172 -166 -172c-45.333 0 -87 13 -125 39c-41.333 27.333 -66.333 62.666 -75 105.999c-0.666992 3.33301 -1 7.33301 -1 12c0 32 17.667 91.333 53 178l77 187c312.667 742.667 504.667 1114 576 1114
c92.667 0 161 -48.333 205 -145l495 -1068c0.666992 -2 29.334 -53.333 86.001 -154c38 -68 57 -120.333 57 -157zM1006 678l-176 468l-207 -491c38 8.66699 101.333 13.667 190 15c96.667 2 161 4.66699 193 8zM1127 1740c0 -93.333 -27.5 -165.167 -82.5 -215.5
s-129.5 -75.5 -223.5 -75.5c-77.333 0 -142 23.333 -194 70c-54 48 -81 110.333 -81 187c0 92 29 164.667 87 218c56 52 130.333 78 223 78c78 0 142.667 -24.333 194 -73s77 -111.667 77 -189zM928.001 1740c0 44.667 -31.333 67.001 -94 67.001
c-38 0 -64.167 -7.16699 -78.5 -21.5s-21.5 -40.5 -21.5 -78.5c0 -20.667 10.333 -37.334 31 -50.001c18 -11.333 37.667 -17 59 -17c69.333 0 104 33.333 104 100z" />
    <glyph glyph-name="AE" unicode="&#xc6;" horiz-adv-x="2530" 
d="M1276 678c11.333 115.333 23.001 271.333 35.001 468l-428 -491c41.333 8.66699 107 13.667 197 15c97.333 2 162.666 4.66699 195.999 8zM2513 1470c0 -39.333 -15.0068 -72.3389 -45.0068 -99.0059s-65 -40 -105 -40c-44 0 -110 -1.66699 -198 -5
c-90 -3.33301 -155 -4.66602 -195 -3.99902c-3.33301 0 -59.666 1.66699 -168.999 5c-67.333 2 -123 0.333008 -167 -5v-9c0 -16.667 1.33301 -140 4 -370c26 4.66699 52 7.33398 78 8.00098c18.667 0.666992 49 0.333984 91 -0.999023l91 -3
c21.333 -0.666992 51.333 0.666016 90 3.99902c41.333 4 71 6 89 6c102.667 0 154 -44.333 154 -133c0 -104.667 -59.333 -157 -178 -157c-17.333 0 -43.166 1.16699 -77.499 3.5s-60.166 3.5 -77.499 3.5c-120 0 -205.333 -4 -256 -12l5 -263l16 -154l1 -15l671 2
c40 0 75.167 -13 105.5 -39s45.5 -59 45.5 -99c0 -98 -181 -147 -543 -147c-44 0 -110 1.83301 -198 5.5s-154 5.5 -198 5.5h-22c-4.66699 -2 -27.667 -3 -69 -3c-72.667 0 -118 27.333 -136 82c-28 34.667 -42 80 -42 136c0 11.333 1.33301 43 4 95
c2.66699 46.667 3.33398 87.334 2.00098 122.001c0 -5.33301 -0.333008 7 -1 37c-80.667 -10 -181 -14 -301 -12c-151.333 2.66699 -250.333 2.33398 -297 -0.999023c-101.333 -147.333 -164.666 -236 -189.999 -266c-96 -114.667 -177 -172 -243 -172
c-45.333 0 -81.333 12.667 -108 38c-29.333 28 -38.333 63.667 -27 107c6.66699 28 52.334 91.333 137.001 190l161 187c422 484.667 721.667 811 899 979c11.333 42.667 35.333 71.334 72 86.001c10.667 8 26 13.667 46 17c12.667 8.66699 24.334 12 35.001 10
c23.333 -4 33.666 -6 30.999 -6c6 0 23 2.33301 51 7c16.667 3.33301 29.334 1.33301 38.001 -6c44 0.666992 100.333 2.33398 169 5.00098c94.667 2.66699 166 4 214 4c362 0 543 -41.333 543 -124z" />
    <glyph glyph-name="Ccedilla" unicode="&#xc7;" horiz-adv-x="1427" 
d="M1114 -227c-4 -86 -31.999 -161.668 -83.999 -227.001c-58.667 -74 -132.667 -111 -222 -111c-66.667 0 -133.667 12.667 -201 38c-84 31.333 -126 73.333 -126 126c0 54.667 39.667 82 119 82c22.667 0 55.167 -7.16699 97.5 -21.5s74.833 -21.5 97.5 -21.5
c16 0 31 15.667 45 47c12.667 28 19 50.667 19 68c0 36.667 -24.667 58.667 -74 66c-12.667 2 -59.334 7 -140.001 15c-51.333 10.667 -78.666 35.667 -81.999 75c-1.33301 16 -2 33.667 -2 53c0 13.333 0.333008 26 1 38c-116 32 -218.667 95.667 -308 191
c-128.667 136.667 -193 296.334 -193 479.001c0 193.333 67.667 385 203 575c148.667 209.333 319.667 314 513 314c111.333 0 230.333 -37.667 357 -113c140 -83.333 210 -172.333 210 -267c0 -20 -14.667 -36.667 -44 -50c-23.333 -10.667 -46.666 -16 -69.999 -16
c-38.667 0 -104.5 23.667 -197.5 71s-161.833 71 -206.5 71c-111.333 0 -217 -80 -317 -240c-90 -144 -135 -274.333 -135 -391c0 -95.333 27.667 -178 83 -248c62 -78 143.667 -117 245 -117c71.333 0 140.666 18 207.999 54c24 12.667 75 46.667 153 102
c52 36.667 92 55 120 55c47.333 0 89.333 -15.333 126 -46c38 -32.667 57 -72.334 57 -119.001c0 -82.667 -82 -160.667 -246 -234c-60.667 -27.333 -117.334 -48.666 -170.001 -63.999c35.333 -13.333 57 -22.333 65 -27c70 -43.333 103 -112.333 99 -207z" />
    <glyph glyph-name="Egrave" unicode="&#xc8;" horiz-adv-x="1307" 
d="M1316 1419c0 -39.333 -14.834 -72.333 -44.501 -99s-64.5 -40 -104.5 -40c-44.667 0 -110.667 -1.66699 -198 -5c-90 -3.33301 -155.333 -4.66602 -196 -3.99902c-3.33301 0 -59.333 1.66699 -168 5c-67.333 2 -123 0.333008 -167 -5
c-2 -120.667 -5.33301 -247.667 -10 -381c30 5.33301 60.333 8.66602 91 9.99902c18.667 0.666992 49 0.333984 91 -0.999023l92 -3c20.667 -0.666992 50.334 0.666016 89.001 3.99902c42 4 72 6 90 6c102.667 0 154 -44.333 154 -133c0 -104.667 -59.333 -157 -178 -157
c-17.333 0 -43.333 1.16699 -78 3.5s-60.334 3.5 -77.001 3.5c-139.333 0 -232 -5.33301 -278 -16v-428l714 2c40.667 0 76 -13 106 -39s45 -59 45 -99c0 -98 -180.667 -147 -542 -147c-44 0 -110 1.83301 -198 5.5s-154 5.5 -198 5.5h-22
c-5.33301 -2 -28.666 -3 -69.999 -3c-72.667 0 -118 27.333 -136 82c-28 34.667 -42 80 -42 136c0 90.667 5.83301 226.167 17.5 406.5s17.5 315.5 17.5 405.5v244c0 20 -1 50.333 -3 91s-3 71 -3 91c0 80 26.333 130.667 79 152c18 13.333 50 20 96 20
c38.667 0 56 0.666992 52 2h9c47.333 0 118.5 1.5 213.5 4.5s166.167 4.5 213.5 4.5c362 0 543 -41.333 543 -124zM846.999 1968c0 -34 -16.333 -61.667 -49 -83c-28.667 -18 -61 -27 -97 -27c-39.333 0 -82.333 20.667 -129 62c-30.667 38.667 -61.334 74.667 -92.001 108
c-40.667 43.333 -61 72.666 -61 88c0 33.333 15.667 61.333 47 84c28.667 20 60.334 30 95.001 30c57.333 0 119.333 -29.5 186 -88.5s100 -116.833 100 -173.5z" />
    <glyph glyph-name="Eacute" unicode="&#xc9;" horiz-adv-x="1307" 
d="M1316 1419c0 -39.333 -14.834 -72.333 -44.501 -99s-64.5 -40 -104.5 -40c-44.667 0 -110.667 -1.66699 -198 -5c-90 -3.33301 -155.333 -4.66602 -196 -3.99902c-3.33301 0 -59.333 1.66699 -168 5c-67.333 2 -123 0.333008 -167 -5
c-2 -120.667 -5.33301 -247.667 -10 -381c30 5.33301 60.333 8.66602 91 9.99902c18.667 0.666992 49 0.333984 91 -0.999023l92 -3c20.667 -0.666992 50.334 0.666016 89.001 3.99902c42 4 72 6 90 6c102.667 0 154 -44.333 154 -133c0 -104.667 -59.333 -157 -178 -157
c-17.333 0 -43.333 1.16699 -78 3.5s-60.334 3.5 -77.001 3.5c-139.333 0 -232 -5.33301 -278 -16v-428l714 2c40.667 0 76 -13 106 -39s45 -59 45 -99c0 -98 -180.667 -147 -542 -147c-44 0 -110 1.83301 -198 5.5s-154 5.5 -198 5.5h-22
c-5.33301 -2 -28.666 -3 -69.999 -3c-72.667 0 -118 27.333 -136 82c-28 34.667 -42 80 -42 136c0 90.667 5.83301 226.167 17.5 406.5s17.5 315.5 17.5 405.5v244c0 20 -1 50.333 -3 91s-3 71 -3 91c0 80 26.333 130.667 79 152c18 13.333 50 20 96 20
c38.667 0 56 0.666992 52 2h9c47.333 0 118.5 1.5 213.5 4.5s166.167 4.5 213.5 4.5c362 0 543 -41.333 543 -124zM896.999 2125c0 -11.333 -20 -40.666 -60 -88c-13.333 -18.667 -44.333 -54.667 -93 -108c-46.667 -41.333 -89.667 -62 -129 -62c-36 0 -68 9 -96 27
c-33.333 21.333 -50 49 -50 83c0 56.667 33.333 114.5 100 173.5s128.667 88.5 186 88.5c36.667 0 68.667 -9.66699 96 -29c30.667 -21.333 46 -49.666 46 -85z" />
    <glyph glyph-name="Ecircumflex" unicode="&#xca;" horiz-adv-x="1307" 
d="M1316 1419c0 -39.333 -14.834 -72.333 -44.501 -99s-64.5 -40 -104.5 -40c-44.667 0 -110.667 -1.66699 -198 -5c-90 -3.33301 -155.333 -4.66602 -196 -3.99902c-3.33301 0 -59.333 1.66699 -168 5c-67.333 2 -123 0.333008 -167 -5
c-2 -120.667 -5.33301 -247.667 -10 -381c30 5.33301 60.333 8.66602 91 9.99902c18.667 0.666992 49 0.333984 91 -0.999023l92 -3c20.667 -0.666992 50.334 0.666016 89.001 3.99902c42 4 72 6 90 6c102.667 0 154 -44.333 154 -133c0 -104.667 -59.333 -157 -178 -157
c-17.333 0 -43.333 1.16699 -78 3.5s-60.334 3.5 -77.001 3.5c-139.333 0 -232 -5.33301 -278 -16v-428l714 2c40.667 0 76 -13 106 -39s45 -59 45 -99c0 -98 -180.667 -147 -542 -147c-44 0 -110 1.83301 -198 5.5s-154 5.5 -198 5.5h-22
c-5.33301 -2 -28.666 -3 -69.999 -3c-72.667 0 -118 27.333 -136 82c-28 34.667 -42 80 -42 136c0 90.667 5.83301 226.167 17.5 406.5s17.5 315.5 17.5 405.5v244c0 20 -1 50.333 -3 91s-3 71 -3 91c0 80 26.333 130.667 79 152c18 13.333 50 20 96 20
c38.667 0 56 0.666992 52 2h9c47.333 0 118.5 1.5 213.5 4.5s166.167 4.5 213.5 4.5c362 0 543 -41.333 543 -124zM974.999 1822c0 -34.667 -16 -62.999 -48 -84.999c-28 -19.333 -60.333 -29 -97 -29c-37.333 0 -84.333 32 -141 96l-122 139c-2 -2 -36 -52 -102 -150
c-46.667 -69.333 -90 -104 -130 -104c-35.333 0 -67.333 10 -96 30c-31.333 22 -47 50 -47 84c0 29.333 38.333 93.666 115 192.999c68 88.667 119.333 148 154 178c29.333 26 63 39 101 39c56 0 138.833 -51.5 248.5 -154.5s164.5 -181.833 164.5 -236.5z" />
    <glyph glyph-name="Edieresis" unicode="&#xcb;" horiz-adv-x="1307" 
d="M1316 1419c0 -39.333 -14.834 -72.333 -44.501 -99s-64.5 -40 -104.5 -40c-44.667 0 -110.667 -1.66699 -198 -5c-90 -3.33301 -155.333 -4.66602 -196 -3.99902c-3.33301 0 -59.333 1.66699 -168 5c-67.333 2 -123 0.333008 -167 -5
c-2 -120.667 -5.33301 -247.667 -10 -381c30 5.33301 60.333 8.66602 91 9.99902c18.667 0.666992 49 0.333984 91 -0.999023l92 -3c20.667 -0.666992 50.334 0.666016 89.001 3.99902c42 4 72 6 90 6c102.667 0 154 -44.333 154 -133c0 -104.667 -59.333 -157 -178 -157
c-17.333 0 -43.333 1.16699 -78 3.5s-60.334 3.5 -77.001 3.5c-139.333 0 -232 -5.33301 -278 -16v-428l714 2c40.667 0 76 -13 106 -39s45 -59 45 -99c0 -98 -180.667 -147 -542 -147c-44 0 -110 1.83301 -198 5.5s-154 5.5 -198 5.5h-22
c-5.33301 -2 -28.666 -3 -69.999 -3c-72.667 0 -118 27.333 -136 82c-28 34.667 -42 80 -42 136c0 90.667 5.83301 226.167 17.5 406.5s17.5 315.5 17.5 405.5v244c0 20 -1 50.333 -3 91s-3 71 -3 91c0 80 26.333 130.667 79 152c18 13.333 50 20 96 20
c38.667 0 56 0.666992 52 2h9c47.333 0 118.5 1.5 213.5 4.5s166.167 4.5 213.5 4.5c362 0 543 -41.333 543 -124zM1068 1940c0 -44 -17.667 -80 -53 -108c-32.667 -25.333 -71.334 -38 -116.001 -38c-45.333 0 -84.333 12.667 -117 38c-35.333 28 -53 64 -53 108
c0 43.333 17.667 79 53 107c32.667 25.333 71.667 38 117 38c44.667 0 83.334 -12.667 116.001 -38c35.333 -28 53 -63.667 53 -107zM528.999 1940c0 -44 -17.667 -80 -53 -108c-32.667 -25.333 -71.334 -38 -116.001 -38c-45.333 0 -84.333 12.667 -117 38
c-35.333 28 -53 64 -53 108c0 43.333 17.667 79 53 107c32.667 25.333 71.667 38 117 38c44.667 0 83.334 -12.667 116.001 -38c35.333 -28 53 -63.667 53 -107z" />
    <glyph glyph-name="Igrave" unicode="&#xcc;" horiz-adv-x="623" 
d="M675 1384c0 -53.333 -7.66504 -88.666 -22.998 -105.999c-4.66699 -5.33301 -23.667 -13.5 -57 -24.5s-57.333 -25.5 -72 -43.5c-12 -147.333 -18 -303.666 -18 -468.999l1 -469c66.667 -8 106.667 -17.333 120 -28c22.667 -18 34 -59.667 34 -125
c0 -104 -110.333 -156 -331 -156h-58c1.33301 0 -9.33398 0.333008 -32.001 1h-20c-40.667 0 -75.667 12 -105 36c-32 26 -48 59 -48 99c0 71.333 3.33301 111.666 10 120.999c10.667 14.667 50.667 24.667 120 30l-2 504c-0.666992 145.333 6.66602 301 21.999 467
c-10 -0.666992 -15.667 -1.66699 -17 -3c0.666992 -0.666992 1.66699 -1.33398 3 -2.00098c-3.33301 -0.666992 -9 -1 -17 -1c-38.667 0 -72.167 13.167 -100.5 39.5s-42.5 58.5 -42.5 96.5c0 54 12 91.833 36 113.5s63.333 32.5 118 32.5c12 0 29.833 -0.5 53.5 -1.5
s41.5 -1.5 53.5 -1.5c18 0 45.167 3.33301 81.5 10s63.833 10 82.5 10c138.667 0 208 -43.333 208 -130zM663.002 1839c0 -34 -16.333 -61.665 -49 -82.998c-28.667 -18 -61 -27 -97 -27c-39.333 0 -82.333 20.667 -129 62c-30.667 38.667 -61.334 74.667 -92.001 108
c-40.667 43.333 -61 72.666 -61 87.999c0 33.333 15.667 61.333 47 83.999c28.667 20 60.334 30 95.001 30c57.333 0 119.333 -29.5 186 -88.5s100 -116.833 100 -173.5z" />
    <glyph glyph-name="Iacute" unicode="&#xcd;" horiz-adv-x="623" 
d="M675 1384c0 -53.333 -7.66504 -88.666 -22.998 -105.999c-4.66699 -5.33301 -23.667 -13.5 -57 -24.5s-57.333 -25.5 -72 -43.5c-12 -147.333 -18 -303.666 -18 -468.999l1 -469c66.667 -8 106.667 -17.333 120 -28c22.667 -18 34 -59.667 34 -125
c0 -104 -110.333 -156 -331 -156h-58c1.33301 0 -9.33398 0.333008 -32.001 1h-20c-40.667 0 -75.667 12 -105 36c-32 26 -48 59 -48 99c0 71.333 3.33301 111.666 10 120.999c10.667 14.667 50.667 24.667 120 30l-2 504c-0.666992 145.333 6.66602 301 21.999 467
c-10 -0.666992 -15.667 -1.66699 -17 -3c0.666992 -0.666992 1.66699 -1.33398 3 -2.00098c-3.33301 -0.666992 -9 -1 -17 -1c-38.667 0 -72.167 13.167 -100.5 39.5s-42.5 58.5 -42.5 96.5c0 54 12 91.833 36 113.5s63.333 32.5 118 32.5c12 0 29.833 -0.5 53.5 -1.5
s41.5 -1.5 53.5 -1.5c18 0 45.167 3.33301 81.5 10s63.833 10 82.5 10c138.667 0 208 -43.333 208 -130zM645.002 1989c0 -11.333 -20 -40.668 -60 -88.001c-13.333 -18.667 -44.333 -54.667 -93 -108c-46.667 -41.333 -89.667 -62 -129 -62c-36 0 -68 9 -96 27
c-33.333 21.333 -50 49 -50 83c0 56.667 33.333 114.5 100 173.5s128.667 88.5 186 88.5c36.667 0 68.667 -9.66699 96 -29c30.667 -21.333 46 -49.666 46 -84.999z" />
    <glyph glyph-name="Icircumflex" unicode="&#xce;" horiz-adv-x="756" 
d="M683 1384c0 -53.333 -7.66504 -88.666 -22.998 -105.999c-4.66699 -5.33301 -23.667 -13.5 -57 -24.5s-57.333 -25.5 -72 -43.5c-12 -147.333 -18 -303.666 -18 -468.999l1 -469c66.667 -8 106.667 -17.333 120 -28c22.667 -18 34 -59.667 34 -125
c0 -104 -110.333 -156 -331 -156h-58c1.33301 0 -9.33398 0.333008 -32.001 1h-20c-40.667 0 -75.667 12 -105 36c-32 26 -48 59 -48 99c0 71.333 3.33301 111.666 10 120.999c10.667 14.667 50.667 24.667 120 30l-2 504c-0.666992 145.333 6.66602 301 21.999 467
c-10 -0.666992 -15.667 -1.66699 -17 -3c0.666992 -0.666992 1.66699 -1.33398 3 -2.00098c-3.33301 -0.666992 -9 -1 -17 -1c-38.667 0 -72.167 13.167 -100.5 39.5s-42.5 58.5 -42.5 96.5c0 54 12 91.833 36 113.5s63.333 32.5 118 32.5c12 0 29.833 -0.5 53.5 -1.5
s41.5 -1.5 53.5 -1.5c18 0 45.167 3.33301 81.5 10s63.833 10 82.5 10c138.667 0 208 -43.333 208 -130zM814.002 1742c0 -34.667 -16 -62.999 -48 -84.999c-28 -19.333 -60.333 -29 -97 -29c-37.333 0 -84.333 32 -141 96l-122 139c-2 -2 -36 -52 -102 -150
c-46.667 -69.333 -90 -104 -130 -104c-35.333 0 -67.333 10 -96 30c-31.333 22 -47 50 -47 84c0 29.333 38.333 93.666 115 192.999c68 88.667 119.333 148 154 178c29.333 26 63 39 101 39c56 0 138.833 -51.5 248.5 -154.5s164.5 -181.833 164.5 -236.5z" />
    <glyph glyph-name="Idieresis" unicode="&#xcf;" horiz-adv-x="981" 
d="M760 1384c0 -53.333 -7.66504 -88.666 -22.998 -105.999c-4.66699 -5.33301 -23.667 -13.5 -57 -24.5s-57.333 -25.5 -72 -43.5c-12 -147.333 -18 -303.666 -18 -468.999l1 -469c66.667 -8 106.667 -17.333 120 -28c22.667 -18 34 -59.667 34 -125
c0 -104 -110.333 -156 -331 -156h-58c1.33301 0 -9.33398 0.333008 -32.001 1h-20c-40.667 0 -75.667 12 -105 36c-32 26 -48 59 -48 99c0 71.333 3.33301 111.666 10 120.999c10.667 14.667 50.667 24.667 120 30l-2 504c-0.666992 145.333 6.66602 301 21.999 467
c-10 -0.666992 -15.667 -1.66699 -17 -3c0.666992 -0.666992 1.66699 -1.33398 3 -2.00098c-3.33301 -0.666992 -9 -1 -17 -1c-38.667 0 -72.167 13.167 -100.5 39.5s-42.5 58.5 -42.5 96.5c0 54 12 91.833 36 113.5s63.333 32.5 118 32.5c12 0 29.833 -0.5 53.5 -1.5
s41.5 -1.5 53.5 -1.5c18 0 45.167 3.33301 81.5 10s63.833 10 82.5 10c138.667 0 208 -43.333 208 -130zM974.002 1842c0 -44 -17.667 -80 -53 -108c-32.667 -25.333 -71.334 -38 -116.001 -38c-45.333 0 -84.333 12.667 -117 38c-35.333 28 -53 64 -53 108
c0 43.333 17.667 79 53 107c32.667 25.333 71.667 38 117 38c44.667 0 83.334 -12.667 116.001 -38c35.333 -28 53 -63.667 53 -107zM435.002 1842c0 -44 -17.667 -80 -53 -108c-32.667 -25.333 -71.334 -38 -116.001 -38c-45.333 0 -84.333 12.667 -117 38
c-35.333 28 -53 64 -53 108c0 43.333 17.667 79 53 107c32.667 25.333 71.667 38 117 38c44.667 0 83.334 -12.667 116.001 -38c35.333 -28 53 -63.667 53 -107z" />
    <glyph glyph-name="Eth" unicode="&#xd0;" horiz-adv-x="1622" 
d="M1560 723c0 -249.333 -45.332 -432.666 -135.999 -549.999c-104.667 -135.333 -281.667 -203 -531 -203c-31.333 0 -77.833 -2.16699 -139.5 -6.5s-108.167 -6.5 -139.5 -6.5c-89.333 0 -153 11 -191 33c-41.333 0.666992 -76.666 13 -105.999 37
c-31.333 25.333 -47 58.333 -47 99c0 39.333 1.66699 214.333 5 525h-33c-44.667 0 -84 8.66699 -118 26c-42 22 -63 53.333 -63 94c0 40 21 71.333 63 94c34.667 18 74 27 118 27h35l4 500c0.666992 44 20.167 82.333 58.5 115s79.833 49 124.5 49
c17.333 0 47.666 1.66699 90.999 5c38.667 2.66699 69 3.66699 91 3c217.333 -9.33301 387.666 -35 510.999 -77c182 -62.667 299.333 -167.667 352 -315c34 -96.667 51 -246.334 51 -449.001zM1251 636c0 27.333 -0.333984 55 -1.00098 83
c-4.66699 196 -32.667 333.667 -84 413c-74 114 -216 171 -426 171c-46 0 -96.333 -2.66699 -151 -8l-2 -396c74.667 1.33301 133.334 2 176.001 2c46 0 86 -8.33301 120 -25c44 -22 66 -53.667 66 -95c0 -72.667 -55.667 -112.667 -167 -120
c-50.667 -3.33301 -116 -5.66602 -196 -6.99902l-2 -434c23.333 -14 61.666 -21 114.999 -21c22 0 52.667 1.66699 92 5c42.667 3.33301 73.334 5.33301 92.001 6c148.667 3.33301 252 52.666 310 147.999c38.667 64 58 156.667 58 278z" />
    <glyph glyph-name="Ntilde" unicode="&#xd1;" horiz-adv-x="1399" 
d="M1418 551c0 -186 -11.6689 -339.002 -35.002 -459.002c-17.333 -86 -71 -129 -161 -129c-166 0 -373 227.667 -621 683l-195 365c0.666992 28.667 1 -229.666 1 -774.999c0 -196.667 -52.667 -295 -158 -295c-45.333 0 -84.666 12 -117.999 36c-36 26.667 -54 62 -54 106
l1 576c0 85.333 -1.83301 208.333 -5.5 369s-5.5 283.667 -5.5 369c0 44.667 20.333 82 61 112c37.333 28 79 42 125 42c88 0 242.333 -174.333 463 -523c67.333 -106 197.333 -328.667 390 -668l1 152c0.666992 106 -1.66602 256.667 -6.99902 452
c-5.33301 207.333 -8 357.666 -8 450.999c0 92 53.667 138 161 138c105.333 0 158 -140 158 -420v-60v-9c-0.666992 -6.66699 -1 -13 -1 -19v-15c0 -53.333 1.33301 -133.166 4 -239.499s4 -186.166 4 -239.499zM1309 1922c0 -71.333 -30.667 -134.166 -92 -188.499
s-128 -81.5 -200 -81.5c-92.667 0 -170 15.667 -232 47c-33.333 16.667 -71.333 46 -114 88c-32.667 31.333 -59 47 -79 47s-46.333 -24.167 -79 -72.5s-64 -72.5 -94 -72.5c-30.667 0 -58.667 7.66699 -84 23c-30 17.333 -45 40.333 -45 69
c0 71.333 33.333 130.666 100 177.999c60 42.667 127.333 64 202 64c76 0 139.333 -15.667 190 -47c14 -8.66699 47.333 -38 100 -88c33.333 -31.333 67 -47 101 -47c37.333 0 62 15 74 45c5.33301 14 14.333 42.333 27 85c17.333 30 50 45 98 45c32 0 60 -7.66699 84 -23
c28.667 -17.333 43 -41 43 -71z" />
    <glyph glyph-name="Ograve" unicode="&#xd2;" horiz-adv-x="1731" 
d="M1731 721c0 -162 -42.334 -313 -127.001 -453c-130.667 -214.667 -329 -324 -595 -328c-218 -3.33301 -412.333 50.667 -583 162c-182.667 118.667 -290.334 274.334 -323.001 467.001c-8.66699 52.667 -13 104 -13 154c0 167.333 48 323.666 144 468.999
c140.667 212.667 344.334 321 611.001 325c510.667 7.33301 801.334 -202.667 872.001 -630c9.33301 -58 14 -113.333 14 -166zM1416 754c0 42 -3.66602 85.001 -10.999 129.001c-24 144 -81 243.333 -171 298c-74.667 46 -189.667 67.667 -345 65
c-163.333 -2.66699 -291.333 -76.667 -384 -222c-66 -103.333 -99 -215 -99 -335c0 -36.667 3.33301 -75 10 -115c19.333 -120 86.666 -213 201.999 -279c100 -58 215.333 -86 346 -84c160.667 2 283 75.667 367 221c56.667 97.333 85 204.666 85 321.999zM1226 1862
c0 -34 -16.333 -61.666 -49 -82.999c-28.667 -18 -61 -27 -97 -27c-39.333 0 -82.333 20.667 -129 62c-30.667 38.667 -61.334 74.667 -92.001 108c-40.667 43.333 -61 72.666 -61 87.999c0 33.333 15.667 61.333 47 84c28.667 20 60.334 30 95.001 30
c57.333 0 119.333 -29.5 186 -88.5s100 -116.833 100 -173.5z" />
    <glyph glyph-name="Oacute" unicode="&#xd3;" horiz-adv-x="1731" 
d="M1731 721c0 -162 -42.334 -313 -127.001 -453c-130.667 -214.667 -329 -324 -595 -328c-218 -3.33301 -412.333 50.667 -583 162c-182.667 118.667 -290.334 274.334 -323.001 467.001c-8.66699 52.667 -13 104 -13 154c0 167.333 48 323.666 144 468.999
c140.667 212.667 344.334 321 611.001 325c510.667 7.33301 801.334 -202.667 872.001 -630c9.33301 -58 14 -113.333 14 -166zM1416 754c0 42 -3.66602 85.001 -10.999 129.001c-24 144 -81 243.333 -171 298c-74.667 46 -189.667 67.667 -345 65
c-163.333 -2.66699 -291.333 -76.667 -384 -222c-66 -103.333 -99 -215 -99 -335c0 -36.667 3.33301 -75 10 -115c19.333 -120 86.666 -213 201.999 -279c100 -58 215.333 -86 346 -84c160.667 2 283 75.667 367 221c56.667 97.333 85 204.666 85 321.999zM1226 1996
c0 -11.333 -20 -40.668 -60 -88.001c-13.333 -18.667 -44.333 -54.667 -93 -108c-46.667 -41.333 -89.667 -62 -129 -62c-36 0 -68 9 -96 27c-33.333 21.333 -50 49 -50 83c0 56.667 33.333 114.5 100 173.5s128.667 88.5 186 88.5c36.667 0 68.667 -9.66699 96 -29
c30.667 -21.333 46 -49.666 46 -84.999z" />
    <glyph glyph-name="Ocircumflex" unicode="&#xd4;" horiz-adv-x="1731" 
d="M1731 721c0 -162 -42.334 -313 -127.001 -453c-130.667 -214.667 -329 -324 -595 -328c-218 -3.33301 -412.333 50.667 -583 162c-182.667 118.667 -290.334 274.334 -323.001 467.001c-8.66699 52.667 -13 104 -13 154c0 167.333 48 323.666 144 468.999
c140.667 212.667 344.334 321 611.001 325c510.667 7.33301 801.334 -202.667 872.001 -630c9.33301 -58 14 -113.333 14 -166zM1416 754c0 42 -3.66602 85.001 -10.999 129.001c-24 144 -81 243.333 -171 298c-74.667 46 -189.667 67.667 -345 65
c-163.333 -2.66699 -291.333 -76.667 -384 -222c-66 -103.333 -99 -215 -99 -335c0 -36.667 3.33301 -75 10 -115c19.333 -120 86.666 -213 201.999 -279c100 -58 215.333 -86 346 -84c160.667 2 283 75.667 367 221c56.667 97.333 85 204.666 85 321.999zM1301 1697
c0 -34.667 -16 -62.999 -48 -84.999c-28 -19.333 -60.333 -29 -97 -29c-37.333 0 -84.333 32 -141 96l-122 139c-2 -2 -36 -52 -102 -150c-46.667 -69.333 -90 -104 -130 -104c-35.333 0 -67.333 10 -96 30c-31.333 22 -47 50 -47 84c0 29.333 38.333 93.666 115 192.999
c68 88.667 119.333 148 154 178c29.333 26 63 39 101 39c56 0 138.833 -51.5 248.5 -154.5s164.5 -181.833 164.5 -236.5z" />
    <glyph glyph-name="Otilde" unicode="&#xd5;" horiz-adv-x="1731" 
d="M1731 721c0 -162 -42.334 -313 -127.001 -453c-130.667 -214.667 -329 -324 -595 -328c-218 -3.33301 -412.333 50.667 -583 162c-182.667 118.667 -290.334 274.334 -323.001 467.001c-8.66699 52.667 -13 104 -13 154c0 167.333 48 323.666 144 468.999
c140.667 212.667 344.334 321 611.001 325c510.667 7.33301 801.334 -202.667 872.001 -630c9.33301 -58 14 -113.333 14 -166zM1416 754c0 42 -3.66602 85.001 -10.999 129.001c-24 144 -81 243.333 -171 298c-74.667 46 -189.667 67.667 -345 65
c-163.333 -2.66699 -291.333 -76.667 -384 -222c-66 -103.333 -99 -215 -99 -335c0 -36.667 3.33301 -75 10 -115c19.333 -120 86.666 -213 201.999 -279c100 -58 215.333 -86 346 -84c160.667 2 283 75.667 367 221c56.667 97.333 85 204.666 85 321.999zM1502 1906
c0 -71.333 -30.667 -134.166 -92 -188.499s-128 -81.5 -200 -81.5c-92.667 0 -170 15.667 -232 47c-33.333 16.667 -71.333 46 -114 88c-32.667 31.333 -59 47 -79 47s-46.333 -24.167 -79 -72.5s-64 -72.5 -94 -72.5c-30.667 0 -58.667 7.66699 -84 23
c-30 17.333 -45 40.333 -45 69c0 71.333 33.333 130.666 100 177.999c60 42.667 127.333 64 202 64c76 0 139.333 -15.667 190 -47c14 -8.66699 47.333 -38 100 -88c33.333 -31.333 67 -47 101 -47c37.333 0 62 15 74 45c5.33301 14 14.333 42.333 27 85
c17.333 30 50 45 98 45c32 0 60 -7.66699 84 -23c28.667 -17.333 43 -41 43 -71z" />
    <glyph glyph-name="Odieresis" unicode="&#xd6;" horiz-adv-x="1731" 
d="M1731 721c0 -162 -42.334 -313 -127.001 -453c-130.667 -214.667 -329 -324 -595 -328c-218 -3.33301 -412.333 50.667 -583 162c-182.667 118.667 -290.334 274.334 -323.001 467.001c-8.66699 52.667 -13 104 -13 154c0 167.333 48 323.666 144 468.999
c140.667 212.667 344.334 321 611.001 325c510.667 7.33301 801.334 -202.667 872.001 -630c9.33301 -58 14 -113.333 14 -166zM1416 754c0 42 -3.66602 85.001 -10.999 129.001c-24 144 -81 243.333 -171 298c-74.667 46 -189.667 67.667 -345 65
c-163.333 -2.66699 -291.333 -76.667 -384 -222c-66 -103.333 -99 -215 -99 -335c0 -36.667 3.33301 -75 10 -115c19.333 -120 86.666 -213 201.999 -279c100 -58 215.333 -86 346 -84c160.667 2 283 75.667 367 221c56.667 97.333 85 204.666 85 321.999zM1353 1848
c0 -44 -17.667 -80 -53 -108c-32.667 -25.333 -71.334 -38 -116.001 -38c-45.333 0 -84.333 12.667 -117 38c-35.333 28 -53 64 -53 108c0 43.333 17.667 79 53 107c32.667 25.333 71.667 38 117 38c44.667 0 83.334 -12.667 116.001 -38c35.333 -28 53 -63.667 53 -107z
M814 1848c0 -44 -17.667 -80 -53 -108c-32.667 -25.333 -71.334 -38 -116.001 -38c-45.333 0 -84.333 12.667 -117 38c-35.333 28 -53 64 -53 108c0 43.333 17.667 79 53 107c32.667 25.333 71.667 38 117 38c44.667 0 83.334 -12.667 116.001 -38
c35.333 -28 53 -63.667 53 -107z" />
    <glyph glyph-name="multiply" unicode="&#xd7;" horiz-adv-x="1020" 
d="M916 1003c28.667 -26 43.001 -51.9961 43.001 -77.9961c0 -28 -36.333 -75.333 -109 -142l-154 -142l103 -94c13.333 -10.667 36.666 -30.667 69.999 -60c51.333 -46 77 -89.667 77 -131c0 -30 -14.667 -58.667 -44 -86c-23.333 -21.333 -50.333 -32 -81 -32
c-64 0 -141 42 -231 126l-93 89c-33.333 -33.333 -87.333 -84 -162 -152c-59.333 -54 -116.666 -81 -171.999 -81c-26.667 0 -50.334 8.33301 -71.001 25s-31 38.334 -31 65.001c0 54.667 49.333 126.667 148 216l59 53l45 40l-148 132c-62.667 55.333 -94 106 -94 152
c0 33.333 15.167 63.166 45.5 89.499s62.166 39.166 95.499 38.499c36.667 -0.666992 71.334 -16.667 104.001 -48c10.667 -10.667 31.334 -30.334 62.001 -59.001l133 -120c14 11.333 44.667 39.333 92 84l60 56c65.333 61.333 123.666 91.666 174.999 90.999
c28.667 -0.666992 54.667 -11.334 78 -32.001z" />
    <glyph glyph-name="Oslash" unicode="&#xd8;" horiz-adv-x="1763" 
d="M514 348l177 300.001c156.667 254 264.667 451 324 591c-49.333 5.33301 -101 7.66602 -155 6.99902c-163.333 -2.66699 -291.333 -76.667 -384 -222c-66 -103.333 -99 -215 -99 -335c0 -36 3.33301 -74.333 10 -115c14.667 -90 57 -165.333 127 -226zM1270 1131
c-72 -155.333 -138.333 -283.002 -199 -383.002l-240 -397c-8 -13.333 -30 -54.666 -66 -123.999c54 -11.333 110.667 -16.666 170 -15.999c160 2 282.333 75.667 367 221c56.667 97.333 85 204.666 85 321.999c0 40.667 -3.66699 83.667 -11 129
c-18 108.667 -53.333 191.334 -106 248.001zM1421 1484c0 -24 -3.66797 -43.332 -11.001 -57.999l-21 -42c162 -104 261.667 -269.667 299 -497c9.33301 -58 14 -113.333 14 -166c0 -162 -42.333 -313 -127 -453c-130.667 -214.667 -329 -324 -595 -328
c-121.333 -2 -234.333 13.667 -339 47l-9 -18c-26 -52.667 -69 -79 -129 -79c-37.333 0 -70.333 10.667 -99 32c-31.333 23.333 -47 53 -47 89c0 18 10.667 50 32 96c-178 118 -283 272 -315 462c-8.66699 52.667 -13 104 -13 154c0 167.333 48 323.666 144 468.999
c140.667 212.667 344.334 321 611.001 325c118.667 2 224.667 -7.66699 318 -29c50 80 97.333 119.333 142 118c37.333 -1.33301 70 -12.333 98 -33c31.333 -23.333 47 -53 47 -89z" />
    <glyph glyph-name="Ugrave" unicode="&#xd9;" horiz-adv-x="1442" 
d="M1447 1012c0 -696 -206.668 -1049.67 -620.001 -1061c-258.667 -7.33301 -446 69.334 -562 230.001c-91.333 126.667 -143.333 316 -156 568l-19 364c-1.33301 28.667 -2 53 -2 73c0 222.667 48.333 335.334 145 338.001c127.333 3.33301 191 -153.334 191 -470.001
c0 -20 -1.66699 -69.333 -5 -148c-2 -61.333 -2 -110.666 0 -147.999c10.667 -189.333 30.334 -314 59.001 -374c52.667 -112 156.667 -166 312 -162c137.333 4 233.333 66.333 288 187c40.667 89.333 61 224.666 61 405.999c0 40 -1.33301 100 -4 180s-4 140 -4 180
c0 230.667 51 347.334 153 350.001c40 1.33301 74.167 -9.83398 102.5 -33.501s43.5 -55.167 45.5 -94.5c10 -164.667 15 -293 15 -385zM982.999 1856c0 -34 -16.333 -61.666 -49 -82.999c-28.667 -18 -61 -27 -97 -27c-39.333 0 -82.333 20.667 -129 62
c-30.667 38.667 -61.334 74.667 -92.001 108c-40.667 43.333 -61 72.666 -61 87.999c0 33.333 15.667 61.333 47 84c28.667 20 60.334 30 95.001 30c57.333 0 119.333 -29.5 186 -88.5s100 -116.833 100 -173.5z" />
    <glyph glyph-name="Uacute" unicode="&#xda;" horiz-adv-x="1442" 
d="M1447 1012c0 -696 -206.668 -1049.67 -620.001 -1061c-258.667 -7.33301 -446 69.334 -562 230.001c-91.333 126.667 -143.333 316 -156 568l-19 364c-1.33301 28.667 -2 53 -2 73c0 222.667 48.333 335.334 145 338.001c127.333 3.33301 191 -153.334 191 -470.001
c0 -20 -1.66699 -69.333 -5 -148c-2 -61.333 -2 -110.666 0 -147.999c10.667 -189.333 30.334 -314 59.001 -374c52.667 -112 156.667 -166 312 -162c137.333 4 233.333 66.333 288 187c40.667 89.333 61 224.666 61 405.999c0 40 -1.33301 100 -4 180s-4 140 -4 180
c0 230.667 51 347.334 153 350.001c40 1.33301 74.167 -9.83398 102.5 -33.501s43.5 -55.167 45.5 -94.5c10 -164.667 15 -293 15 -385zM990.999 2004c0 -11.333 -20 -40.668 -60 -88.001c-13.333 -18.667 -44.333 -54.667 -93 -108c-46.667 -41.333 -89.667 -62 -129 -62
c-36 0 -68 9 -96 27c-33.333 21.333 -50 49 -50 83c0 56.667 33.333 114.5 100 173.5s128.667 88.5 186 88.5c36.667 0 68.667 -9.66699 96 -29c30.667 -21.333 46 -49.666 46 -84.999z" />
    <glyph glyph-name="Ucircumflex" unicode="&#xdb;" horiz-adv-x="1442" 
d="M1447 1012c0 -696 -206.668 -1049.67 -620.001 -1061c-258.667 -7.33301 -446 69.334 -562 230.001c-91.333 126.667 -143.333 316 -156 568l-19 364c-1.33301 28.667 -2 53 -2 73c0 222.667 48.333 335.334 145 338.001c127.333 3.33301 191 -153.334 191 -470.001
c0 -20 -1.66699 -69.333 -5 -148c-2 -61.333 -2 -110.666 0 -147.999c10.667 -189.333 30.334 -314 59.001 -374c52.667 -112 156.667 -166 312 -162c137.333 4 233.333 66.333 288 187c40.667 89.333 61 224.666 61 405.999c0 40 -1.33301 100 -4 180s-4 140 -4 180
c0 230.667 51 347.334 153 350.001c40 1.33301 74.167 -9.83398 102.5 -33.501s43.5 -55.167 45.5 -94.5c10 -164.667 15 -293 15 -385zM1098 1712c0 -34.667 -16 -62.999 -48 -84.999c-28 -19.333 -60.333 -29 -97 -29c-37.333 0 -84.333 32 -141 96l-122 139
c-2 -2 -36 -52 -102 -150c-46.667 -69.333 -90 -104 -130 -104c-35.333 0 -67.333 10 -96 30c-31.333 22 -47 50 -47 84c0 29.333 38.333 93.666 115 192.999c68 88.667 119.333 148 154 178c29.333 26 63 39 101 39c56 0 138.833 -51.5 248.5 -154.5
s164.5 -181.833 164.5 -236.5z" />
    <glyph glyph-name="Udieresis" unicode="&#xdc;" horiz-adv-x="1442" 
d="M1447 1012c0 -696 -206.668 -1049.67 -620.001 -1061c-258.667 -7.33301 -446 69.334 -562 230.001c-91.333 126.667 -143.333 316 -156 568l-19 364c-1.33301 28.667 -2 53 -2 73c0 222.667 48.333 335.334 145 338.001c127.333 3.33301 191 -153.334 191 -470.001
c0 -20 -1.66699 -69.333 -5 -148c-2 -61.333 -2 -110.666 0 -147.999c10.667 -189.333 30.334 -314 59.001 -374c52.667 -112 156.667 -166 312 -162c137.333 4 233.333 66.333 288 187c40.667 89.333 61 224.666 61 405.999c0 40 -1.33301 100 -4 180s-4 140 -4 180
c0 230.667 51 347.334 153 350.001c40 1.33301 74.167 -9.83398 102.5 -33.501s43.5 -55.167 45.5 -94.5c10 -164.667 15 -293 15 -385zM1164 1826c0 -44 -17.667 -80 -53 -108c-32.667 -25.333 -71.334 -38 -116.001 -38c-45.333 0 -84.333 12.667 -117 38
c-35.333 28 -53 64 -53 108c0 43.333 17.667 79 53 107c32.667 25.333 71.667 38 117 38c44.667 0 83.334 -12.667 116.001 -38c35.333 -28 53 -63.667 53 -107zM624.999 1826c0 -44 -17.667 -80 -53 -108c-32.667 -25.333 -71.334 -38 -116.001 -38
c-45.333 0 -84.333 12.667 -117 38c-35.333 28 -53 64 -53 108c0 43.333 17.667 79 53 107c32.667 25.333 71.667 38 117 38c44.667 0 83.334 -12.667 116.001 -38c35.333 -28 53 -63.667 53 -107z" />
    <glyph glyph-name="Yacute" unicode="&#xdd;" horiz-adv-x="1556" 
d="M1571 1384c0 -31.333 -13.668 -60.9971 -41.001 -88.9971c-100 -104 -174.667 -188 -224 -252c-16.667 -22 -123 -145 -319 -369l-8 -106c-7.33301 -100.667 -11 -175 -11 -223c0 -11.333 1.66699 -72.333 5 -183c0 -6.66699 0.5 -18.334 1.5 -35.001
s1.5 -29.334 1.5 -38.001c0 -40.667 -15.333 -73.667 -46 -99c-28.667 -22.667 -64 -34 -106 -34s-77 11.333 -105 34c-31.333 25.333 -47 58.333 -47 99c0 12.667 -0.333008 25 -1 37l-2 36l-4 183c-1.33301 39.333 2.33398 113.666 11.001 222.999l2 29
c-5.33301 2 -8 5.33301 -8 10c0 5.33301 3.33301 12.333 10 21c1.33301 16 2.33301 31.667 3 47l-280 320c-12.667 14 -54.334 62.667 -125.001 146l-123 114c-53.333 52 -80 94.667 -80 128c0 40.667 16.333 74.334 49 101.001c30 24.667 65.667 37 107 37
c40 0 92.333 -25.333 157 -76c48.667 -38.667 87.334 -76 116.001 -112c51.333 -64.667 97.333 -119 138 -163l203 -221l276 332c134.667 160 232 240 292 240c42 0 78.333 -12 109 -36c32.667 -26.667 49 -60.334 49 -101.001zM972.999 658.003l-10 -11.001
c4 4.66699 7.33301 8.33398 10 11.001zM1064 2088c0 -11.333 -20 -40.667 -60 -88c-13.333 -18.667 -44.333 -54.667 -93 -108c-46.667 -41.333 -89.667 -62 -129 -62c-36 0 -68 9 -96 27c-33.333 21.333 -50 49 -50 83c0 56.667 33.333 114.5 100 173.5
s128.667 88.5 186 88.5c36.667 0 68.667 -9.66699 96 -29c30.667 -21.333 46 -49.666 46 -85z" />
    <glyph glyph-name="Thorn" unicode="&#xde;" horiz-adv-x="1183" 
d="M1122 749c0 -207.333 -49.667 -340.668 -149 -400.001c-71.333 -42.667 -224.666 -64 -459.999 -64c-14.667 0 -36.334 -3.66699 -65.001 -11s-50.334 -11 -65.001 -11c-15.333 0 -28.666 3 -39.999 9c-4.66699 -34.667 -7 -106 -7 -214c0 -72 -38 -108 -114 -108
c-50 0 -90.333 21.333 -121 64c-26.667 38 -40 83 -40 135c0 31.333 1.66699 94.666 5 189.999c2 76 3 139.333 3 190l-3 920c0 36.667 15 67.334 45 92.001c28 22.667 61 34 99 34c70.667 0 106 -76.333 106 -229c0 -31.333 -1 -65.666 -3 -102.999l-4 -75c2 4 3 8 3 12
c0 17.333 -19 33.333 -57 48l-57 22c0 4.66699 96.333 8.66699 289 12c215.333 4 371 -27.667 467 -95c112 -78 168 -217.333 168 -418zM833 748.998c0 118 -24.666 191.002 -73.999 219.002c-24 13.333 -105.667 25 -245 35c-36.667 2.66699 -64.667 4 -84 4
c-60.667 0 -91 -16 -91 -48c0 -6.66699 0.666992 -16.334 2 -29.001s2 -22.334 2 -29.001v-335c44 -28 87.333 -42 130 -42c21.333 0 53.666 3.16699 96.999 9.5s76 9.5 98 9.5c110 0 165 68.667 165 206z" />
    <glyph glyph-name="germandbls" unicode="&#xdf;" horiz-adv-x="1317" 
d="M365 99c0 -126.667 -50.665 -189.998 -151.998 -189.998c-42.667 0 -78 12 -106 36c-30.667 24.667 -46 58 -46 100v973c0 42.667 18.333 104.334 55 185.001c49.333 108 111.333 177.333 186 208c22.667 13.333 48.667 26.666 78 39.999c110 50 199.667 75 269 75
c155.333 0 282.666 -28 381.999 -84c123.333 -70 185 -177.333 185 -322c0 -146.667 -62.333 -250 -187 -310c151.333 -76.667 227 -199.334 227 -368.001c0 -148 -59.333 -268.333 -178 -361c-109.333 -84.667 -240 -127 -392 -127c-37.333 0 -73.5 16.167 -108.5 48.5
s-52.5 66.833 -52.5 103.5c0 60 53.667 95.333 161 106c63.333 0 120.666 16.333 171.999 49c60 38 90 86.667 90 146c0 166 -123 260 -369 282c-107.333 9.33301 -161 50.333 -161 123c0 55.333 41.667 95.666 125 120.999l236 49c98.667 20.667 149 66 151 136
c3.33301 99.333 -82 149 -256 149c-48 0 -110.667 -19.667 -188 -59c-34 -17.333 -74.333 -79 -121 -185v-924z" />
    <glyph glyph-name="agrave" unicode="&#xe0;" 
d="M1232 100c0.666992 -37.333 -14.001 -68.333 -44.001 -93c-28 -22 -61.333 -33 -100 -33c-25.333 0 -48.333 15.333 -69 46c-18.667 27.333 -28.667 54.333 -30 81c-18.667 -38 -60.667 -71.333 -126 -100c-60 -26 -115.667 -39 -167 -39
c-168.667 0 -310.667 50 -426 150c-121.333 105.333 -182 241.333 -182 408c0 165.333 53 299.833 159 403.5s242 155.5 408 155.5c91.333 0 191 -27 299 -81c10.667 94 47.667 141 111 141c50 0 90 -21.333 120 -64c26.667 -37.333 40.334 -82.333 41.001 -135z
M954.999 368v334.998c-124.667 80 -224.667 120 -300 120c-86 0 -154.667 -29.667 -206 -89c-48.667 -56 -73 -127.333 -73 -214c0 -91.333 31 -164.666 93 -219.999c59.333 -54 135 -81 227 -81c42.667 0 92 15 148 45c60 32.667 97 67.334 111 104.001zM900.999 1394
c0 -34 -16.333 -61.666 -49 -82.999c-28.667 -18 -61 -27 -97 -27c-39.333 0 -82.333 20.667 -129 62c-30.667 38.667 -61.334 74.667 -92.001 108c-40.667 43.333 -61 72.666 -61 87.999c0 33.333 15.667 61.333 47 84c28.667 20 60.334 30 95.001 30
c57.333 0 119.333 -29.5 186 -88.5s100 -116.833 100 -173.5z" />
    <glyph glyph-name="aacute" unicode="&#xe1;" 
d="M1232 100c0.666992 -37.333 -14.001 -68.333 -44.001 -93c-28 -22 -61.333 -33 -100 -33c-25.333 0 -48.333 15.333 -69 46c-18.667 27.333 -28.667 54.333 -30 81c-18.667 -38 -60.667 -71.333 -126 -100c-60 -26 -115.667 -39 -167 -39
c-168.667 0 -310.667 50 -426 150c-121.333 105.333 -182 241.333 -182 408c0 165.333 53 299.833 159 403.5s242 155.5 408 155.5c91.333 0 191 -27 299 -81c10.667 94 47.667 141 111 141c50 0 90 -21.333 120 -64c26.667 -37.333 40.334 -82.333 41.001 -135z
M954.999 368v334.998c-124.667 80 -224.667 120 -300 120c-86 0 -154.667 -29.667 -206 -89c-48.667 -56 -73 -127.333 -73 -214c0 -91.333 31 -164.666 93 -219.999c59.333 -54 135 -81 227 -81c42.667 0 92 15 148 45c60 32.667 97 67.334 111 104.001zM930.999 1547
c0 -11.333 -20 -40.668 -60 -88.001c-13.333 -18.667 -44.333 -54.667 -93 -108c-46.667 -41.333 -89.667 -62 -129 -62c-36 0 -68 9 -96 27c-33.333 21.333 -50 49 -50 83c0 56.667 33.333 114.5 100 173.5s128.667 88.5 186 88.5c36.667 0 68.667 -9.66699 96 -29
c30.667 -21.333 46 -49.666 46 -84.999z" />
    <glyph glyph-name="acircumflex" unicode="&#xe2;" 
d="M1234 100c0.666992 -37.333 -14.001 -68.333 -44.001 -93c-28 -22 -61.333 -33 -100 -33c-25.333 0 -48.333 15.333 -69 46c-18.667 27.333 -28.667 54.333 -30 81c-18.667 -38 -60.667 -71.333 -126 -100c-60 -26 -115.667 -39 -167 -39
c-168.667 0 -310.667 50 -426 150c-121.333 105.333 -182 241.333 -182 408c0 165.333 53 299.833 159 403.5s242 155.5 408 155.5c91.333 0 191 -27 299 -81c10.667 94 47.667 141 111 141c50 0 90 -21.333 120 -64c26.667 -37.333 40.334 -82.333 41.001 -135z
M956.999 368v334.998c-124.667 80 -224.667 120 -300 120c-86 0 -154.667 -29.667 -206 -89c-48.667 -56 -73 -127.333 -73 -214c0 -91.333 31 -164.666 93 -219.999c59.333 -54 135 -81 227 -81c42.667 0 92 15 148 45c60 32.667 97 67.334 111 104.001zM1065 1312
c0 -34.667 -16 -62.999 -48 -84.999c-28 -19.333 -60.333 -29 -97 -29c-37.333 0 -84.333 32 -141 96l-122 139c-2 -2 -36 -52 -102 -150c-46.667 -69.333 -90 -104 -130 -104c-35.333 0 -67.333 10 -96 30c-31.333 22 -47 50 -47 84c0 29.333 38.333 93.666 115 192.999
c68 88.667 119.333 148 154 178c29.333 26 63 39 101 39c56 0 138.833 -51.5 248.5 -154.5s164.5 -181.833 164.5 -236.5z" />
    <glyph glyph-name="atilde" unicode="&#xe3;" 
d="M1232 100c0.666992 -37.333 -14.001 -68.333 -44.001 -93c-28 -22 -61.333 -33 -100 -33c-25.333 0 -48.333 15.333 -69 46c-18.667 27.333 -28.667 54.333 -30 81c-18.667 -38 -60.667 -71.333 -126 -100c-60 -26 -115.667 -39 -167 -39
c-168.667 0 -310.667 50 -426 150c-121.333 105.333 -182 241.333 -182 408c0 165.333 53 299.833 159 403.5s242 155.5 408 155.5c91.333 0 191 -27 299 -81c10.667 94 47.667 141 111 141c50 0 90 -21.333 120 -64c26.667 -37.333 40.334 -82.333 41.001 -135z
M954.999 368v334.998c-124.667 80 -224.667 120 -300 120c-86 0 -154.667 -29.667 -206 -89c-48.667 -56 -73 -127.333 -73 -214c0 -91.333 31 -164.666 93 -219.999c59.333 -54 135 -81 227 -81c42.667 0 92 15 148 45c60 32.667 97 67.334 111 104.001zM1199 1484
c0 -71.333 -30.667 -134.166 -92 -188.499s-128 -81.5 -200 -81.5c-92.667 0 -170 15.667 -232 47c-33.333 16.667 -71.333 46 -114 88c-32.667 31.333 -59 47 -79 47s-46.333 -24.167 -79 -72.5s-64 -72.5 -94 -72.5c-30.667 0 -58.667 7.66699 -84 23
c-30 17.333 -45 40.333 -45 69c0 71.333 33.333 130.666 100 177.999c60 42.667 127.333 64 202 64c76 0 139.333 -15.667 190 -47c14 -8.66699 47.333 -38 100 -88c33.333 -31.333 67 -47 101 -47c37.333 0 62 15 74 45c5.33301 14 14.333 42.333 27 85
c17.333 30 50 45 98 45c32 0 60 -7.66699 84 -23c28.667 -17.333 43 -41 43 -71z" />
    <glyph glyph-name="adieresis" unicode="&#xe4;" 
d="M1232 100c0.666992 -37.333 -14.001 -68.333 -44.001 -93c-28 -22 -61.333 -33 -100 -33c-25.333 0 -48.333 15.333 -69 46c-18.667 27.333 -28.667 54.333 -30 81c-18.667 -38 -60.667 -71.333 -126 -100c-60 -26 -115.667 -39 -167 -39
c-168.667 0 -310.667 50 -426 150c-121.333 105.333 -182 241.333 -182 408c0 165.333 53 299.833 159 403.5s242 155.5 408 155.5c91.333 0 191 -27 299 -81c10.667 94 47.667 141 111 141c50 0 90 -21.333 120 -64c26.667 -37.333 40.334 -82.333 41.001 -135z
M954.999 368v334.998c-124.667 80 -224.667 120 -300 120c-86 0 -154.667 -29.667 -206 -89c-48.667 -56 -73 -127.333 -73 -214c0 -91.333 31 -164.666 93 -219.999c59.333 -54 135 -81 227 -81c42.667 0 92 15 148 45c60 32.667 97 67.334 111 104.001zM1121 1373
c0 -44 -17.667 -80 -53 -108c-32.667 -25.333 -71.334 -38 -116.001 -38c-45.333 0 -84.333 12.667 -117 38c-35.333 28 -53 64 -53 108c0 43.333 17.667 79 53 107c32.667 25.333 71.667 38 117 38c44.667 0 83.334 -12.667 116.001 -38c35.333 -28 53 -63.667 53 -107z
M581.999 1373c0 -44 -17.667 -80 -53 -108c-32.667 -25.333 -71.334 -38 -116.001 -38c-45.333 0 -84.333 12.667 -117 38c-35.333 28 -53 64 -53 108c0 43.333 17.667 79 53 107c32.667 25.333 71.667 38 117 38c44.667 0 83.334 -12.667 116.001 -38
c35.333 -28 53 -63.667 53 -107z" />
    <glyph glyph-name="aring" unicode="&#xe5;" 
d="M1232 100c0.666992 -37.333 -14.001 -68.333 -44.001 -93c-28 -22 -61.333 -33 -100 -33c-25.333 0 -48.333 15.333 -69 46c-18.667 27.333 -28.667 54.333 -30 81c-18.667 -38 -60.667 -71.333 -126 -100c-60 -26 -115.667 -39 -167 -39
c-168.667 0 -310.667 50 -426 150c-121.333 105.333 -182 241.333 -182 408c0 165.333 53 299.833 159 403.5s242 155.5 408 155.5c91.333 0 191 -27 299 -81c10.667 94 47.667 141 111 141c50 0 90 -21.333 120 -64c26.667 -37.333 40.334 -82.333 41.001 -135z
M954.999 368v334.998c-124.667 80 -224.667 120 -300 120c-86 0 -154.667 -29.667 -206 -89c-48.667 -56 -73 -127.333 -73 -214c0 -91.333 31 -164.666 93 -219.999c59.333 -54 135 -81 227 -81c42.667 0 92 15 148 45c60 32.667 97 67.334 111 104.001zM944.999 1486
c0 -93.333 -27.5 -165.167 -82.5 -215.5s-129.5 -75.5 -223.5 -75.5c-77.333 0 -142 23.333 -194 70c-54 48 -81 110.333 -81 187c0 92 29 164.667 87 218c56 52 130.333 78 223 78c78 0 142.667 -24.333 194 -73s77 -111.667 77 -189zM745.999 1486
c0 44.667 -31.333 67.001 -94 67.001c-38 0 -64.167 -7.16699 -78.5 -21.5s-21.5 -40.5 -21.5 -78.5c0 -20.667 10.333 -37.334 31 -50.001c18 -11.333 37.667 -17 59 -17c69.333 0 104 33.333 104 100z" />
    <glyph glyph-name="ae" unicode="&#xe6;" horiz-adv-x="2131" 
d="M928 368v334.998c-124.667 80 -224.667 120 -300 120c-86 0 -154.667 -29.667 -206 -89c-48.667 -56 -73 -127.333 -73 -214c0 -91.333 31 -164.666 93 -219.999c59.333 -54 135 -81 227 -81c42.667 0 92 15 148 45c60 32.667 97 67.334 111 104.001zM2070 234.998
c0 -81.333 -65.6709 -145.333 -197.004 -192c-101.333 -36 -206 -54 -314 -54c-141.333 0 -261.333 24 -360 72c-6.66699 -19.333 -18.667 -36.333 -36 -51c-28 -24 -62 -36 -102 -36c-25.333 0 -48.333 15.333 -69 46c-18.667 27.333 -28.667 54.333 -30 81
c-18.667 -38 -60.667 -71.333 -126 -100c-60 -26 -115.667 -39 -167 -39c-168.667 0 -310.667 50 -426 150c-121.333 105.333 -182 241.333 -182 408c0 165.333 53 299.833 159 403.5s242 155.5 408 155.5c91.333 0 191 -27 299 -81c10.667 94 47.667 141 111 141
c51.333 0 92 -22.333 122 -67c18.667 -27.333 30.334 -57 35.001 -89c92.667 64.667 204.334 97 335.001 97c106.667 0 211.667 -30 315 -90c116 -67.333 174 -147.333 174 -240c0 -14.667 -1.66699 -30 -5 -46c-22 -97.333 -62.667 -165.333 -122 -204
c-53.333 -34 -136.666 -53.333 -249.999 -58l-410 -16c-3.33301 -59.333 36.334 -108.333 119.001 -147c67.333 -31.333 136.666 -47 207.999 -47c48.667 0 119.334 17.333 212.001 52s154 52 184 52c76.667 0 115 -33.667 115 -101zM1745 673.998
c-3.33301 64.667 -17.666 108.333 -42.999 131c-30 27.333 -87.333 41.666 -172 42.999c-144.667 2.66699 -242 -66.666 -292 -207.999c30.667 0 76 -2.83301 136 -8.5s105.333 -8.5 136 -8.5c99.333 0 177.666 17 234.999 51z" />
    <glyph glyph-name="ccedilla" unicode="&#xe7;" horiz-adv-x="1162" 
d="M992 -227c-4 -86 -32.0029 -161.668 -84.0029 -227.001c-58.667 -74 -132.667 -111 -222 -111c-66.667 0 -134 12.667 -202 38c-83.333 31.333 -125 73.333 -125 126c0 54.667 39.667 82 119 82c22 0 54.333 -7.16699 97 -21.5s75.334 -21.5 98.001 -21.5
c16 0 31 15.667 45 47c12 28 18 50.667 18 68c0 36.667 -24.333 58.667 -73 66c-12.667 2 -59.334 7 -140.001 15c-51.333 10.667 -79 35.667 -83 75c-1.33301 16 -2 33.667 -2 53v0c-74.667 20.667 -141.667 54 -201 100c-111.333 86.667 -169.666 202.667 -174.999 348
c-16 435.333 172 653 564 653c80 0 170.667 -19 272 -57c121.333 -45.333 182 -98 182 -158c0 -36 -14.167 -66.333 -42.5 -91s-60.833 -37 -97.5 -37c-5.33301 0 -48 15.5 -128 46.5s-142 46.5 -186 46.5c-190 0 -285 -103.333 -285 -310c0 -29.333 2.33301 -60.333 7 -93
c20 -148 117.667 -222 293 -222c36 0 93.833 17 173.5 51s126.834 51 141.501 51c38 0 71 -11.667 99 -35c30 -25.333 45 -56.333 45 -93c0 -53.333 -62.333 -105.666 -187 -156.999c-18.667 -8 -32 -13.333 -40 -16c10.667 -4.66699 17.334 -7.66699 20.001 -9
c70 -42.667 103 -111.667 99 -207z" />
    <glyph glyph-name="egrave" unicode="&#xe8;" horiz-adv-x="1212" 
d="M1213 200c0 -81.333 -65.332 -145.333 -195.999 -192c-101.333 -36 -206 -54 -314 -54c-169.333 0 -309 35 -419 105c-130.667 82.667 -196 204 -196 364c0 171.333 49.667 315 149 431c108.667 127.333 254 191 436 191c107.333 0 212.666 -30 315.999 -90
c116 -67.333 174 -147.333 174 -240c0 -14.667 -2 -30 -6 -46c-22 -97.333 -62.667 -165.333 -122 -204c-52.667 -34 -135.667 -53.333 -249 -58l-411 -16c-2.66699 -59.333 37.333 -108.333 120 -147c67.333 -31.333 136.666 -47 207.999 -47
c48.667 0 119.334 17.333 212.001 52s154 52 184 52c76 0 114 -33.667 114 -101zM889.001 639c-4 64.667 -18.332 108.333 -42.999 131c-30 27.333 -87.667 41.666 -173 42.999c-144 2.66699 -241 -66.666 -291 -207.999c30 0 75.167 -2.83301 135.5 -8.5
s105.833 -8.5 136.5 -8.5c99.333 0 177.666 17 234.999 51zM843.002 1399c0 -34 -16.333 -61.666 -49 -82.999c-28.667 -18 -61 -27 -97 -27c-39.333 0 -82.333 20.667 -129 62c-30.667 38.667 -61.334 74.667 -92.001 108c-40.667 43.333 -61 72.666 -61 87.999
c0 33.333 15.667 61.333 47 84c28.667 20 60.334 30 95.001 30c57.333 0 119.333 -29.5 186 -88.5s100 -116.833 100 -173.5z" />
    <glyph glyph-name="eacute" unicode="&#xe9;" horiz-adv-x="1212" 
d="M1213 200c0 -81.333 -65.332 -145.333 -195.999 -192c-101.333 -36 -206 -54 -314 -54c-169.333 0 -309 35 -419 105c-130.667 82.667 -196 204 -196 364c0 171.333 49.667 315 149 431c108.667 127.333 254 191 436 191c107.333 0 212.666 -30 315.999 -90
c116 -67.333 174 -147.333 174 -240c0 -14.667 -2 -30 -6 -46c-22 -97.333 -62.667 -165.333 -122 -204c-52.667 -34 -135.667 -53.333 -249 -58l-411 -16c-2.66699 -59.333 37.333 -108.333 120 -147c67.333 -31.333 136.666 -47 207.999 -47
c48.667 0 119.334 17.333 212.001 52s154 52 184 52c76 0 114 -33.667 114 -101zM889.001 639c-4 64.667 -18.332 108.333 -42.999 131c-30 27.333 -87.667 41.666 -173 42.999c-144 2.66699 -241 -66.666 -291 -207.999c30 0 75.167 -2.83301 135.5 -8.5
s105.833 -8.5 136.5 -8.5c99.333 0 177.666 17 234.999 51zM888.002 1547c0 -11.333 -20 -40.668 -60 -88.001c-13.333 -18.667 -44.333 -54.667 -93 -108c-46.667 -41.333 -89.667 -62 -129 -62c-36 0 -68 9 -96 27c-33.333 21.333 -50 49 -50 83
c0 56.667 33.333 114.5 100 173.5s128.667 88.5 186 88.5c36.667 0 68.667 -9.66699 96 -29c30.667 -21.333 46 -49.666 46 -84.999z" />
    <glyph glyph-name="ecircumflex" unicode="&#xea;" horiz-adv-x="1212" 
d="M1217 200c0 -81.333 -65.332 -145.333 -195.999 -192c-101.333 -36 -206 -54 -314 -54c-169.333 0 -309 35 -419 105c-130.667 82.667 -196 204 -196 364c0 171.333 49.667 315 149 431c108.667 127.333 254 191 436 191c107.333 0 212.666 -30 315.999 -90
c116 -67.333 174 -147.333 174 -240c0 -14.667 -2 -30 -6 -46c-22 -97.333 -62.667 -165.333 -122 -204c-52.667 -34 -135.667 -53.333 -249 -58l-411 -16c-2.66699 -59.333 37.333 -108.333 120 -147c67.333 -31.333 136.666 -47 207.999 -47
c48.667 0 119.334 17.333 212.001 52s154 52 184 52c76 0 114 -33.667 114 -101zM893.001 639c-4 64.667 -18.332 108.333 -42.999 131c-30 27.333 -87.667 41.666 -173 42.999c-144 2.66699 -241 -66.666 -291 -207.999c30 0 75.167 -2.83301 135.5 -8.5
s105.833 -8.5 136.5 -8.5c99.333 0 177.666 17 234.999 51zM1051 1304c0 -34.667 -16 -62.999 -48 -84.999c-28 -19.333 -60.333 -29 -97 -29c-37.333 0 -84.333 32 -141 96l-122 139c-2 -2 -36 -52 -102 -150c-46.667 -69.333 -90 -104 -130 -104
c-35.333 0 -67.333 10 -96 30c-31.333 22 -47 50 -47 84c0 29.333 38.333 93.666 115 192.999c68 88.667 119.333 148 154 178c29.333 26 63 39 101 39c56 0 138.833 -51.5 248.5 -154.5s164.5 -181.833 164.5 -236.5z" />
    <glyph glyph-name="edieresis" unicode="&#xeb;" horiz-adv-x="1212" 
d="M1213 200c0 -81.333 -65.332 -145.333 -195.999 -192c-101.333 -36 -206 -54 -314 -54c-169.333 0 -309 35 -419 105c-130.667 82.667 -196 204 -196 364c0 171.333 49.667 315 149 431c108.667 127.333 254 191 436 191c107.333 0 212.666 -30 315.999 -90
c116 -67.333 174 -147.333 174 -240c0 -14.667 -2 -30 -6 -46c-22 -97.333 -62.667 -165.333 -122 -204c-52.667 -34 -135.667 -53.333 -249 -58l-411 -16c-2.66699 -59.333 37.333 -108.333 120 -147c67.333 -31.333 136.666 -47 207.999 -47
c48.667 0 119.334 17.333 212.001 52s154 52 184 52c76 0 114 -33.667 114 -101zM889.001 639c-4 64.667 -18.332 108.333 -42.999 131c-30 27.333 -87.667 41.666 -173 42.999c-144 2.66699 -241 -66.666 -291 -207.999c30 0 75.167 -2.83301 135.5 -8.5
s105.833 -8.5 136.5 -8.5c99.333 0 177.666 17 234.999 51zM1017 1469c0 -44 -17.667 -80 -53 -108c-32.667 -25.333 -71.334 -38 -116.001 -38c-45.333 0 -84.333 12.667 -117 38c-35.333 28 -53 64 -53 108c0 43.333 17.667 79 53 107c32.667 25.333 71.667 38 117 38
c44.667 0 83.334 -12.667 116.001 -38c35.333 -28 53 -63.667 53 -107zM478.002 1469c0 -44 -17.667 -80 -53 -108c-32.667 -25.333 -71.334 -38 -116.001 -38c-45.333 0 -84.333 12.667 -117 38c-35.333 28 -53 64 -53 108c0 43.333 17.667 79 53 107
c32.667 25.333 71.667 38 117 38c44.667 0 83.334 -12.667 116.001 -38c35.333 -28 53 -63.667 53 -107z" />
    <glyph glyph-name="igrave" unicode="&#xec;" horiz-adv-x="469" 
d="M416 915l-0.000976562 -446c0 -61.333 -0.333008 -122.333 -1 -183l-3 -182c0 -42 -14.5 -74.833 -43.5 -98.5s-64.833 -35.5 -107.5 -35.5c-106 0 -159 92 -159 276c0 24.667 1.66699 62 5 112c3.33301 47.333 5 84.333 5 111l-1 286c0 145.333 14.833 230.5 44.5 255.5
s65.834 37.5 108.501 37.5c42 0 77 -11.333 105 -34c31.333 -25.333 47 -58.333 47 -99zM483.999 1399c0 -34 -16.333 -61.666 -49 -82.999c-28.667 -18 -61 -27 -97 -27c-39.333 0 -82.333 20.667 -129 62c-30.667 38.667 -61.334 74.667 -92.001 108
c-40.667 43.333 -61 72.666 -61 87.999c0 33.333 15.667 61.333 47 84c28.667 20 60.334 30 95.001 30c57.333 0 119.333 -29.5 186 -88.5s100 -116.833 100 -173.5z" />
    <glyph glyph-name="iacute" unicode="&#xed;" horiz-adv-x="461" 
d="M398 915l-0.000976562 -446c0 -61.333 -0.333008 -122.333 -1 -183l-3 -182c0 -42 -14.5 -74.833 -43.5 -98.5s-64.833 -35.5 -107.5 -35.5c-106 0 -159 92 -159 276c0 24.667 1.66699 62 5 112c3.33301 47.333 5 84.333 5 111l-1 286c0 145.333 14.833 230.5 44.5 255.5
s65.834 37.5 108.501 37.5c42 0 77 -11.333 105 -34c31.333 -25.333 47 -58.333 47 -99zM483.999 1547c0 -11.333 -20 -40.668 -60 -88.001c-13.333 -18.667 -44.333 -54.667 -93 -108c-46.667 -41.333 -89.667 -62 -129 -62c-36 0 -68 9 -96 27
c-33.333 21.333 -50 49 -50 83c0 56.667 33.333 114.5 100 173.5s128.667 88.5 186 88.5c36.667 0 68.667 -9.66699 96 -29c30.667 -21.333 46 -49.666 46 -84.999z" />
    <glyph glyph-name="icircumflex" unicode="&#xee;" horiz-adv-x="621" 
d="M500 915l-0.000976562 -446c0 -61.333 -0.333008 -122.333 -1 -183l-3 -182c0 -42 -14.5 -74.833 -43.5 -98.5s-64.833 -35.5 -107.5 -35.5c-106 0 -159 92 -159 276c0 24.667 1.66699 62 5 112c3.33301 47.333 5 84.333 5 111l-1 286c0 145.333 14.833 230.5 44.5 255.5
s65.834 37.5 108.501 37.5c42 0 77 -11.333 105 -34c31.333 -25.333 47 -58.333 47 -99zM748.999 1306c0 -34.667 -16 -62.999 -48 -84.999c-28 -19.333 -60.333 -29 -97 -29c-37.333 0 -84.333 32 -141 96l-122 139c-2 -2 -36 -52 -102 -150
c-46.667 -69.333 -90 -104 -130 -104c-35.333 0 -67.333 10 -96 30c-31.333 22 -47 50 -47 84c0 29.333 38.333 93.666 115 192.999c68 88.667 119.333 148 154 178c29.333 26 63 39 101 39c56 0 138.833 -51.5 248.5 -154.5s164.5 -181.833 164.5 -236.5z" />
    <glyph glyph-name="idieresis" unicode="&#xef;" horiz-adv-x="981" 
d="M742 915l-0.000976562 -446c0 -61.333 -0.333008 -122.333 -1 -183l-3 -182c0 -42 -14.5 -74.833 -43.5 -98.5s-64.833 -35.5 -107.5 -35.5c-106 0 -159 92 -159 276c0 24.667 1.66699 62 5 112c3.33301 47.333 5 84.333 5 111l-1 286c0 145.333 14.833 230.5 44.5 255.5
s65.834 37.5 108.501 37.5c42 0 77 -11.333 105 -34c31.333 -25.333 47 -58.333 47 -99zM973.999 1373c0 -44 -17.667 -80 -53 -108c-32.667 -25.333 -71.334 -38 -116.001 -38c-45.333 0 -84.333 12.667 -117 38c-35.333 28 -53 64 -53 108c0 43.333 17.667 79 53 107
c32.667 25.333 71.667 38 117 38c44.667 0 83.334 -12.667 116.001 -38c35.333 -28 53 -63.667 53 -107zM434.999 1373c0 -44 -17.667 -80 -53 -108c-32.667 -25.333 -71.334 -38 -116.001 -38c-45.333 0 -84.333 12.667 -117 38c-35.333 28 -53 64 -53 108
c0 43.333 17.667 79 53 107c32.667 25.333 71.667 38 117 38c44.667 0 83.334 -12.667 116.001 -38c35.333 -28 53 -63.667 53 -107z" />
    <glyph glyph-name="eth" unicode="&#xf0;" horiz-adv-x="1329" 
d="M957 445l-53.999 245c-142.667 82 -251.667 123.667 -327 125c-88 1.33301 -150.667 -29 -188 -91c-22 -36.667 -33 -78.667 -33 -126c0 -24.667 3.33301 -52 10 -82c20 -90 66 -163.167 138 -219.5s154.667 -85.166 248 -86.499
c43.333 -0.666992 90.333 14.666 141 45.999c23.333 14.667 39.666 45.667 48.999 93c2 8 7.33301 40 16 96zM1265 1265c2 -10 3.00195 -18.665 3.00195 -25.998c0 -56 -48 -86.333 -144 -91l-51 -2l97 -429c30.667 -136.667 46 -250.667 46 -342c0 -106 -18 -186 -54 -240
c-25.333 -38.667 -52 -58 -80 -58c-6.66699 0 -10.334 1.66699 -11.001 5c-10.667 -39.333 -46.334 -72.666 -107.001 -99.999c-54 -24 -105.667 -35.667 -155 -35c-170.667 2.66699 -325 56 -463 160c-142.667 107.333 -232 243 -268 407
c-11.333 49.333 -17 94.666 -17 135.999c0 98 27.333 183 82 255c82 109.333 208 162.666 378 159.999c92 -1.33301 198 -30.333 318 -87l-36 165l-217 3c-46 0.666992 -88 10.334 -126 29.001c-44.667 22 -71.667 53 -81 93c-2 8 -3 15.333 -3 22c0 34 19 59.667 57 77
c29.333 14 62.666 20.667 99.999 20c64 -1.33301 136 -1.33301 216 0l-7 20c-10.667 33.333 -16 59.666 -16 78.999c0 49.333 31.667 73.666 95 72.999c51.333 -0.666992 97 -23.667 137 -69c26.667 -31.333 46.334 -65.333 59.001 -102h35
c47.333 0 90.333 -9.33301 129 -28c46.667 -22 74.667 -53.667 84 -95z" />
    <glyph glyph-name="ntilde" unicode="&#xf1;" horiz-adv-x="1100" 
d="M1118 89c0 -40 -16 -72.0029 -48 -96.0029c-28.667 -22.667 -63.667 -34 -105 -34c-115.333 0 -173 126.333 -173 379c0 42.667 3.33301 107 10 193s10 150.333 10 193c0 55.333 -15.667 83 -47 83c-212 0 -329 -65.333 -351 -196
c-6.66699 -39.333 -10 -95.666 -10 -168.999c0 -54.667 1.33301 -121.667 4 -201l4 -159c1.33301 -40 -14.334 -72.667 -47.001 -98c-29.333 -22.667 -64.666 -34 -105.999 -34c-75.333 0 -124.333 36 -147 108c-12 36.667 -18 101 -18 193c0 79.333 3.83301 198 11.5 356
s11.5 276.667 11.5 356c0 40 16.333 72 49 96c29.333 22 64.333 33 105 33c93.333 0 145 -56 155 -168c107.333 98 220.333 147 339 147c161.333 0 264.333 -72.333 309 -217c20 -64 30 -195.333 30 -394c0 -41.333 2.33301 -103.166 7 -185.499s7 -144.166 7 -185.499z
M1088 1502c0 -71.333 -30.667 -134.166 -92 -188.499s-128 -81.5 -200 -81.5c-92.667 0 -170 15.667 -232 47c-33.333 16.667 -71.333 46 -114 88c-32.667 31.333 -59 47 -79 47s-46.333 -24.167 -79 -72.5s-64 -72.5 -94 -72.5c-30.667 0 -58.667 7.66699 -84 23
c-30 17.333 -45 40.333 -45 69c0 71.333 33.333 130.666 100 177.999c60 42.667 127.333 64 202 64c76 0 139.333 -15.667 190 -47c14 -8.66699 47.333 -38 100 -88c33.333 -31.333 67 -47 101 -47c37.333 0 62 15 74 45c5.33301 14 14.333 42.333 27 85
c17.333 30 50 45 98 45c32 0 60 -7.66699 84 -23c28.667 -17.333 43 -41 43 -71z" />
    <glyph glyph-name="ograve" unicode="&#xf2;" horiz-adv-x="1139" 
d="M1147 470c0 -126 -34.333 -237 -103 -333c-91.333 -126.667 -222.666 -193 -393.999 -199c-134.667 -4.66699 -255 33.333 -361 114c-116.667 88.667 -184.334 210.334 -203.001 365.001c-3.33301 24 -5 50.333 -5 79c0 117.333 33.667 224 101 320
c98 139.333 247 213 447 221c147.333 6 269 -42.667 365 -146c86.667 -92.667 136.667 -210.334 150 -353.001c2 -24 3 -46.667 3 -68zM856 457c-10 215.333 -82.335 320.668 -217.002 316.001c-90 -2.66699 -157.667 -42.667 -203 -120c-32 -55.333 -48 -116.333 -48 -183
c0 -14 0.666992 -28 2 -42c6.66699 -66.667 30.334 -121.334 71.001 -164.001c44 -44.667 99 -65.667 165 -63c71.333 3.33301 128.333 28.833 171 76.5s62.334 107.5 59.001 179.5zM756.998 1399c0 -34 -16.333 -61.666 -49 -82.999c-28.667 -18 -61 -27 -97 -27
c-39.333 0 -82.333 20.667 -129 62c-30.667 38.667 -61.334 74.667 -92.001 108c-40.667 43.333 -61 72.666 -61 87.999c0 33.333 15.667 61.333 47 84c28.667 20 60.334 30 95.001 30c57.333 0 119.333 -29.5 186 -88.5s100 -116.833 100 -173.5z" />
    <glyph glyph-name="oacute" unicode="&#xf3;" horiz-adv-x="1139" 
d="M1147 470c0 -126 -34.333 -237 -103 -333c-91.333 -126.667 -222.666 -193 -393.999 -199c-134.667 -4.66699 -255 33.333 -361 114c-116.667 88.667 -184.334 210.334 -203.001 365.001c-3.33301 24 -5 50.333 -5 79c0 117.333 33.667 224 101 320
c98 139.333 247 213 447 221c147.333 6 269 -42.667 365 -146c86.667 -92.667 136.667 -210.334 150 -353.001c2 -24 3 -46.667 3 -68zM856 457c-10 215.333 -82.335 320.668 -217.002 316.001c-90 -2.66699 -157.667 -42.667 -203 -120c-32 -55.333 -48 -116.333 -48 -183
c0 -14 0.666992 -28 2 -42c6.66699 -66.667 30.334 -121.334 71.001 -164.001c44 -44.667 99 -65.667 165 -63c71.333 3.33301 128.333 28.833 171 76.5s62.334 107.5 59.001 179.5zM832.998 1547c0 -11.333 -20 -40.668 -60 -88.001
c-13.333 -18.667 -44.333 -54.667 -93 -108c-46.667 -41.333 -89.667 -62 -129 -62c-36 0 -68 9 -96 27c-33.333 21.333 -50 49 -50 83c0 56.667 33.333 114.5 100 173.5s128.667 88.5 186 88.5c36.667 0 68.667 -9.66699 96 -29c30.667 -21.333 46 -49.666 46 -84.999z" />
    <glyph glyph-name="ocircumflex" unicode="&#xf4;" horiz-adv-x="1139" 
d="M1162 470c0 -126 -34.333 -237 -103 -333c-91.333 -126.667 -222.666 -193 -393.999 -199c-134.667 -4.66699 -255 33.333 -361 114c-116.667 88.667 -184.334 210.334 -203.001 365.001c-3.33301 24 -5 50.333 -5 79c0 117.333 33.667 224 101 320
c98 139.333 247 213 447 221c147.333 6 269 -42.667 365 -146c86.667 -92.667 136.667 -210.334 150 -353.001c2 -24 3 -46.667 3 -68zM871 457c-10 215.333 -82.335 320.668 -217.002 316.001c-90 -2.66699 -157.667 -42.667 -203 -120c-32 -55.333 -48 -116.333 -48 -183
c0 -14 0.666992 -28 2 -42c6.66699 -66.667 30.334 -121.334 71.001 -164.001c44 -44.667 99 -65.667 165 -63c71.333 3.33301 128.333 28.833 171 76.5s62.334 107.5 59.001 179.5zM1047 1304c0 -34.667 -16 -62.999 -48 -84.999c-28 -19.333 -60.333 -29 -97 -29
c-37.333 0 -84.333 32 -141 96l-122 139c-2 -2 -36 -52 -102 -150c-46.667 -69.333 -90 -104 -130 -104c-35.333 0 -67.333 10 -96 30c-31.333 22 -47 50 -47 84c0 29.333 38.333 93.666 115 192.999c68 88.667 119.333 148 154 178c29.333 26 63 39 101 39
c56 0 138.833 -51.5 248.5 -154.5s164.5 -181.833 164.5 -236.5z" />
    <glyph glyph-name="otilde" unicode="&#xf5;" horiz-adv-x="1139" 
d="M1152 470c0 -126 -34.333 -237 -103 -333c-91.333 -126.667 -222.666 -193 -393.999 -199c-134.667 -4.66699 -255 33.333 -361 114c-116.667 88.667 -184.334 210.334 -203.001 365.001c-3.33301 24 -5 50.333 -5 79c0 117.333 33.667 224 101 320
c98 139.333 247 213 447 221c147.333 6 269 -42.667 365 -146c86.667 -92.667 136.667 -210.334 150 -353.001c2 -24 3 -46.667 3 -68zM861 457c-10 215.333 -82.335 320.668 -217.002 316.001c-90 -2.66699 -157.667 -42.667 -203 -120c-32 -55.333 -48 -116.333 -48 -183
c0 -14 0.666992 -28 2 -42c6.66699 -66.667 30.334 -121.334 71.001 -164.001c44 -44.667 99 -65.667 165 -63c71.333 3.33301 128.333 28.833 171 76.5s62.334 107.5 59.001 179.5zM1094 1494c0 -71.333 -30.667 -134.166 -92 -188.499s-128 -81.5 -200 -81.5
c-92.667 0 -170 15.667 -232 47c-33.333 16.667 -71.333 46 -114 88c-32.667 31.333 -59 47 -79 47s-46.333 -24.167 -79 -72.5s-64 -72.5 -94 -72.5c-30.667 0 -58.667 7.66699 -84 23c-30 17.333 -45 40.333 -45 69c0 71.333 33.333 130.666 100 177.999
c60 42.667 127.333 64 202 64c76 0 139.333 -15.667 190 -47c14 -8.66699 47.333 -38 100 -88c33.333 -31.333 67 -47 101 -47c37.333 0 62 15 74 45c5.33301 14 14.333 42.333 27 85c17.333 30 50 45 98 45c32 0 60 -7.66699 84 -23c28.667 -17.333 43 -41 43 -71z" />
    <glyph glyph-name="odieresis" unicode="&#xf6;" horiz-adv-x="1149" 
d="M1154 470c0 -126 -34.333 -237 -103 -333c-91.333 -126.667 -222.666 -193 -393.999 -199c-134.667 -4.66699 -255 33.333 -361 114c-116.667 88.667 -184.334 210.334 -203.001 365.001c-3.33301 24 -5 50.333 -5 79c0 117.333 33.667 224 101 320
c98 139.333 247 213 447 221c147.333 6 269 -42.667 365 -146c86.667 -92.667 136.667 -210.334 150 -353.001c2 -24 3 -46.667 3 -68zM863 457c-10 215.333 -82.335 320.668 -217.002 316.001c-90 -2.66699 -157.667 -42.667 -203 -120c-32 -55.333 -48 -116.333 -48 -183
c0 -14 0.666992 -28 2 -42c6.66699 -66.667 30.334 -121.334 71.001 -164.001c44 -44.667 99 -65.667 165 -63c71.333 3.33301 128.333 28.833 171 76.5s62.334 107.5 59.001 179.5zM983.998 1373c0 -44 -17.667 -80 -53 -108c-32.667 -25.333 -71.334 -38 -116.001 -38
c-45.333 0 -84.333 12.667 -117 38c-35.333 28 -53 64 -53 108c0 43.333 17.667 79 53 107c32.667 25.333 71.667 38 117 38c44.667 0 83.334 -12.667 116.001 -38c35.333 -28 53 -63.667 53 -107zM444.998 1373c0 -44 -17.667 -80 -53 -108
c-32.667 -25.333 -71.334 -38 -116.001 -38c-45.333 0 -84.333 12.667 -117 38c-35.333 28 -53 64 -53 108c0 43.333 17.667 79 53 107c32.667 25.333 71.667 38 117 38c44.667 0 83.334 -12.667 116.001 -38c35.333 -28 53 -63.667 53 -107z" />
    <glyph glyph-name="divide" unicode="&#xf7;" horiz-adv-x="1098" 
d="M1037 571c0 -72.667 -55.667 -112.667 -167 -120c-101.333 -6.66699 -310.666 -10 -627.999 -10c-44.667 0 -84 8.66699 -118 26c-42 22 -63 53.333 -63 94c0 40 21 71.333 63 94c34.667 18 74 27 118 27c67.333 0 168.666 1.5 303.999 4.5s237 4.5 305 4.5
c46 0 86 -8.33301 120 -25c44 -22 66 -53.667 66 -95zM735 943c0 -44 -17.335 -80 -52.002 -108c-32.667 -25.333 -71.667 -38 -117 -38s-84.333 12.667 -117 38c-34.667 28 -52 64 -52 108c0 43.333 17.667 79 53 107c32.667 25.333 71.334 38 116.001 38
s83.334 -12.667 116.001 -38c35.333 -28 53 -63.667 53 -107zM734.998 216c0 -44 -17.335 -80 -52.002 -108c-32.667 -25.333 -71.667 -38 -117 -38s-84.333 12.667 -117 38c-34.667 28 -52 64 -52 108c0 43.333 17.667 79 53 107c32.667 25.333 71.334 38 116.001 38
s83.334 -12.667 116.001 -38c35.333 -28 53 -63.667 53 -107z" />
    <glyph glyph-name="oslash" unicode="&#xf8;" horiz-adv-x="1188" 
d="M379 376l108 178l135 219h-3c-88.667 0 -155.667 -39.333 -201 -118c-33.333 -56 -50 -118 -50 -186c0 -37.333 3.66699 -68.333 11 -93zM821 579l-194 -322.001l-31 -56h10c70.667 0 127.667 25.333 171 76c42 48.667 61.667 108.667 59 180
c-2 42.667 -7 83.334 -15 122.001zM1062 1076c0 -23.333 -3.66602 -42.666 -10.999 -57.999c-10.667 -18 -34.334 -62.333 -71.001 -133c82.667 -92 130.667 -207.667 144 -347c2 -23.333 3 -46 3 -68c0 -126 -34.333 -237 -103 -333
c-91.333 -126.667 -222.666 -193 -393.999 -199c-56.667 -2 -110.667 3.66699 -162 17l-41 -80c-26.667 -52.667 -69.334 -79 -128.001 -79c-38 0 -71 10.667 -99 32c-32 23.333 -48 53 -48 89c0 15.333 3.33301 30.666 10 45.999c16.667 37.333 37 80.333 61 129
c-88.667 84 -141 192.333 -157 325c-3.33301 24 -5 50.333 -5 79c0 117.333 33.667 224 101 320c98 139.333 247 213 447 221c47.333 2 92 -1.66699 134 -11c70 116 128 173.333 174 172c37.333 -1.33301 70 -12.333 98 -33c31.333 -23.333 47 -53 47 -89z" />
    <glyph glyph-name="ugrave" unicode="&#xf9;" horiz-adv-x="1118" 
d="M1125 942c0 -40.667 -3.49805 -101.332 -10.498 -181.999s-10.5 -141.334 -10.5 -182.001c0 -74 1.33301 -162.333 4 -265c4 -128 6 -216 6 -264c0 -39.333 -16.333 -71 -49 -95c-30 -22.667 -65 -34 -105 -34c-29.333 0 -56 21.667 -80 65l-54 100
c-14.667 -37.333 -56.334 -70.333 -125.001 -99c-60.667 -25.333 -116 -38 -166 -38c-204 0 -336.667 77.667 -398 233c-34 85.333 -51 243.666 -51 474.999c0 115.333 6.66699 199.666 20 252.999c26 104.667 80 157 162 157c41.333 0 76.666 -11 105.999 -33
c32 -23.333 48 -55.333 48 -96c0 -31.333 -5.33301 -78.166 -16 -140.499s-16 -109.166 -16 -140.499c0 -188.667 14 -329 42 -421c40 -15.333 74.333 -23 103 -23c57.333 0 102 5.66699 134 17c49.333 17.333 94 52.333 134 105l-3 253c0 13.333 -0.666992 37.333 -2 72
c-0.666992 30 -1 54 -1 72c0 219.333 58 329 174 329c37.333 0 71.333 -10 102 -30c34.667 -22.667 52 -52 52 -88zM720.002 1407c0 -34 -16.333 -61.666 -49 -82.999c-28.667 -18 -61 -27 -97 -27c-39.333 0 -82.333 20.667 -129 62
c-30.667 38.667 -61.334 74.667 -92.001 108c-40.667 43.333 -61 72.666 -61 87.999c0 33.333 15.667 61.333 47 84c28.667 20 60.334 30 95.001 30c57.333 0 119.333 -29.5 186 -88.5s100 -116.833 100 -173.5z" />
    <glyph glyph-name="uacute" unicode="&#xfa;" horiz-adv-x="1118" 
d="M1125 942c0 -40.667 -3.49805 -101.332 -10.498 -181.999s-10.5 -141.334 -10.5 -182.001c0 -74 1.33301 -162.333 4 -265c4 -128 6 -216 6 -264c0 -39.333 -16.333 -71 -49 -95c-30 -22.667 -65 -34 -105 -34c-29.333 0 -56 21.667 -80 65l-54 100
c-14.667 -37.333 -56.334 -70.333 -125.001 -99c-60.667 -25.333 -116 -38 -166 -38c-204 0 -336.667 77.667 -398 233c-34 85.333 -51 243.666 -51 474.999c0 115.333 6.66699 199.666 20 252.999c26 104.667 80 157 162 157c41.333 0 76.666 -11 105.999 -33
c32 -23.333 48 -55.333 48 -96c0 -31.333 -5.33301 -78.166 -16 -140.499s-16 -109.166 -16 -140.499c0 -188.667 14 -329 42 -421c40 -15.333 74.333 -23 103 -23c57.333 0 102 5.66699 134 17c49.333 17.333 94 52.333 134 105l-3 253c0 13.333 -0.666992 37.333 -2 72
c-0.666992 30 -1 54 -1 72c0 219.333 58 329 174 329c37.333 0 71.333 -10 102 -30c34.667 -22.667 52 -52 52 -88zM782.002 1547c0 -11.333 -20 -40.668 -60 -88.001c-13.333 -18.667 -44.333 -54.667 -93 -108c-46.667 -41.333 -89.667 -62 -129 -62c-36 0 -68 9 -96 27
c-33.333 21.333 -50 49 -50 83c0 56.667 33.333 114.5 100 173.5s128.667 88.5 186 88.5c36.667 0 68.667 -9.66699 96 -29c30.667 -21.333 46 -49.666 46 -84.999z" />
    <glyph glyph-name="ucircumflex" unicode="&#xfb;" horiz-adv-x="1118" 
d="M1135 942c0 -40.667 -3.49805 -101.332 -10.498 -181.999s-10.5 -141.334 -10.5 -182.001c0 -74 1.33301 -162.333 4 -265c4 -128 6 -216 6 -264c0 -39.333 -16.333 -71 -49 -95c-30 -22.667 -65 -34 -105 -34c-29.333 0 -56 21.667 -80 65l-54 100
c-14.667 -37.333 -56.334 -70.333 -125.001 -99c-60.667 -25.333 -116 -38 -166 -38c-204 0 -336.667 77.667 -398 233c-34 85.333 -51 243.666 -51 474.999c0 115.333 6.66699 199.666 20 252.999c26 104.667 80 157 162 157c41.333 0 76.666 -11 105.999 -33
c32 -23.333 48 -55.333 48 -96c0 -31.333 -5.33301 -78.166 -16 -140.499s-16 -109.166 -16 -140.499c0 -188.667 14 -329 42 -421c40 -15.333 74.333 -23 103 -23c57.333 0 102 5.66699 134 17c49.333 17.333 94 52.333 134 105l-3 253c0 13.333 -0.666992 37.333 -2 72
c-0.666992 30 -1 54 -1 72c0 219.333 58 329 174 329c37.333 0 71.333 -10 102 -30c34.667 -22.667 52 -52 52 -88zM858.002 1304c0 -34.667 -16 -62.999 -48 -84.999c-28 -19.333 -60.333 -29 -97 -29c-37.333 0 -84.333 32 -141 96l-122 139c-2 -2 -36 -52 -102 -150
c-46.667 -69.333 -90 -104 -130 -104c-35.333 0 -67.333 10 -96 30c-31.333 22 -47 50 -47 84c0 29.333 38.333 93.666 115 192.999c68 88.667 119.333 148 154 178c29.333 26 63 39 101 39c56 0 138.833 -51.5 248.5 -154.5s164.5 -181.833 164.5 -236.5z" />
    <glyph glyph-name="udieresis" unicode="&#xfc;" horiz-adv-x="1143" 
d="M1137 942c0 -40.667 -3.49805 -101.332 -10.498 -181.999s-10.5 -141.334 -10.5 -182.001c0 -74 1.33301 -162.333 4 -265c4 -128 6 -216 6 -264c0 -39.333 -16.333 -71 -49 -95c-30 -22.667 -65 -34 -105 -34c-29.333 0 -56 21.667 -80 65l-54 100
c-14.667 -37.333 -56.334 -70.333 -125.001 -99c-60.667 -25.333 -116 -38 -166 -38c-204 0 -336.667 77.667 -398 233c-34 85.333 -51 243.666 -51 474.999c0 115.333 6.66699 199.666 20 252.999c26 104.667 80 157 162 157c41.333 0 76.666 -11 105.999 -33
c32 -23.333 48 -55.333 48 -96c0 -31.333 -5.33301 -78.166 -16 -140.499s-16 -109.166 -16 -140.499c0 -188.667 14 -329 42 -421c40 -15.333 74.333 -23 103 -23c57.333 0 102 5.66699 134 17c49.333 17.333 94 52.333 134 105l-3 253c0 13.333 -0.666992 37.333 -2 72
c-0.666992 30 -1 54 -1 72c0 219.333 58 329 174 329c37.333 0 71.333 -10 102 -30c34.667 -22.667 52 -52 52 -88zM974.002 1373c0 -44 -17.667 -80 -53 -108c-32.667 -25.333 -71.334 -38 -116.001 -38c-45.333 0 -84.333 12.667 -117 38c-35.333 28 -53 64 -53 108
c0 43.333 17.667 79 53 107c32.667 25.333 71.667 38 117 38c44.667 0 83.334 -12.667 116.001 -38c35.333 -28 53 -63.667 53 -107zM435.002 1373c0 -44 -17.667 -80 -53 -108c-32.667 -25.333 -71.334 -38 -116.001 -38c-45.333 0 -84.333 12.667 -117 38
c-35.333 28 -53 64 -53 108c0 43.333 17.667 79 53 107c32.667 25.333 71.667 38 117 38c44.667 0 83.334 -12.667 116.001 -38c35.333 -28 53 -63.667 53 -107z" />
    <glyph glyph-name="yacute" unicode="&#xfd;" horiz-adv-x="1128" 
d="M1136 921l-31.001 -588.001c0.666992 9.33301 1 -43.667 1 -159c0 -14 1.33301 -34.833 4 -62.5s4 -48.5 4 -62.5c0 -30.667 -10 -57 -30 -79c-2 -32 -7.66699 -84.667 -17 -158c-11.333 -97.333 -55 -187 -131 -269c-84 -91.333 -181.333 -138.333 -292 -141
c-110 -2.66699 -211 14 -303 50c-118.667 46.667 -197.334 120.334 -236.001 221.001c-8 21.333 -11 42 -9 62c4.66699 40 25 73 61 99c32.667 24 70 36.333 112 37c46.667 1.33301 85.334 -20.667 116.001 -66c10.667 -30.667 32.334 -73.334 65.001 -128.001
c22.667 -24.667 52.334 -37 89.001 -37c16 0 39.167 5.33301 69.5 16s52.833 16 67.5 16c39.333 0.666992 68.666 48 87.999 142c2 10.667 6.33301 66 13 166c-78.667 -21.333 -159.334 -32 -242.001 -32c-101.333 0 -186.666 18.667 -255.999 56
c-84 45.333 -134 113.666 -150 204.999c-28.667 165.333 -43 314.333 -43 447c0 85.333 11 184.333 33 297c14.667 75.333 64.334 113 149.001 113c40.667 0 75.667 -11 105 -33c32.667 -24 49 -56 49 -96c0 -31.333 -5.33301 -78.166 -16 -140.499
s-16 -109.166 -16 -140.499c0 -188.667 14 -329 42 -421c38 -15.333 72.333 -23 103 -23c76.667 0 161 9.66699 253 29l12 346c4 109.333 11 227.333 21 354c6 79.333 56 119 150 119c79.333 0 129 -30.333 149 -91c11.333 -15.333 16.666 -31.333 15.999 -48zM648.999 1547
c0 -11.333 -20 -40.668 -60 -88.001c-13.333 -18.667 -44.333 -54.667 -93 -108c-46.667 -41.333 -89.667 -62 -129 -62c-36 0 -68 9 -96 27c-33.333 21.333 -50 49 -50 83c0 56.667 33.333 114.5 100 173.5s128.667 88.5 186 88.5c36.667 0 68.667 -9.66699 96 -29
c30.667 -21.333 46 -49.666 46 -84.999z" />
    <glyph glyph-name="thorn" unicode="&#xfe;" horiz-adv-x="1266" 
d="M1205 490c0 -165.333 -52.999 -299.832 -158.999 -403.499s-241.667 -155.5 -407 -155.5c-92.667 0 -193 27.333 -301 82v-383c0 -10 0.833008 -25.167 2.5 -45.5s2.5 -35.5 2.5 -45.5c0 -72 -38.333 -108 -115 -108c-50.667 0 -91 21 -121 63
c-26 37.333 -39 82.666 -39 135.999c0 8 -0.333008 41.667 -1 101c-0.666992 52.667 -1 107.667 -1 165l-5 1494c0 38 14.667 69 44 93c28 22 61.333 33 100 33c61.333 0 95 -36.333 101 -109c-1.33301 -158 -2 -324 -2 -498c18.667 39.333 60.667 73 126 101
c58 25.333 113.667 38 167 38c169.333 0 311.666 -50 426.999 -150c120.667 -105.333 181 -241.333 181 -408zM917.001 490.001c0 91.333 -30.998 164.667 -92.998 220c-59.333 54 -135 81 -227 81c-44 0 -93.667 -14.667 -149 -44c-58.667 -32 -95.334 -67 -110.001 -105
v-335c124 -80 224.333 -120 301 -120c85.333 0 153.666 29.667 204.999 89c48.667 56 73 127.333 73 214z" />
    <glyph glyph-name="ydieresis" unicode="&#xff;" horiz-adv-x="1165" 
d="M1160 921l-31.001 -588.001c0.666992 9.33301 1 -43.667 1 -159c0 -14 1.33301 -34.833 4 -62.5s4 -48.5 4 -62.5c0 -30.667 -10 -57 -30 -79c-2 -32 -7.66699 -84.667 -17 -158c-11.333 -97.333 -55 -187 -131 -269c-84 -91.333 -181.333 -138.333 -292 -141
c-110 -2.66699 -211 14 -303 50c-118.667 46.667 -197.334 120.334 -236.001 221.001c-8 21.333 -11 42 -9 62c4.66699 40 25 73 61 99c32.667 24 70 36.333 112 37c46.667 1.33301 85.334 -20.667 116.001 -66c10.667 -30.667 32.334 -73.334 65.001 -128.001
c22.667 -24.667 52.334 -37 89.001 -37c16 0 39.167 5.33301 69.5 16s52.833 16 67.5 16c39.333 0.666992 68.666 48 87.999 142c2 10.667 6.33301 66 13 166c-78.667 -21.333 -159.334 -32 -242.001 -32c-101.333 0 -186.666 18.667 -255.999 56
c-84 45.333 -134 113.666 -150 204.999c-28.667 165.333 -43 314.333 -43 447c0 85.333 11 184.333 33 297c14.667 75.333 64.334 113 149.001 113c40.667 0 75.667 -11 105 -33c32.667 -24 49 -56 49 -96c0 -31.333 -5.33301 -78.166 -16 -140.499
s-16 -109.166 -16 -140.499c0 -188.667 14 -329 42 -421c38 -15.333 72.333 -23 103 -23c76.667 0 161 9.66699 253 29l12 346c4 109.333 11 227.333 21 354c6 79.333 56 119 150 119c79.333 0 129 -30.333 149 -91c11.333 -15.333 16.666 -31.333 15.999 -48zM973.999 1373
c0 -44 -17.667 -80 -53 -108c-32.667 -25.333 -71.334 -38 -116.001 -38c-45.333 0 -84.333 12.667 -117 38c-35.333 28 -53 64 -53 108c0 43.333 17.667 79 53 107c32.667 25.333 71.667 38 117 38c44.667 0 83.334 -12.667 116.001 -38c35.333 -28 53 -63.667 53 -107z
M434.999 1373c0 -44 -17.667 -80 -53 -108c-32.667 -25.333 -71.334 -38 -116.001 -38c-45.333 0 -84.333 12.667 -117 38c-35.333 28 -53 64 -53 108c0 43.333 17.667 79 53 107c32.667 25.333 71.667 38 117 38c44.667 0 83.334 -12.667 116.001 -38
c35.333 -28 53 -63.667 53 -107z" />
    <glyph glyph-name="Abreve" unicode="&#x102;" horiz-adv-x="1671" 
d="M1610 88c0 -37.333 -14.666 -67.333 -43.999 -90c-26.667 -20 -59.334 -30 -98.001 -30c-62.667 0 -137 62.667 -223 188c-54.667 78.667 -106 169 -154 271c-76 -10 -174.667 -14 -296 -12c-152.667 2.66699 -251.334 2.33398 -296.001 -0.999023
c-35.333 -147.333 -59 -236 -71 -266c-44 -114.667 -99.333 -172 -166 -172c-45.333 0 -87 13 -125 39c-41.333 27.333 -66.333 62.666 -75 105.999c-0.666992 3.33301 -1 7.33301 -1 12c0 32 17.667 91.333 53 178l77 187c312.667 742.667 504.667 1114 576 1114
c92.667 0 161 -48.333 205 -145l495 -1068c0.666992 -2 29.334 -53.333 86.001 -154c38 -68 57 -120.333 57 -157zM971.001 678l-176 468l-207 -491c38 8.66699 101.333 13.667 190 15c96.667 2 161 4.66699 193 8zM1239 2100c0 -244 -158.999 -366.002 -476.999 -366.002
c-112 0 -210.667 28 -296 84c-94.667 62 -142 142.333 -142 241c0 28.667 16.667 51.334 50 68.001c27.333 14 57 21 89 21c73.333 0 127.666 -31.333 162.999 -94c0 -83.333 50 -125 150 -125c50 0 89 16.333 117 49c26 30.667 39 71.334 39 122.001
c16 52.667 61.333 79 136 79c30 0 63.333 -6.33301 100 -19c47.333 -15.333 71 -35.333 71 -60z" />
    <glyph glyph-name="dotlessi" unicode="&#x131;" horiz-adv-x="436" 
d="M375 915l-0.000976562 -446c0 -61.333 -0.333008 -122.333 -1 -183l-3 -182c0 -42 -14.5 -74.833 -43.5 -98.5s-64.833 -35.5 -107.5 -35.5c-106 0 -159 92 -159 276c0 24.667 1.66699 62 5 112c3.33301 47.333 5 84.333 5 111l-1 286c0 145.333 14.833 230.5 44.5 255.5
s65.834 37.5 108.501 37.5c42 0 77 -11.333 105 -34c31.333 -25.333 47 -58.333 47 -99z" />
    <glyph glyph-name="OE" unicode="&#x152;" horiz-adv-x="2376" 
d="M883 212c2.66699 84.667 7.99805 189.999 15.998 315.999c12 180.667 18 316 18 406v244c0 16 -0.666992 38.667 -2 68h-55c-162 0 -290 -74 -384 -222c-66 -103.333 -99 -215 -99 -335c0 -36.667 3.33301 -75 10 -115c18.667 -116 83.334 -207.333 194.001 -274
c88.667 -53.333 189.334 -82.666 302.001 -87.999zM1373 620.999c-69.333 -2.66699 -118.666 -7.33301 -147.999 -14v-277c75.333 76 124.666 173 147.999 291zM1236 1162c-1.33301 -87.333 -4 -177.998 -8 -271.998c28.667 5.33301 59.334 8.66602 92.001 9.99902
c15.333 0.666992 32.666 0.666992 51.999 0c-22.667 121.333 -68 208.666 -136 261.999zM2315 1419c0 -40 -15.002 -73.166 -45.002 -99.499s-65.333 -39.5 -106 -39.5c-43.333 0 -108.666 -1.5 -195.999 -4.5s-152.666 -4.5 -195.999 -4.5c-46.667 0 -131.334 1 -254.001 3
c85.333 -96.667 141.333 -222 168 -376c54 0.666992 88.667 1.66699 104 3c38.667 3.33301 68.334 5 89.001 5c102.667 0 154 -44.333 154 -133c0 -104.667 -59.333 -157 -178 -157c-16 0 -41.667 1.33301 -77 4c-8.66699 0.666992 -35.667 1 -81 1
c-14 -124.667 -54.667 -242.334 -122 -353.001c-20 -32 -41 -61.333 -63 -88l592 1c40 0 75.167 -13 105.5 -39s45.5 -59 45.5 -99c0 -46 -75.667 -82.667 -227 -110c-136 -24.667 -296.333 -37 -481 -37c-44 0 -110 1.83301 -198 5.5s-154 5.5 -198 5.5h-22
c-4.66699 -2 -27.667 -3 -69 -3c-48.667 0 -85 12 -109 36c-206 1.33301 -390.667 55.333 -554 162c-182.667 118.667 -290.334 274.334 -323.001 467.001c-8.66699 52.667 -13 104 -13 154c0 167.333 48 323.666 144 468.999c140.667 212.667 344.334 321 611.001 325
c56 0.666992 112.667 -1.33301 170 -6l4 1c18 13.333 49.667 20 95 20c39.333 0 57 0.666992 53 2h9c69.333 0 173.333 1.5 312 4.5s243 4.5 313 4.5c362 0 543 -41.333 543 -124z" />
    <glyph glyph-name="oe" unicode="&#x153;" horiz-adv-x="2056" 
d="M836 457c-10 215.333 -82.335 320.668 -217.002 316.001c-90 -2.66699 -157.667 -42.667 -203 -120c-32 -55.333 -48 -116.333 -48 -183c0 -14 0.666992 -28 2 -42c6.66699 -66.667 30.334 -121.334 71.001 -164.001c44 -44.667 99 -65.667 165 -63
c71.333 3.33301 128.333 28.833 171 76.5s62.334 107.5 59.001 179.5zM1995 195.002c0 -81.333 -65.667 -145.334 -197 -192.001c-101.333 -36 -205.666 -54 -312.999 -54c-210.667 0 -372.667 52 -486 156c-89.333 -106 -212.333 -161.667 -369 -167
c-134.667 -4.66699 -255 33.333 -361 114c-116.667 88.667 -184.334 210.334 -203.001 365.001c-3.33301 24 -5 50.333 -5 79c0 117.333 33.667 224 101 320c98 139.333 247 213 447 221c147.333 6 269 -42.667 365 -146c12.667 -14 26 -29.667 40 -47l4 5
c112 127.333 257.667 191 437 191c107.333 0 212.666 -30 315.999 -90c115.333 -67.333 173 -147.333 173 -240c0 -14.667 -1.66699 -30 -5 -46c-22 -97.333 -62.667 -165.333 -122 -204c-53.333 -34 -136.666 -53.333 -249.999 -58l-410 -16
c-3.33301 -59.333 36.667 -108.333 120 -147c67.333 -31.333 136.666 -47 207.999 -47c48 0 118.333 17.333 211 52s154.334 52 185.001 52c76 0 114 -33.667 114 -101zM1670 634.001c-3.33301 64.667 -17.333 108.333 -42 131c-30 27.333 -87.667 41.666 -173 42.999
c-144.667 2.66699 -242 -66.666 -292 -207.999c30.667 0 76.167 -2.83301 136.5 -8.5s105.5 -8.5 135.5 -8.5c100 0 178.333 17 235 51z" />
    <glyph glyph-name="Scaron" unicode="&#x160;" horiz-adv-x="1327" 
d="M1267 439c0 -163.333 -72.334 -286.999 -217.001 -370.999c-113.333 -66 -249.333 -99 -408 -99c-119.333 0 -239.666 33.333 -360.999 100c-146.667 80.667 -220 180.667 -220 300c0 35.333 11 65.666 33 90.999c12.667 14.667 38.334 36 77.001 64
c41.333 30 68.666 45 81.999 45c4 0 6 -2 6 -6c0 -34.667 2.66699 -59.334 8 -74.001s19 -34.667 41 -60c66 -76 104.333 -118.333 115 -127c57.333 -46 128 -69 212 -69c76.667 0 152 20.333 226 61c89.333 49.333 134 112.666 134 189.999
c0 104.667 -73.333 167.667 -220 189l-407 54c-146.667 40.667 -220 132 -220 274s64.667 265.667 194 371c118.667 96.667 244.667 145 378 145c84.667 0 160.667 -14.333 228 -43c104.667 -44.667 160.334 -117 167.001 -217c1.33301 -24 -6.66699 -51.333 -24 -82
c-8.66699 -17.333 -22.334 -42.666 -41.001 -75.999c-20.667 -35.333 -46.667 -55.333 -78 -60c-0.666992 0 -1 0.666992 -1 2c0 3.33301 5 20 15 50c9.33301 26.667 12.666 41 9.99902 43c-100.667 72.667 -187 109 -259 109c-64 0 -130 -17 -198 -51
c-83.333 -41.333 -125 -92 -125 -152c0 -54.667 46.667 -86.667 140 -96c188.667 -18.667 297.334 -30.667 326.001 -36c134 -25.333 232 -75.666 294 -150.999s93 -181.333 93 -318zM1143 1964c0 34.667 -16 62.999 -48 84.999c-28 19.333 -60.333 29 -97 29
c-37.333 0 -84.333 -32 -141 -96l-122 -139c-2 2 -36 52 -102 150c-46.667 69.333 -90 104 -130 104c-36 0 -68 -9.66699 -96 -29c-31.333 -22 -47 -50.333 -47 -85c0 -29.333 38.333 -93.666 115 -192.999c68 -88.667 119.333 -148 154 -178c29.333 -26 63 -39 101 -39
c56 0 138.833 51.5 248.5 154.5s164.5 181.833 164.5 236.5z" />
    <glyph glyph-name="scaron" unicode="&#x161;" horiz-adv-x="1042" 
d="M1008 302c0 -116.667 -58.6641 -208.666 -175.997 -275.999c-100 -57.333 -216 -86 -348 -86c-77.333 0 -168 26.333 -272 79c-116 58.667 -174 120 -174 184c0 27.333 11.667 54 35 80s48.666 39 75.999 39c14 0 25 -5.33301 33 -16c16 -20.667 56 -45 120 -73
c68.667 -30 126.667 -45 174 -45c42 0 86.667 8.66699 134 26c60 22 90 50.667 90 86c0 33.333 -52 66 -156 98c-149.333 45.333 -245.333 79.666 -288 102.999c-104 56 -156 130.667 -156 224c0 136 56.333 231 169 285c80 38 197 57 351 57
c244.667 0 367 -51.667 367 -155c0 -52.667 -34.667 -95 -104 -127c-10.667 -4.66699 -24.334 -5.33398 -41.001 -2.00098c-7.33301 2 -19.333 4.66699 -36 8h-37c-9.33301 2 -15.666 10 -18.999 24c-50.667 10.667 -108.334 20.334 -173.001 29.001
c-10 1.33301 -23 2 -39 2c-97.333 0 -146 -32.333 -146 -97c0 -5.33301 1 -13 3 -23c3.33301 -24.667 58.666 -54.334 165.999 -89.001c140 -45.333 237 -83.666 291 -114.999c104 -60 156 -133.333 156 -220zM903.003 1562c0 34.667 -16 62.999 -48 84.999
c-28 19.333 -60.333 29 -97 29c-37.333 0 -84.333 -32 -141 -96l-122 -139c-2 2 -36 52 -102 150c-46.667 69.333 -90 104 -130 104c-36 0 -68 -9.66699 -96 -29c-31.333 -22 -47 -50.333 -47 -85c0 -29.333 38.333 -93.666 115 -192.999c68 -88.667 119.333 -148 154 -178
c29.333 -26 63 -39 101 -39c56 0 138.833 51.5 248.5 154.5s164.5 181.833 164.5 236.5z" />
    <glyph glyph-name="Tbar" unicode="&#x166;" horiz-adv-x="1527" 
d="M1245 651c0 -72.667 -55.6641 -112.667 -166.997 -120c-30 -2 -71.667 -3.66699 -125 -5l1 -322c0 -53.333 -12.333 -100 -37 -140c-30 -48 -72.333 -72 -127 -72c-54 0 -92.167 11.333 -114.5 34s-33.5 61 -33.5 115v35l1 35c4 116.667 6 220 6 310h-112
c-44 0 -83 8.66699 -117 26c-42 22 -63 53.333 -63 94c0 40 21 71.333 63 94c34.667 18 73.667 27 117 27c29.333 0 65.666 0.333008 108.999 1c-1.33301 92 -6.66602 243 -15.999 453h-21h-24c-8 -0.666992 -11.667 -1 -11 -1h-71c-294.667 0 -442 54.667 -442 164
c0 38.667 14.667 71 44 97s63.333 39 102 39c85.333 0 213.166 -4 383.499 -12s298.166 -12 383.499 -12c28.667 0 71.667 2.16699 129 6.5s100.666 6.5 129.999 6.5c155.333 0 233 -43 233 -129c0 -39.333 -15.167 -71.833 -45.5 -97.5s-65.666 -38.5 -105.999 -38.5
s-100.833 -3.16699 -181.5 -9.5s-141.334 -9.5 -182.001 -9.5h-10c4.66699 -119.333 8 -269.333 10 -450c43.333 0.666992 79.333 1 108 1c46 0 86 -8.33301 120 -25c44 -22 66 -53.667 66 -95z" />
    <glyph glyph-name="Ydieresis" unicode="&#x178;" horiz-adv-x="1618" 
d="M1557 1384c0 -31.333 -13.668 -60.9971 -41.001 -88.9971c-100 -104 -174.667 -188 -224 -252c-16.667 -22 -123 -145 -319 -369l-8 -106c-7.33301 -100.667 -11 -175 -11 -223c0 -11.333 1.66699 -72.333 5 -183c0 -6.66699 0.5 -18.334 1.5 -35.001
s1.5 -29.334 1.5 -38.001c0 -40.667 -15.333 -73.667 -46 -99c-28.667 -22.667 -64 -34 -106 -34s-77 11.333 -105 34c-31.333 25.333 -47 58.333 -47 99c0 12.667 -0.333008 25 -1 37l-2 36l-4 183c-1.33301 39.333 2.33398 113.666 11.001 222.999l2 29
c-5.33301 2 -8 5.33301 -8 10c0 5.33301 3.33301 12.333 10 21c1.33301 16 2.33301 31.667 3 47l-280 320c-12.667 14 -54.334 62.667 -125.001 146l-123 114c-53.333 52 -80 94.667 -80 128c0 40.667 16.333 74.334 49 101.001c30 24.667 65.667 37 107 37
c40 0 92.333 -25.333 157 -76c48.667 -38.667 87.334 -76 116.001 -112c51.333 -64.667 97.333 -119 138 -163l203 -221l276 332c134.667 160 232 240 292 240c42 0 78.333 -12 109 -36c32.667 -26.667 49 -60.334 49 -101.001zM958.999 658.003l-10 -11.001
c4 4.66699 7.33301 8.33398 10 11.001zM1295 1828c0 -44 -17.667 -80 -53 -108c-32.667 -25.333 -71.334 -38 -116.001 -38c-45.333 0 -84.333 12.667 -117 38c-35.333 28 -53 64 -53 108c0 43.333 17.667 79 53 107c32.667 25.333 71.667 38 117 38
c44.667 0 83.334 -12.667 116.001 -38c35.333 -28 53 -63.667 53 -107zM755.999 1828c0 -44 -17.667 -80 -53 -108c-32.667 -25.333 -71.334 -38 -116.001 -38c-45.333 0 -84.333 12.667 -117 38c-35.333 28 -53 64 -53 108c0 43.333 17.667 79 53 107
c32.667 25.333 71.667 38 117 38c44.667 0 83.334 -12.667 116.001 -38c35.333 -28 53 -63.667 53 -107z" />
    <glyph glyph-name="florin" unicode="&#x192;" horiz-adv-x="1504" 
d="M895 776l-78.9961 -539l-12 -147c-3.33301 -33.333 -14 -64.333 -32 -93c-12.667 -70 -23.334 -126.333 -32.001 -169c-20.667 -96 -73 -184 -157 -264c-94 -89.333 -196 -134 -306 -134c-22 -6 -43.667 -9 -65 -9c-43.333 0 -80 12.333 -110 37
c-33.333 26.667 -47 61 -41 103c9.33301 64 60.666 102 153.999 114c70 16 110.333 24 121 24c38 0 72 46.667 102 140c26 118.667 53.333 299.667 82 543c26 220 51.667 394.667 77 524c36.667 185.333 89.667 330.333 159 435c115.333 172 282.666 258 501.999 258
c123.333 0 185 -36.667 185 -110c0 -8.66699 -0.333008 -15.667 -1 -21c-10.667 -71.333 -50.334 -111 -119.001 -119c-118.667 -14 -187.667 -25.667 -207 -35c-82 -40 -142 -135.667 -180 -287c99.333 8 170.333 12 213 12c126 0 189 -36 189 -108
c0 -65.333 -33 -108.333 -99 -129c-36 -11.333 -90.333 -17 -163 -17c-44 0 -104.333 -3 -181 -9z" />
    <glyph glyph-name="circumflex" unicode="&#x2c6;" horiz-adv-x="905" 
d="M844 1255c0 -34.667 -16 -62.999 -48 -84.999c-28 -19.333 -60.333 -29 -97 -29c-37.333 0 -84.333 32 -141 96l-122 139c-2 -2 -36 -52 -102 -150c-46.667 -69.333 -90 -104 -130 -104c-35.333 0 -67.333 10 -96 30c-31.333 22 -47 50 -47 84
c0 29.333 38.333 93.666 115 192.999c68 88.667 119.333 148 154 178c29.333 26 63 39 101 39c56 0 138.833 -51.5 248.5 -154.5s164.5 -181.833 164.5 -236.5z" />
    <glyph glyph-name="caron" unicode="&#x2c7;" horiz-adv-x="905" 
d="M844 1513c0 34.667 -16 62.999 -48 84.999c-28 19.333 -60.333 29 -97 29c-37.333 0 -84.333 -32 -141 -96l-122 -139c-2 2 -36 52 -102 150c-46.667 69.333 -90 104 -130 104c-36 0 -68 -9.66699 -96 -29c-31.333 -22 -47 -50.333 -47 -85
c0 -29.333 38.333 -93.666 115 -192.999c68 -88.667 119.333 -148 154 -178c29.333 -26 63 -39 101 -39c56 0 138.833 51.5 248.5 154.5s164.5 181.833 164.5 236.5z" />
    <glyph glyph-name="breve" unicode="&#x2d8;" horiz-adv-x="1037" 
d="M976 1718c0 -158 -40.332 -273.333 -120.999 -346c-77.333 -70 -196 -105 -356 -105c-118.667 0 -220.334 36.667 -305.001 110c-88.667 76.667 -133 173.667 -133 291c0 32.667 15.333 59.667 46 81c27.333 18.667 58.333 28 93 28c73.333 0 128 -38.667 164 -116
c0 -102.667 49.667 -154 149 -154c54 0 95 22.667 123 68c22 38 33 85.667 33 143c16.667 64.667 62 97 136 97c33.333 0 68 -8 104 -24c44.667 -20 67 -44.333 67 -73z" />
    <glyph glyph-name="ring" unicode="&#x2da;" horiz-adv-x="703" 
d="M642 1486c0 -93.333 -27.5 -165.167 -82.5 -215.5s-129.5 -75.5 -223.5 -75.5c-77.333 0 -142 23.333 -194 70c-54 48 -81 110.333 -81 187c0 92 29 164.667 87 218c56 52 130.333 78 223 78c78 0 142.667 -24.333 194 -73s77 -111.667 77 -189zM443 1486
c0 44.667 -31.333 67.001 -94 67.001c-38 0 -64.167 -7.16699 -78.5 -21.5s-21.5 -40.5 -21.5 -78.5c0 -20.667 10.333 -37.334 31 -50.001c18 -11.333 37.667 -17 59 -17c69.333 0 104 33.333 104 100z" />
    <glyph glyph-name="tilde" unicode="&#x2dc;" horiz-adv-x="1141" 
d="M1080 1453c0 -71.333 -30.667 -134.166 -92 -188.499s-128 -81.5 -200 -81.5c-92.667 0 -170 15.667 -232 47c-33.333 16.667 -71.333 46 -114 88c-32.667 31.333 -59 47 -79 47s-46.333 -24.167 -79 -72.5s-64 -72.5 -94 -72.5c-30.667 0 -58.667 7.66699 -84 23
c-30 17.333 -45 40.333 -45 69c0 71.333 33.333 130.666 100 177.999c60 42.667 127.333 64 202 64c76 0 139.333 -15.667 190 -47c14 -8.66699 47.333 -38 100 -88c33.333 -31.333 67 -47 101 -47c37.333 0 62 15 74 45c5.33301 14 14.333 42.333 27 85
c17.333 30 50 45 98 45c32 0 60 -7.66699 84 -23c28.667 -17.333 43 -41 43 -71z" />
    <glyph glyph-name="Delta" unicode="&#x394;" horiz-adv-x="1509" 
d="M267 -62c20.667 -4 42.001 -6 64.001 -6c99.333 0 248.666 -1.5 447.999 -4.5s348.666 -4.5 447.999 -4.5c12 0 23.333 0.333008 34 1c10.667 -2.66699 20.667 -4 30 -4c41.333 0 77.333 12 108 36c32.667 26.667 49 60 49 100c0 16 -19.667 58.667 -59 128l-79 139
c-18.667 41.333 -95.334 233.333 -230.001 576c-93.333 236 -183.666 421.667 -270.999 557c-33.333 52 -79 78 -137 78c-74.667 0 -128 -32.667 -160 -98c-43.333 -88.667 -128 -318 -254 -688c-131.333 -386 -197 -613.333 -197 -682c0 -40.667 16.333 -73.667 49 -99
c29.333 -23.333 65 -35 107 -35c18.667 0 35.334 2 50.001 6zM1048 169c-150.667 2.66699 -361.999 4 -633.999 4c31.333 95.333 67.666 215.333 108.999 360c65.333 228 117.333 395 156 501l171 -438c64.667 -162 130.667 -304.333 198 -427z" />
    </font>
</defs>
</svg>
